<?xml version="1.0" standalone="no"?>
<!DOCTYPE svg PUBLIC "-//W3C//DTD SVG 1.1//EN" "http://www.w3.org/Graphics/SVG/1.1/DTD/svg11.dtd" >
<svg xmlns="http://www.w3.org/2000/svg">
<metadata>
Created by FontPrep 20130207 at Fri Aug  7 10:25:03 2015
 By gumar
Copyright (c) 2009 by Studio Kmzero. All rights reserved.
</metadata>
<defs>
<font id="55811ee8a2662a0fd6a9f7f06e59c33a" horiz-adv-x='1024' >
  <font-face 
    font-family="Sugo-UltraLight"
    font-weight="250"
    font-stretch="normal"
    units-per-em="2048"
    panose-1="2 0 5 6 0 0 0 2 0 4"
    ascent="1638"
    descent="-410"
    x-height="1020"
    cap-height="1382"
    bbox="-172 -449.01 1575 1845.01"
    underline-thickness="102"
    underline-position="-102"
    unicode-range="U+0020-FB00"
  />
<missing-glyph horiz-adv-x="583" 
 />
    <glyph glyph-name=".notdef" horiz-adv-x="583" 
 />
    <glyph glyph-name=".null" horiz-adv-x="0" 
 />
    <glyph glyph-name="nonmarkingreturn" horiz-adv-x="681" 
 />
    <glyph glyph-name="space" unicode=" " horiz-adv-x="583" 
 />
    <glyph glyph-name="exclam" unicode="!" horiz-adv-x="229" 
d="M57 1409q0 16 10.5 28.5t30.5 12.5h23q16 0 29.5 -11.5t13.5 -29.5v-1010q0 -41 -43 -41h-23q-41 0 -41 41v1010zM57 68q0 16 10.5 28.5t30.5 12.5h25q16 0 28.5 -11.5t12.5 -29.5v-27q0 -41 -41 -41h-25q-41 0 -41 41v27z" />
    <glyph glyph-name="quotedbl" unicode="&#x22;" horiz-adv-x="464" 
d="M82 1434q0 41 41 41h22q16 0 29.5 -11.5t13.5 -29.5v-250q0 -43 -43 -43h-22q-41 0 -41 43v250zM274 1434q0 16 10.5 28.5t30.5 12.5h23q16 0 29.5 -11.5t13.5 -29.5v-250q0 -43 -43 -43h-23q-41 0 -41 43v250z" />
    <glyph glyph-name="numbersign" unicode="#" horiz-adv-x="796" 
d="M512 1341q0 41 41 41h22q16 0 29.5 -11t13.5 -30v-354h97q16 0 28.5 -10t12.5 -31v-22q0 -16 -11.5 -29.5t-29.5 -13.5h-97v-334h97q16 0 28.5 -10.5t12.5 -30.5v-23q0 -16 -11.5 -29.5t-29.5 -13.5h-97v-397q0 -43 -43 -43h-22q-41 0 -41 43v397h-227v-397
q0 -43 -43 -43h-23q-41 0 -41 43v397h-94q-43 0 -43 43v23q0 41 43 41h94v334h-94q-43 0 -43 43v22q0 41 43 41h94v354q0 16 10.5 28.5t30.5 12.5h23q16 0 29.5 -11t13.5 -30v-354h227v354zM285 547h227v334h-227v-334z" />
    <glyph glyph-name="dollar" unicode="$" horiz-adv-x="684" 
d="M653 1067q0 -41 -41 -41h-22q-16 0 -29.5 11.5t-13.5 29.5q-4 90 -38 152.5t-120 78.5v-585q56 -66 126 -147q101 -115 121.5 -162.5t20.5 -107.5q0 -116 -77.5 -208t-190.5 -108v-197q0 -43 -43 -43h-22q-41 0 -41 43v199q-114 15 -183 101t-69 208v31q0 16 10 28t31 12
h22q16 0 29.5 -11t13.5 -29v-9q0 -88 32.5 -153t113.5 -82v600l-162 186q-86 103 -86 222t70.5 206t177.5 107v174q0 41 41 41h22q16 0 29.5 -11.5t13.5 -29.5v-172q117 -16 190.5 -106t73.5 -203v-25zM555 272q0 60 -23.5 102t-52.5 77l-90 104v-479q72 16 119 76t47 120z
M137 1108q0 -108 60 -172q23 -25 43 -50.5t43 -49.5v456q-63 -20 -104.5 -74t-41.5 -110z" />
    <glyph glyph-name="ampersand" unicode="&#x26;" horiz-adv-x="923" 
d="M621 924q0 41 41 41h22q16 0 29.5 -11.5t13.5 -29.5v-144h143q16 0 28.5 -10t12.5 -31v-22q0 -16 -11 -29.5t-30 -13.5h-143v-369q0 -137 -96.5 -233.5t-233.5 -96.5t-232 97t-95 233v146q0 97 26.5 144.5t52 74t60.5 57.5q-139 117 -139 274v121q0 138 95 233t232 95h76
q16 0 28.5 -10t12.5 -31v-23q0 -16 -11 -29.5t-30 -13.5h-76q-92 0 -156.5 -66t-64.5 -155v-121q0 -88 65 -154.5t156 -66.5h224v144zM397 674q-90 0 -155.5 -65.5t-65.5 -157.5v-146q0 -92 65.5 -157.5t156 -65.5t157 65t66.5 158v369h-224z" />
    <glyph glyph-name="quotesingle" unicode="'" horiz-adv-x="276" 
d="M80 1436q0 41 41 41h22q16 0 29.5 -11.5t13.5 -29.5v-250q0 -43 -43 -43h-22q-41 0 -41 43v250z" />
    <glyph glyph-name="parenleft" unicode="(" horiz-adv-x="425" 
d="M410 1407v-23q0 -18 -11.5 -30.5t-29.5 -12.5q-84 -10 -138.5 -72.5t-54.5 -146.5v-1216q0 -86 54.5 -147.5t138.5 -73.5q16 0 28.5 -10.5t12.5 -30.5v-23q0 -18 -11.5 -30.5t-29.5 -12.5q-129 12 -214 106t-85 222v1216q0 126 84.5 220t214.5 106q16 0 28.5 -10.5
t12.5 -30.5z" />
    <glyph glyph-name="parenright" unicode=")" horiz-adv-x="428" 
d="M356 1122v-1216q0 -128 -85.5 -222t-213.5 -106q-18 0 -29.5 12.5t-11.5 30.5v23q0 20 12.5 30.5t28.5 10.5q84 12 138.5 73.5t54.5 147.5v1216q0 84 -54.5 146.5t-138.5 72.5q-18 0 -29.5 12.5t-11.5 30.5v23q0 20 12.5 30.5t28.5 10.5q130 -12 214.5 -106t84.5 -220z
" />
    <glyph glyph-name="asterisk" unicode="*" horiz-adv-x="724" 
d="M651 758q16 0 28.5 -10.5t12.5 -30.5v-23q0 -16 -11 -29.5t-30 -13.5h-198l104 -178q8 -12 5 -28.5t-21 -24.5l-19 -12q-37 -21 -57 12l-107 180l-104 -180q-10 -16 -26.5 -18.5t-30.5 6.5l-19 12q-18 8 -21 24.5t5 28.5l102 178h-186q-43 0 -43 43v23q0 41 43 41h190
l-92 157q-23 37 17 60l18 10q35 23 57 -14l90 -158l93 158q23 37 57 14l18 -10q39 -23 17 -60l-92 -157h200z" />
    <glyph glyph-name="plus" unicode="+" horiz-adv-x="679" 
d="M393 408q0 -41 -41 -41h-22q-16 0 -29.5 11t-13.5 30v233h-232q-43 0 -43 43v23q0 41 43 41h232v233q0 43 43 43h22q41 0 41 -43v-233h236q16 0 28.5 -10.5t12.5 -30.5v-23q0 -16 -11.5 -29.5t-29.5 -13.5h-236v-233z" />
    <glyph glyph-name="comma" unicode="," horiz-adv-x="219" 
d="M51 41v25q0 41 41 40h29q41 0 41 -40v-66q0 -75 -31 -119t-49 -25t-15 28.5t17 29.5t14 45v21q0 10 -1 15t-11 5q-35 4 -35 41z" />
    <glyph glyph-name="hyphen" unicode="-" horiz-adv-x="817" 
d="M696 604q16 0 28.5 -10t12.5 -31v-22q0 -16 -11 -29.5t-30 -13.5h-573q-43 0 -43 43v22q0 41 43 41h573z" />
    <glyph glyph-name="period" unicode="." horiz-adv-x="253" 
d="M74 66q0 16 10 28t31 12h24q16 0 28.5 -11t12.5 -29v-25q0 -41 -41 -41h-24q-41 0 -41 41v25z" />
    <glyph glyph-name="slash" unicode="/" horiz-adv-x="651" 
d="M580 1382h26q29 0 34 -10t-5 -39l-508 -1304q-12 -29 -45 -29h-39q-37 0 -23 39l502 1302q10 27 22.5 34t35.5 7z" />
    <glyph glyph-name="zero" unicode="0" horiz-adv-x="804" 
d="M72 1081q0 139 96.5 233.5t233 94.5t233 -94.5t96.5 -233.5v-776q0 -137 -96.5 -233.5t-233 -96.5t-233 96.5t-96.5 233.5v776zM623 1081q0 89 -64.5 155.5t-157.5 66.5t-157 -67t-64 -155v-776q0 -91 64 -157t157 -66t157.5 66t64.5 157v776z" />
    <glyph glyph-name="one" unicode="1" horiz-adv-x="356" 
d="M205 1382h22q16 0 29.5 -11t13.5 -30v-1298q0 -43 -43 -43h-22q-41 0 -41 43v1208l-78 -32q-39 -16 -57 22l-9 21q-16 37 23 55l137 59q11 6 25 6z" />
    <glyph glyph-name="two" unicode="2" horiz-adv-x="800" 
d="M106 985q-40 0 -40 41v29q0 138 96.5 232.5t233 94.5t233 -94.5t96.5 -232.5v-150q0 -108 -88 -219l-438 -580h526q41 0 41 -40v-23q0 -16 -11.5 -29.5t-29.5 -13.5h-659v102q63 94 264.5 352.5t261.5 352.5q24 44 24 98v150q0 90 -64 155.5t-157 65.5
q-92 0 -157.5 -65.5t-65.5 -155.5v-29q0 -18 -13.5 -29.5t-29.5 -11.5h-23z" />
    <glyph glyph-name="three" unicode="3" horiz-adv-x="778" 
d="M119 352q43 0 43 -47t17.5 -87t48 -70.5t70.5 -48t108.5 -17.5t134 65.5t65.5 157.5v158q0 86 -57 142.5t-141 66.5q-16 0 -28.5 10t-12.5 31v22q0 18 11 30.5t30 12.5q84 10 141 67.5t57 143.5v64q0 90 -65.5 155.5t-156.5 65.5t-156.5 -65.5t-65.5 -155.5v-29
q0 -18 -12.5 -29.5t-30.5 -11.5h-23q-20 0 -30.5 12.5t-10.5 28.5v29q0 138 96 232.5t231 94.5q136 0 233.5 -94t97.5 -233v-64q0 -115 -51.5 -180.5t-88.5 -83.5q96 -67 118 -149t22 -113v-158q0 -138 -97.5 -234t-233.5 -96t-231.5 97t-95.5 233q0 47 41 47h23z" />
    <glyph glyph-name="four" unicode="4" horiz-adv-x="741" 
d="M692 295v-23q0 -16 -11 -29.5t-30 -13.5h-51v-186q0 -43 -43 -43h-22q-41 0 -41 43v186h-445q-43 0 -43 43v66l481 1003q20 39 48 39h22q16 0 29.5 -11t13.5 -30v-1001h51q41 -5 41 -43zM494 338v764l-373 -764h373z" />
    <glyph glyph-name="five" unicode="5" horiz-adv-x="774" 
d="M385 817q-178 0 -209 -102h-104v667h616q16 0 28.5 -10t12.5 -31v-22q0 -18 -11 -30.5t-30 -12.5h-510v-418q23 29 79 47.5t128 18.5q144 0 244 -98t100 -232v-289q0 -137 -96.5 -233.5t-233.5 -96.5t-232 97t-95 233v25q0 41 41 41h22q42 1 44 -47q10 -242 220 -242
q91 0 157.5 65t66.5 158v289q0 92 -69 157.5t-169 65.5z" />
    <glyph glyph-name="six" unicode="6" horiz-adv-x="794" 
d="M401 891q138 0 234 -96t96 -234v-256q0 -137 -96.5 -233.5t-233 -96.5t-233 96.5t-96.5 233.5v748q0 138 96.5 232.5t226.5 94.5t222 -79t108 -203q0 -18 -12.5 -29.5t-30.5 -11.5h-23q-20 0 -27.5 12t-15.5 36q-26 83 -64 126t-140 43q-101 0 -166.5 -65.5t-65.5 -155.5
v-246q118 84 221 84zM623 561q0 91 -64 157t-155 66t-154.5 -60t-69.5 -151v-268q0 -92 65.5 -157.5t157 -65.5t156 66t64.5 157v256z" />
    <glyph glyph-name="seven" unicode="7" horiz-adv-x="669" 
d="M76 1276q-43 0 -43 43v22q0 41 43 41h542q18 0 31 -12t13 -31v-34q0 -20 -5 -29l-497 -1239q-15 -37 -47 -37h-45q-35 0 -27 23.5t16 42.5l494 1210h-475z" />
    <glyph glyph-name="eight" unicode="8" horiz-adv-x="794" 
d="M68 449q0 170 143 278q-85 64 -114 131t-29 141v56q0 138 96.5 232.5t233 94.5t233 -94.5t96.5 -232.5v-56q0 -163 -139 -272q139 -94 139 -278v-144q0 -137 -96.5 -233.5t-233 -96.5t-233 96.5t-96.5 233.5v144zM174 449v-144q0 -92 65.5 -157.5t156.5 -65.5t156.5 64.5
t65.5 158.5v144q0 88 -62.5 154.5t-157.5 66.5q-92 0 -158 -64.5t-66 -156.5zM174 999q0 -90 65.5 -155.5t156.5 -65.5t156.5 64.5t65.5 156.5v56q0 92 -66 156.5t-156 64.5q-91 0 -156.5 -65.5t-65.5 -155.5v-56z" />
    <glyph glyph-name="nine" unicode="9" horiz-adv-x="796" 
d="M614 549q-118 -84 -238 -84t-216.5 96.5t-96.5 233.5v256q0 136 96.5 232.5t234 96.5t233.5 -96t96 -233v-748q0 -138 -97 -233t-228 -95t-221.5 80t-106.5 203q0 18 12 29.5t31 11.5h22q31 0 41 -41q29 -89 67 -132.5t139 -43.5t166.5 64.5t65.5 156.5v246zM172 795
q0 -90 63.5 -157t154.5 -67t154.5 60.5t69.5 150.5v269q0 94 -66 158.5t-157 64.5t-155 -66t-64 -157v-256z" />
    <glyph glyph-name="colon" unicode=":" horiz-adv-x="225" 
d="M61 66q1 16 11 28t30 12h25q17 0 29 -11t12 -29v-25q0 -41 -41 -41h-25q-41 0 -41 41v25zM61 836q0 39 41 41h25q17 1 29 -11t12 -30v-25q0 -41 -41 -41h-25q-41 0 -41 41v25z" />
    <glyph glyph-name="semicolon" unicode=";" horiz-adv-x="135" 
d="M14 836q0 39 41 41h25q16 1 28 -11t13 -30v-25q0 -41 -41 -41h-25q-41 0 -41 41v25zM20 41v25q0 41 41 40h29q41 0 41 -40v-66q0 -80 -26 -114t-37 -34q-12 0 -22 11t-11 17q0 6 16 31q16 24 17 48v21q0 10 -1 15t-12 5q-35 4 -35 41z" />
    <glyph glyph-name="less" unicode="&#x3c;" horiz-adv-x="602" 
d="M29 487q-25 25 4 54l407 407q12 14 30 12t30 -14l16 -14q26 -26 0 -60l-360 -360l360 -360q12 -12 11 -30t-13 -30l-16 -16q-27 -27 -58 0z" />
    <glyph glyph-name="equal" unicode="=" horiz-adv-x="821" 
d="M698 637q16 0 28.5 -10.5t12.5 -30.5v-23q0 -16 -11 -29.5t-30 -13.5h-573q-43 0 -43 43v23q0 41 43 41h573zM698 850q16 0 28.5 -10.5t12.5 -30.5v-23q0 -16 -11 -29.5t-30 -13.5h-573q-43 0 -43 43v23q0 41 43 41h573z" />
    <glyph glyph-name="greater" unicode="&#x3e;" horiz-adv-x="602" 
d="M162 76q-32 -26 -58 0l-16 16q-12 12 -13 30t11 30l360 360l-360 360q-26 32 0 60l16 14q12 12 30 14t30 -12l407 -407q29 -29 4 -54z" />
    <glyph glyph-name="question" unicode="?" horiz-adv-x="690" 
d="M260 66q0 16 10.5 28t30.5 12h23q16 0 29.5 -11t13.5 -29v-23q0 -43 -43 -43h-23q-41 0 -41 43v23zM119 1118q0 -18 -13.5 -29.5t-29.5 -11.5h-23q-20 0 -30.5 12.5t-10.5 28.5v29q0 138 96.5 233t231.5 95t232.5 -95.5t97.5 -232.5v-170q0 -88 -67 -159t-124 -120
q-112 -96 -112 -196v-144q0 -18 -13.5 -29.5t-29.5 -11.5h-23q-20 0 -30.5 12.5t-10.5 28.5v144q0 104 57.5 176t141.5 139q68 66 87 94.5t17 75.5v160q0 90 -65.5 155.5t-156.5 65.5t-156.5 -65.5t-65.5 -155.5v-29z" />
    <glyph glyph-name="at" unicode="@" horiz-adv-x="772" 
d="M657 332q43 0 43 -65q0 -42 -24.5 -99t-66.5 -99t-99 -67t-155 -25t-189.5 91.5t-91.5 222.5v801q0 131 91 222t222 91t222 -91t91 -222v-631q0 -27 -26 -27h-51q-25 0 -25 27v14q-37 -55 -130 -55t-152.5 58.5t-59.5 144.5t59.5 141t145.5 55h137v273q0 86 -61 148.5
t-150 62.5t-150 -62.5t-61 -148.5v-801q0 -88 61.5 -149.5t149.5 -61.5t147.5 61.5t59.5 149.5q0 41 41 41h22zM473 731q-51 0 -86 -30.5t-35 -78t35 -80t84 -32.5t86 26.5t41 75.5v119h-125z" />
    <glyph glyph-name="A" unicode="A" horiz-adv-x="749" 
d="M676 0h-27q-39 0 -47 39l-33 151h-391l-26 -151q-6 -39 -48 -39h-24q-45 0 -39 39l260 1300q10 43 43 43h62q32 0 43 -43l260 -1300q6 -39 -33 -39zM377 1155l-176 -866h350z" />
    <glyph glyph-name="B" unicode="B" horiz-adv-x="778" 
d="M125 1382h272q132 0 223 -91t91 -222v-129q0 -58 -35 -132.5t-101 -100.5q87 -52 111.5 -135t24.5 -140v-119q0 -131 -91 -222t-223 -91h-272q-18 0 -30.5 12.5t-12.5 30.5v1296q0 18 12.5 30.5t30.5 12.5zM184 641v-539h213q85 0 148 61.5t63 149.5v117q0 89 -63 150
t-148 61h-213zM184 1280v-537h213q85 0 148 61.5t63 149.5v115q0 86 -62.5 148.5t-148.5 62.5h-213z" />
    <glyph glyph-name="C" unicode="C" horiz-adv-x="755" 
d="M700 1117q0 -41 -10 -53.5t-33 -12.5h-16q-14 0 -27.5 11t-13.5 42t-16.5 69.5t-46 67.5t-68.5 45.5t-103 16.5t-127 -61.5t-63 -149.5v-801q0 -89 63 -150t149 -61t149 61t63 150q0 16 10.5 28.5t32.5 12.5h16q18 0 29.5 -11.5t11.5 -53.5t-24.5 -99t-91.5 -124
t-202 -67t-221.5 89t-86.5 225v801q0 131 91 222t222 91t197.5 -66.5t91 -123.5t24.5 -98z" />
    <glyph glyph-name="D" unicode="D" 
d="M82 1339q0 18 12 30.5t31 12.5h270q136 0 225 -87t89 -226v-756q0 -130 -91.5 -221.5t-222.5 -91.5h-270q-18 0 -30.5 12.5t-12.5 30.5v1296zM184 1280v-1178h211q85 0 148 61.5t63 149.5v756q0 86 -62.5 148.5t-148.5 62.5h-211z" />
    <glyph glyph-name="E" unicode="E" horiz-adv-x="663" 
d="M82 1341q0 41 41 41h487q16 0 28.5 -10t12.5 -31v-22q0 -16 -11 -29.5t-30 -13.5h-422v-533h340q16 0 28.5 -10t12.5 -31v-22q0 -16 -11 -29.5t-30 -13.5h-340v-531h422q41 0 41 -40v-23q0 -16 -11 -29.5t-30 -13.5h-487q-41 0 -41 41v1300z" />
    <glyph glyph-name="F" unicode="F" horiz-adv-x="712" 
d="M82 1341q0 41 41 41h549q16 0 28.5 -10t12.5 -31v-22q0 -16 -11.5 -29.5t-29.5 -13.5h-484v-533h381q16 0 28.5 -10t12.5 -31v-22q0 -16 -11 -29.5t-30 -13.5h-381v-596q0 -41 -43 -41h-22q-41 0 -41 41v1300z" />
    <glyph glyph-name="G" unicode="G" horiz-adv-x="763" 
d="M479 653q0 18 12.5 30.5t30.5 12.5h135q18 0 30.5 -12t12.5 -31v-362q0 -131 -91.5 -222.5t-221.5 -91.5t-221.5 91.5t-91.5 222.5v801q0 131 91 222t222 91t220 -82.5t93 -212.5q0 -18 -12 -30.5t-31 -12.5h-16q-18 0 -30.5 12.5t-12.5 30.5q0 88 -61.5 140.5
t-149.5 52.5t-149.5 -62.5t-61.5 -148.5v-801q0 -88 61.5 -149.5t149.5 -61.5t149.5 61.5t61.5 149.5v303h-76q-18 0 -30.5 12t-12.5 31v16z" />
    <glyph glyph-name="H" unicode="H" horiz-adv-x="794" 
d="M82 1341q0 41 41 41h22q16 0 29.5 -11t13.5 -30v-598h416v598q0 16 10.5 28.5t30.5 12.5h23q16 0 29.5 -11t13.5 -30v-1300q0 -41 -43 -41h-23q-41 0 -41 41v596h-416v-596q0 -41 -43 -41h-22q-41 0 -41 41v1300z" />
    <glyph glyph-name="I" unicode="I" horiz-adv-x="282" 
d="M82 1341q0 41 41 41h22q16 0 29.5 -11t13.5 -30v-1298q0 -43 -43 -43h-22q-41 0 -41 43v1298z" />
    <glyph glyph-name="J" unicode="J" horiz-adv-x="636" 
d="M453 1341q0 41 41 41h22q16 0 29.5 -11t13.5 -30v-1050q0 -131 -91.5 -222.5t-234 -91.5t-219.5 84q-24 29 -4 56l21 20q33 27 65 -5q53 -52 146 -52q92 0 151.5 61.5t59.5 149.5v1050z" />
    <glyph glyph-name="K" unicode="K" horiz-adv-x="659" 
d="M82 1341q0 41 41 41h24q16 0 28.5 -11t12.5 -30v-651l285 639q16 39 27.5 46t36.5 7h34q35 0 30 -21t-43 -105t-103.5 -229.5t-130.5 -293.5l303 -667q31 -66 -15 -66h-49q-25 0 -43 39l-256 563l-76 -172v-387q0 -43 -43 -43h-22q-41 0 -41 43v1298z" />
    <glyph glyph-name="L" unicode="L" horiz-adv-x="706" 
d="M82 1341q0 41 41 41h22q16 0 29.5 -11t13.5 -30v-1235h478q41 0 41 -40v-23q0 -16 -11.5 -29.5t-29.5 -13.5h-543q-41 0 -41 41v1300z" />
    <glyph glyph-name="M" unicode="M" horiz-adv-x="1052" 
d="M82 1341q0 41 41 41h37q30 0 43 -41l321 -911l322 911q14 41 43 41h37q16 0 29.5 -11t13.5 -30v-1298q0 -43 -43 -43h-23q-41 0 -41 43v1018l-284 -797q-16 -37 -43 -37h-23q-25 0 -41 37l-283 797v-1018q0 -43 -43 -43h-22q-41 0 -41 43v1298z" />
    <glyph glyph-name="N" unicode="N" horiz-adv-x="802" 
d="M639 0q-27 0 -43 43l-408 1036v-1036q0 -43 -43 -43h-22q-41 0 -41 43v1296q0 18 13.5 30.5t29.5 12.5h37q18 0 26.5 -12t16.5 -31l407 -1040v1042q0 16 10.5 28.5t30.5 12.5h23q16 0 29.5 -11t13.5 -30v-1298q0 -18 -12.5 -30.5t-30.5 -12.5h-37z" />
    <glyph glyph-name="O" unicode="O" horiz-adv-x="774" 
d="M74 1092q0 131 91 222t222 91t222 -91t91 -222v-801q0 -131 -91.5 -222.5t-221.5 -91.5t-221.5 91.5t-91.5 222.5v801zM598 1092q0 86 -61 148.5t-150 62.5t-150 -62.5t-61 -148.5v-801q0 -88 61.5 -149.5t149.5 -61.5t149.5 61.5t61.5 149.5v801z" />
    <glyph glyph-name="P" unicode="P" horiz-adv-x="735" 
d="M82 1339q0 18 12 30.5t31 12.5h270q136 0 225 -87t89 -224v-375q0 -127 -91 -220t-223 -93h-207v-340q0 -43 -43 -43h-22q-41 0 -41 43v1296zM188 1280v-795h207q87 0 149 63.5t62 147.5v373q0 86 -62.5 148.5t-148.5 62.5h-207z" />
    <glyph glyph-name="Q" unicode="Q" horiz-adv-x="749" 
d="M61 291v801q0 130 91.5 221.5t222.5 91.5t222 -91t91 -222v-801q0 -117 -73.5 -203t-190.5 -111v-141q-2 -41 -43 -41h-23q-41 0 -41 43v139q-117 35 -186.5 116t-69.5 198zM586 1092q0 86 -61 148.5t-150 62.5t-150 -62.5t-61 -148.5v-801q0 -88 61.5 -149.5
t149.5 -61.5t149.5 61.5t61.5 149.5v801z" />
    <glyph glyph-name="R" unicode="R" horiz-adv-x="794" 
d="M82 1341q0 41 41 41h272q132 0 224 -86.5t92 -226.5v-115q0 -92 -50.5 -164.5t-121.5 -113.5l182 -615q14 -61 -29 -61h-28q-39 0 -50 43l-174 598h-252v-598q0 -43 -43 -43h-22q-41 0 -41 43v1298zM188 1280v-537h207q87 0 150 61.5t63 149.5v115q0 86 -62.5 148.5
t-150.5 62.5h-207z" />
    <glyph glyph-name="S" unicode="S" horiz-adv-x="743" 
d="M373 1303q-88 0 -147.5 -63t-59.5 -151t74 -173q350 -396 381.5 -441t48 -81.5t16.5 -100.5q0 -125 -92.5 -221.5t-228.5 -96.5t-221 91t-85 225v31q0 16 10.5 28t30.5 12h23q16 0 29.5 -11t13.5 -29v-9q0 -104 45 -172.5t162 -68.5q86 0 148.5 64t62.5 143q0 80 -76 172
l-358 413q-87 104 -87 232t90.5 218.5t219.5 90.5t219 -90t90 -223v-25q0 -41 -41 -41h-23q-16 0 -29.5 11.5t-13.5 29.5q-10 236 -202 236z" />
    <glyph glyph-name="T" unicode="T" horiz-adv-x="663" 
d="M606 1382q16 0 28.5 -10t12.5 -31v-22q0 -16 -11 -29.5t-30 -13.5h-219v-1235q0 -41 -43 -41h-22q-41 0 -41 41v1235h-224q-41 0 -41 43v22q0 41 41 41h549z" />
    <glyph glyph-name="U" unicode="U" 
d="M78 1341q0 41 41 41h22q16 0 29.5 -11t13.5 -30v-1050q0 -87 60 -149t147 -62q88 0 147.5 61.5t59.5 149.5v1050q0 41 41 41h23q16 0 29.5 -11t13.5 -30v-1050q0 -130 -92 -222t-222 -92t-221.5 91.5t-91.5 222.5v1050z" />
    <glyph glyph-name="V" unicode="V" horiz-adv-x="686" 
d="M72 1382h26q20 0 29.5 -7t13.5 -29l201 -1024l203 1028q7 32 43 32h30q18 0 26.5 -15t4.5 -32l-252 -1292q-9 -43 -45 -43q-37 0 -48 11.5t-15 31.5l-252 1292q-4 18 4 32.5t31 14.5z" />
    <glyph glyph-name="W" unicode="W" horiz-adv-x="1310" 
d="M80 1341q0 41 41 41h22q16 0 29.5 -11t13.5 -30v-1050q0 -88 59.5 -149.5t143.5 -61.5t148.5 62t64.5 149v1048q0 16 11.5 29.5t31.5 13.5h21q16 0 29.5 -11t13.5 -32v-1048q0 -88 63 -149.5t145 -61.5q83 0 145 63.5t62 147.5v1050q0 16 10.5 28.5t30.5 12.5h23
q16 0 29.5 -11t13.5 -30v-1050q0 -131 -91.5 -222.5t-221.5 -91.5q-170 0 -261 123q-72 -78 -139 -100.5t-129 -22.5q-126 0 -217.5 91.5t-91.5 222.5v1050z" />
    <glyph glyph-name="X" unicode="X" horiz-adv-x="772" 
d="M106 1382h27q23 0 35 -7t22 -34l197 -532l197 532q10 27 22 34t35 7h27q29 0 34 -10t-6 -39l-254 -649l250 -645q14 -39 -22 -39h-39q-33 0 -45 29l-199 530l-199 -530q-12 -29 -45 -29h-39q-37 0 -22 39l248 645l-252 649q-10 29 -5 39t33 10z" />
    <glyph glyph-name="Y" unicode="Y" horiz-adv-x="737" 
d="M92 1382q23 0 36 -4t19 -22l224 -568l217 568q9 26 55 26h21q47 0 37.5 -26t-52.5 -134t-89 -228t-85 -220t-47 -129v-602q0 -43 -43 -43h-23q-41 0 -40 43v600l-273 674q-25 66 23 65h20z" />
    <glyph glyph-name="Z" unicode="Z" horiz-adv-x="702" 
d="M625 106q41 0 41 -40v-23q0 -16 -11.5 -29.5t-29.5 -13.5h-545q-18 0 -30.5 12.5t-12.5 30.5v49q0 12 6 25l512 1159h-475q-43 0 -43 43v22q0 41 43 41h543q18 0 30.5 -12t12.5 -31v-49q0 -17 -9 -28l-503 -1156h471z" />
    <glyph glyph-name="bracketleft" unicode="[" horiz-adv-x="380" 
d="M82 1409q0 41 41 41h205q16 0 29.5 -11.5t13.5 -29.5v-23q0 -43 -43 -43h-140v-1660h140q16 0 29.5 -11.5t13.5 -29.5v-23q-2 -43 -43 -43h-205q-41 0 -41 43v1790z" />
    <glyph glyph-name="backslash" unicode="\" horiz-adv-x="651" 
d="M608 0h-39q-33 0 -45 29l-508 1304q-10 29 -5 39t34 10h27q23 0 35 -7t22 -34l502 -1302q14 -39 -23 -39z" />
    <glyph glyph-name="bracketright" unicode="]" horiz-adv-x="382" 
d="M297 -381q0 -43 -41 -43h-205q-41 0 -43 43v23q0 18 13.5 29.5t29.5 11.5h139v1660h-139q-43 0 -43 43v23q0 18 13.5 29.5t29.5 11.5h205q20 0 30.5 -12.5t10.5 -28.5v-1790z" />
    <glyph glyph-name="asciicircum" unicode="^" horiz-adv-x="677" 
d="M313 1782q25 25 54 -4l264 -265q14 -12 11 -29t-15 -28l-15 -18q-28 -28 -57 0l-215 217l-217 -217q-11 -12 -29 -12t-31 16l-16 14q-23 26 0 60z" />
    <glyph glyph-name="underscore" unicode="_" horiz-adv-x="1083" 
d="M963 106q41 0 41 -40v-23q0 -16 -11.5 -29.5t-29.5 -13.5h-840q-43 0 -43 43v23q0 41 43 40h840z" />
    <glyph glyph-name="grave" unicode="`" horiz-adv-x="335" 
d="M63 1526h37q10 0 24.5 -2t35.5 -37l112 -201q45 -76 -6 -76h-43q-31 0 -51 35l-115 209q-39 72 6 72z" />
    <glyph glyph-name="a" unicode="a" horiz-adv-x="784" 
d="M380 1049q154 0 241.5 -98.5t87.5 -327.5v-580q0 -43 -43 -43h-23q-41 0 -41 43v23q-28 -45 -99 -67t-130 -22q-60 0 -120 26t-105.5 70t-71 104.5t-25.5 162.5t98 192.5t232 90.5h221q0 265 -84 292t-154 28t-149 -66q-33 -28 -59 0l-15 16q-10 12 -12 29.5t10 29.5
q41 47 106.5 72t134.5 25zM381 514q-92 0 -156.5 -60.5t-64.5 -149.5q0 -90 64 -156t156 -66q93 0 157.5 56.5t64.5 166.5v209h-221z" />
    <glyph glyph-name="b" unicode="b" horiz-adv-x="770" 
d="M188 965q96 84 237 84q53 0 113 -26t130.5 -96.5t70.5 -207.5v-414q0 -138 -97 -233t-228 -95t-226 82v-18q0 -18 -13 -29.5t-30 -11.5h-22q-20 0 -30.5 12.5t-10.5 28.5v1300q0 18 12 29.5t31 11.5h22q41 0 41 -41v-376zM631 719q0 91 -64 157t-155 66t-157.5 -65
t-66.5 -158v-414q0 -94 67 -157.5t157 -63.5t154.5 64.5t64.5 156.5v414z" />
    <glyph glyph-name="c" unicode="c" horiz-adv-x="770" 
d="M680 758h-29q-27 0 -46 51t-55 78.5t-71 41t-104.5 13.5t-135 -65.5t-65.5 -157.5v-414q0 -92 65.5 -157.5t157.5 -65.5t141.5 41t64.5 84t23.5 54t24.5 11h29q18 0 29.5 -10t9.5 -31q-20 -107 -109.5 -181.5t-220.5 -74.5t-226 97t-95 233v414q0 136 95 233t223 97
t219 -76t112 -174q4 -18 -8.5 -29.5t-28.5 -11.5z" />
    <glyph glyph-name="d" unicode="d" horiz-adv-x="772" 
d="M582 1341q0 41 41 41h22q18 0 30.5 -11t12.5 -30v-1300q0 -41 -41 -41h-22q-16 0 -29.5 11.5t-13.5 29.5v18q-93 -82 -225 -82t-229 95t-97 233v414q0 137 96.5 233.5t225.5 96.5t229 -84v376zM139 305q0 -92 64.5 -156.5t154.5 -64.5t157 63.5t67 157.5v414
q0 93 -66.5 158t-157.5 65t-155 -66t-64 -157v-414z" />
    <glyph glyph-name="e" unicode="e" 
d="M684 532h-508v-227q0 -92 65.5 -157.5t155.5 -65.5q176 0 215 143q6 22 14.5 34.5t35.5 12.5h22q16 0 26.5 -11t10.5 -30q-21 -105 -111 -180.5t-219 -75.5q-130 0 -226.5 96.5t-96.5 233.5v365q0 173 94.5 276t235.5 103t235 -100t94 -279v-95q0 -18 -12.5 -30.5
t-30.5 -12.5zM623 637q0 234 -90.5 272.5t-132.5 38.5q-90 0 -156 -75t-66 -236h445z" />
    <glyph glyph-name="f" unicode="f" horiz-adv-x="563" 
d="M10 918q0 40 41 40h150v123q0 129 86.5 221.5t214.5 104.5q16 0 28.5 -10.5t12.5 -30.5v-23q0 -16 -11.5 -29.5t-29.5 -13.5q-84 -10 -139.5 -72.5t-55.5 -146.5v-123h195q41 0 41 -40v-23q0 -16 -11.5 -29.5t-29.5 -13.5h-195v-811q0 -18 -13 -29.5t-30 -11.5h-22
q-20 0 -30.5 12.5t-10.5 28.5v811h-150q-18 0 -29.5 13.5t-11.5 29.5v23z" />
    <glyph glyph-name="g" unicode="g" horiz-adv-x="792" 
d="M606 63q-79 -86 -218 -86t-236 96t-97 234v412q0 138 97.5 234t232.5 96q72 0 139 -29.5t82 -61.5v25q0 41 41 41h25q43 0 43 -41v-1032q0 -140 -97.5 -234t-240 -94t-232.5 94q-25 30 0 60l17 14q30 31 66 -3q64 -58 158 -58t157 66.5t63 154.5v112zM606 719
q0 91 -64 157t-155.5 66t-157 -65.5t-65.5 -157.5v-412q0 -92 65.5 -157.5t157 -65.5t155.5 66t64 157v412z" />
    <glyph glyph-name="h" unicode="h" horiz-adv-x="772" 
d="M188 963q76 86 217 86t237.5 -96.5t96.5 -233.5v-676q0 -43 -43 -43h-22q-41 0 -41 43v676q0 88 -67.5 155.5t-153.5 67.5t-155 -65.5t-69 -147.5v-686q0 -43 -43 -43h-22q-41 0 -41 43v1298q0 41 41 41h22q16 0 29.5 -11t13.5 -30v-378z" />
    <glyph glyph-name="i" unicode="i" horiz-adv-x="231" 
d="M57 983q0 41 41 41h23q43 0 43 -41v-942q0 -18 -13.5 -29.5t-29.5 -11.5h-23q-20 0 -30.5 12.5t-10.5 28.5v942zM98 1274q-41 0 -41 41v26q0 41 41 41h25q41 0 41 -41v-26q0 -18 -12.5 -29.5t-28.5 -11.5h-25z" />
    <glyph glyph-name="j" unicode="j" horiz-adv-x="221" 
d="M-172 -322v25q0 37 41 40q79 6 135.5 69t56.5 151v1020q0 41 41 41h23q43 0 43 -41v-1020q0 -126 -84.5 -219.5t-214.5 -105.5q-41 0 -41 40zM104 1274q-41 0 -41 41v26q0 41 41 41h25q41 0 41 -41v-26q0 -18 -12.5 -29.5t-28.5 -11.5h-25z" />
    <glyph glyph-name="k" unicode="k" horiz-adv-x="624" 
d="M188 41q0 -18 -13 -29.5t-30 -11.5h-22q-20 0 -30.5 12.5t-10.5 28.5v1302q0 41 41 41h22q43 0 43 -41v-731l273 377q20 29 35.5 32t35.5 3h33q51 0 -6 -80l-305 -422l338 -469q16 -23 11 -38t-30 -15h-43q-18 0 -28 5t-33 36l-281 389v-389z" />
    <glyph glyph-name="l" unicode="l" horiz-adv-x="417" 
d="M76 1341q0 41 41 41h24q18 0 29.5 -11t11.5 -30v-1060q0 -94 54.5 -142.5t138.5 -56.5q16 0 28.5 -10.5t12.5 -30.5v-25q0 -18 -11.5 -29.5t-29.5 -11.5q-210 13 -254.5 120.5t-44.5 185.5v1060z" />
    <glyph glyph-name="m" unicode="m" horiz-adv-x="1368" 
d="M412 1049q62 0 145.5 -37.5t130.5 -102.5q47 68 125 104t148 36q139 0 234 -97t95 -233v-678q0 -18 -13 -29.5t-30 -11.5h-22q-20 0 -30.5 12.5t-10.5 28.5v678q0 89 -68.5 156t-155.5 67t-154 -66t-67 -157v-678q0 -18 -13 -29.5t-30 -11.5h-22q-20 0 -30.5 12.5
t-10.5 28.5v678q0 89 -68.5 156t-155.5 67q-88 0 -154.5 -65t-66.5 -158v-678q0 -18 -13 -29.5t-30 -11.5h-22q-20 0 -30.5 12.5t-10.5 28.5v942q0 41 41 41h22q43 0 43 -41v-20q95 86 224 86z" />
    <glyph glyph-name="n" unicode="n" horiz-adv-x="815" 
d="M188 963q91 86 225 86q133 0 229.5 -96.5t96.5 -233.5v-678q0 -18 -13 -29.5t-30 -11.5h-22q-20 0 -30.5 12.5t-10.5 28.5v678q0 88 -67.5 155.5t-155.5 67.5t-155 -66t-67 -155v-680q0 -18 -13 -29.5t-30 -11.5h-22q-20 0 -30.5 12.5t-10.5 28.5v942q0 41 41 41h22
q43 0 43 -61z" />
    <glyph glyph-name="o" unicode="o" horiz-adv-x="792" 
d="M68 719q0 136 95 233t233 97q139 0 234 -97t95 -233v-414q0 -136 -95 -233t-234 -97t-233.5 97t-94.5 233v414zM618 719q0 94 -66 158.5t-156 64.5q-91 0 -156.5 -65.5t-65.5 -157.5v-414q0 -92 65.5 -157.5t156.5 -65.5t156.5 64.5t65.5 158.5v414z" />
    <glyph glyph-name="p" unicode="p" horiz-adv-x="768" 
d="M188 -322q0 -16 -10 -28t-31 -12h-22q-18 0 -30.5 11t-12.5 29v1301q0 41 41 41h22q16 0 29.5 -11.5t13.5 -29.5v-18q99 88 228 88q128 0 225.5 -97.5t97.5 -236.5v-414q0 -137 -96.5 -233.5t-228.5 -96.5t-226 84v-377zM631 715q0 93 -65 160t-154 67t-156.5 -66
t-67.5 -161v-414q0 -93 66.5 -158t157.5 -65t155 66t64 157v414z" />
    <glyph glyph-name="q" unicode="q" horiz-adv-x="770" 
d="M580 979q0 18 13 29.5t30 11.5h22q20 0 30.5 -12.5t10.5 -28.5v-1301q0 -18 -12 -29t-31 -11h-22q-20 0 -30.5 12t-10.5 28v377q-90 -84 -224 -84t-230.5 96.5t-96.5 233.5v414q0 139 97.5 236.5t224.5 97.5t229 -88v18zM137 301q0 -91 64 -157t155 -66t157.5 65
t66.5 158v414q0 95 -67.5 161t-156.5 66t-154 -67t-65 -160v-414z" />
    <glyph glyph-name="r" unicode="r" horiz-adv-x="471" 
d="M426 1049q16 0 28.5 -10.5t12.5 -30.5v-23q0 -16 -11.5 -29.5t-29.5 -13.5h-29q-90 0 -155.5 -65.5t-65.5 -157.5v-676q0 -43 -43 -43h-22q-41 0 -41 43v676q0 136 95 233t232 97h29z" />
    <glyph glyph-name="s" unicode="s" horiz-adv-x="774" 
d="M100 272h23q16 0 29.5 -11t13.5 -41q0 -59 62 -103.5t161 -44.5q163 0 202.5 73.5t39.5 114.5q0 94 -71.5 139t-143.5 63t-128.5 37t-129 75.5t-72.5 179.5q-2 59 22.5 116.5t91 118t190.5 60.5q123 0 215 -71t108 -179q2 -18 -9.5 -29.5t-27.5 -11.5h-23q-27 0 -37 10
t-15 34q-12 59 -66.5 103t-143.5 42q-88 -3 -142 -55t-56 -134q2 -70 48.5 -111t149.5 -69q197 -44 272.5 -126t75.5 -200q0 -117 -70.5 -176.5t-140 -81t-138.5 -21.5q-139 0 -233 69t-98 189q0 16 10.5 28.5t30.5 12.5z" />
    <glyph glyph-name="t" unicode="t" horiz-adv-x="565" 
d="M203 1341q0 41 41 41h24q18 0 29.5 -11t11.5 -30v-313h193q16 0 28.5 -10t12.5 -31v-24q0 -18 -11.5 -29.5t-29.5 -11.5h-193v-641q0 -94 54.5 -142.5t138.5 -56.5q16 0 28.5 -10.5t12.5 -30.5v-25q0 -18 -11.5 -29.5t-29.5 -11.5q-210 13 -254.5 120.5t-44.5 185.5v641
h-152q-18 0 -29.5 11t-11.5 30v24q0 20 12.5 30.5t28.5 10.5h152v313z" />
    <glyph glyph-name="u" unicode="u" horiz-adv-x="817" 
d="M76 301v682q0 18 13 29.5t30 11.5h22q20 0 30.5 -12.5t10.5 -28.5v-682q0 -87 67.5 -153t153.5 -66q87 0 155.5 63t68.5 154v684q0 18 13 29.5t30 11.5h22q20 0 30.5 -12.5t10.5 -28.5v-942q0 -41 -41 -41h-22q-51 0 -43 78q-68 -103 -214 -103t-241.5 95.5t-95.5 230.5z
" />
    <glyph glyph-name="v" unicode="v" horiz-adv-x="571" 
d="M41 1024h31q30 0 39 -37l174 -727l174 731q7 33 43 33h30q18 0 26.5 -15.5t4.5 -31.5l-223 -934q-9 -43 -45 -43q-37 0 -48 11.5t-16 31.5l-225 934q-4 18 4 32.5t31 14.5z" />
    <glyph glyph-name="w" unicode="w" horiz-adv-x="1363" 
d="M1180 979q0 41 41 41h22q16 0 29.5 -11.5t13.5 -29.5v-678q0 -136 -95 -233t-233 -97q-72 0 -149.5 36t-124.5 104q-49 -68 -128 -104t-137 -36q-122 0 -231.5 83t-109.5 245v680q0 41 41 41h22q16 0 29.5 -11.5t13.5 -29.5v-678q0 -98 66 -160.5t154 -62.5t156.5 67
t68.5 156v678q0 41 41 41h22q16 0 29.5 -11.5t13.5 -29.5v-678q0 -91 67.5 -157t153.5 -66q87 0 155.5 67t68.5 156v678z" />
    <glyph glyph-name="x" unicode="x" horiz-adv-x="598" 
d="M109 1024h26q23 0 35 -7t23 -34l108 -305l111 305q10 27 22 34t35 7h27q29 0 34 -10t-6 -39l-168 -422l199 -514q14 -39 -23 -39h-38q-33 0 -45 29l-148 399l-147 -399q-12 -29 -45 -29h-39q-37 0 -23 39l197 514l-164 422q-10 29 -5 39t34 10z" />
    <glyph glyph-name="y" unicode="y" horiz-adv-x="798" 
d="M612 57q-79 -86 -218 -86t-236 97t-97 233v682q0 41 41 41h25q41 0 43 -41v-682q0 -92 65.5 -157.5t157 -65.5t155.5 65.5t64 157.5v682q0 41 41 41h25q41 0 43 -41v-1034q0 -139 -96.5 -233.5t-239.5 -94.5t-233 94q-26 31 0 60l16 14q30 31 66 -3q64 -58 158 -58
q93 0 156.5 65.5t63.5 155.5v108z" />
    <glyph glyph-name="z" unicode="z" horiz-adv-x="833" 
d="M745 106q41 0 41 -40v-23q0 -43 -41 -43h-616q-18 0 -29.5 13.5t-11.5 29.5v49q0 14 6 25l535 801h-541q-18 0 -29.5 13t-11.5 30v22q0 20 12.5 30.5t28.5 10.5h617q41 0 40 -41v-49q-2 -23 -10 -33l-518 -795h528z" />
    <glyph glyph-name="braceleft" unicode="{" horiz-adv-x="569" 
d="M537 1407v-25q-1 -39 -53 -44q-67 -7 -124 -68.5t-57 -147.5v-465q0 -31 -20.5 -71.5t-61.5 -69.5q39 -25 60.5 -63.5t21.5 -73.5v-473q0 -86 55.5 -147.5t137.5 -73.5q16 0 28.5 -10.5t12.5 -30.5v-25q0 -18 -11.5 -29.5t-29.5 -11.5q-129 12 -214 106t-85 222v432
q0 42 -41.5 83.5t-83.5 41.5h-21q-18 0 -29.5 11t-11.5 30v24q0 20 12.5 30.5t28.5 10.5h17q53 0 91 39t38 92v422q0 126 84.5 220t214.5 106q16 0 28.5 -10.5t12.5 -30.5z" />
    <glyph glyph-name="bar" unicode="|" horiz-adv-x="282" 
d="M82 1409q0 41 41 41h22q16 0 29.5 -11.5t13.5 -29.5v-1790q0 -43 -43 -43h-22q-41 0 -41 43v1790z" />
    <glyph glyph-name="braceright" unicode="}" horiz-adv-x="569" 
d="M373 1122v-422q0 -53 38 -92t91 -39h16q16 0 28.5 -10t12.5 -31v-24q0 -18 -11 -29.5t-30 -11.5h-20q-43 0 -84 -41t-41 -84v-432q0 -128 -85 -222t-214 -106q-18 0 -29.5 11.5t-11.5 29.5v25q0 20 12 30.5t29 10.5q82 12 137 73.5t55 147.5v473q0 35 21.5 74t60.5 63
q-41 29 -61.5 70t-20.5 71v465q0 128 -75 170.5t-105 45.5q-52 5 -53 44v25q0 20 12.5 30.5t28.5 10.5q130 -12 214.5 -106t84.5 -220z" />
    <glyph glyph-name="asciitilde" unicode="~" horiz-adv-x="1101" 
d="M350 543q-117 0 -196 -113q-24 -34 -58 -12l-18 12q-14 8 -19.5 24.5t4.5 32.5q53 72 120 119t139 47q128 0 229.5 -68.5t137.5 -78.5t77 -10q102 0 178 110q25 35 57 12l19 -12q14 -8 19 -24.5t-5 -32.5q-113 -164 -282 -164q-82 -3 -191 64q-55 31 -104 62.5t-107 31.5
z" />
    <glyph glyph-name="exclamdown" unicode="&#xa1;" horiz-adv-x="413" 
d="M264 -385q0 -41 -41 -41h-22q-16 0 -30 11q-13 11 -13 30v1010q0 41 43 41h22q41 0 41 -41v-1010zM264 956q0 -39 -41 -41h-24q-17 -1 -29 11t-12 30v27q0 41 41 41h24q41 0 41 -41v-27z" />
    <glyph glyph-name="cent" unicode="&#xa2;" horiz-adv-x="708" 
d="M303 1245q0 16 10.5 28.5t30.5 12.5h23q16 0 29.5 -11t13.5 -30v-198q98 -11 177 -83t101 -165q4 -18 -8 -29.5t-29 -11.5h-28q-27 0 -43 43t-56.5 85t-113.5 52v-854q125 17 168 131q12 35 20 46t25 11h28q18 0 29.5 -10t9.5 -31q-16 -98 -93 -168.5t-187 -85.5v-215
q0 -43 -43 -43h-23q-41 0 -41 43v220q-112 20 -188 111t-76 212v414q0 121 74 210t190 113v203zM145 719v-414q0 -76 44 -133t114 -80v840q-70 -23 -114 -80t-44 -133z" />
    <glyph glyph-name="sterling" unicode="&#xa3;" horiz-adv-x="882" 
d="M803 106q41 0 41 -40v-23q0 -16 -11.5 -29.5t-29.5 -13.5h-543q-41 0 -41 41v567h-147q-43 0 -43 43v23q0 41 43 41h147v377q0 131 91 222t222.5 91t222.5 -91t91 -222q0 -18 -13.5 -29.5t-29.5 -11.5h-23q-41 0 -41 41v20q0 88 -59 139.5t-147.5 51.5t-147.5 -61.5
t-59 -149.5v-377h155q16 0 28.5 -10.5t12.5 -30.5v-23q0 -16 -11 -29.5t-30 -13.5h-155v-502h477z" />
    <glyph glyph-name="yen" unicode="&#xa5;" horiz-adv-x="751" 
d="M676 743q16 0 28.5 -10t12.5 -31v-22q0 -16 -11.5 -29.5t-29.5 -13.5h-242v-107h242q16 0 28.5 -10t12.5 -31v-22q0 -16 -11.5 -29.5t-29.5 -13.5h-242v-381q0 -43 -43 -43h-22q-41 0 -41 43v381h-226q-43 0 -43 43v22q0 41 43 41h226v107h-226q-43 0 -43 43v22
q0 41 43 41h185l-232 574q-25 66 23 65h20q23 0 36 -4t20 -22l223 -568l217 568q9 26 55 26h21q47 0 37.5 -25t-37.5 -97t-65.5 -166.5t-63 -162t-43 -112.5t-29.5 -76h207z" />
    <glyph glyph-name="brokenbar" unicode="&#xa6;" horiz-adv-x="278" 
d="M82 313q0 41 41 41h22q16 0 29.5 -11t13.5 -30v-694q0 -43 -43 -43h-22q-41 0 -41 43v694zM82 1409q0 41 41 41h22q16 0 29.5 -11.5t13.5 -29.5v-694q0 -43 -43 -43h-22q-41 0 -41 43v694z" />
    <glyph glyph-name="dieresis" unicode="&#xa8;" horiz-adv-x="552" 
d="M80 1542q0 41 41 41h22q16 0 29.5 -11t13.5 -30v-22q0 -43 -43 -43h-22q-41 0 -41 43v22zM367 1542q0 41 41 41h22q16 0 29.5 -11t13.5 -30v-22q0 -43 -43 -43h-22q-41 0 -41 43v22z" />
    <glyph glyph-name="copyright" unicode="&#xa9;" horiz-adv-x="774" 
d="M74 1092q0 131 91 222t222 91t222 -91t91 -222v-801q0 -131 -91.5 -222.5t-221.5 -91.5t-221.5 91.5t-91.5 222.5v801zM598 1092q0 86 -61 148.5t-150 62.5t-150 -62.5t-61 -148.5v-801q0 -88 61.5 -149.5t149.5 -61.5t149.5 61.5t61.5 149.5v801zM543 801h-17
q-14 1 -26 29t-29.5 58t-77 30t-86 -41t-26.5 -101v-217q0 -59 26.5 -100t84.5 -41t75 27t27 53t16 33.5t16 7.5h17q26 0 26 -27q-12 -66 -54 -114t-126 -48t-130 61.5t-46 147.5v217q0 86 46 147.5t129 61.5t125 -49.5t54 -110.5q2 -10 -5 -17t-19 -7z" />
    <glyph glyph-name="guillemotleft" unicode="&#xab;" horiz-adv-x="954" 
d="M309 498q-25 25 4 53l482 479q25 29 56 0q31 -30 31 -46t-12 -30l-432 -434l432 -432q12 -12 10 -30t-12 -27l-16 -17q-14 -14 -30 -13t-27 11zM43 498q-25 25 4 53l481 479q27 31 64 -6t12 -70l-432 -434l432 -432q12 -12 10 -30t-12 -27l-16 -17q-29 -29 -58 -2z" />
    <glyph glyph-name="logicalnot" unicode="&#xac;" horiz-adv-x="673" 
d="M664 582q0 -16 -10.5 -28.5t-30.5 -12.5h-23q-16 0 -29.5 11t-13.5 30v254h-508q-43 0 -43 43v22q0 41 43 41h574q16 0 28.5 -10t12.5 -31v-319z" />
    <glyph glyph-name="uni00AD" unicode="&#xad;" horiz-adv-x="817" 
d="M696 553q16 0 28.5 -10.5t12.5 -30.5v-23q0 -16 -11 -29.5t-30 -13.5h-573q-43 0 -43 43v23q0 41 43 41h573z" />
    <glyph glyph-name="registered" unicode="&#xae;" horiz-adv-x="774" 
d="M74 1092q0 131 91 222t222 91t222 -91t91 -222v-801q0 -131 -91.5 -222.5t-221.5 -91.5t-221.5 91.5t-91.5 222.5v801zM598 1092q0 86 -61 148.5t-150 62.5t-150 -62.5t-61 -148.5v-801q0 -88 61.5 -149.5t149.5 -61.5t149.5 61.5t61.5 149.5v801zM526 1071q35 0 35 -35
v-18q0 -14 -9 -25.5t-26 -11.5h-22q-78 0 -132.5 -54.5t-54.5 -133.5v-445q0 -37 -36 -37h-19q-35 0 -35 37v445q0 116 81 197t196 81h22z" />
    <glyph glyph-name="degree" unicode="&#xb0;" horiz-adv-x="540" 
d="M270.5 770q-57.5 0 -96.5 -40t-39 -96t39 -95t96.5 -39t96.5 39t39 95t-39 96t-96.5 40zM420 786.5q63 -61.5 63 -153.5q0 -91 -63.5 -151t-149 -60t-149.5 60.5t-64 150.5t63.5 152.5t150 62.5t149.5 -61.5z" />
    <glyph glyph-name="plusminus" unicode="&#xb1;" horiz-adv-x="690" 
d="M633 106q41 0 41 -40v-23q0 -16 -11.5 -29.5t-29.5 -13.5h-574q-43 0 -43 43v23q0 41 43 40h574zM397 408q0 -41 -41 -41h-22q-16 0 -29.5 11t-13.5 30v233h-232q-43 0 -43 43v23q0 41 43 41h232v233q0 43 43 43h22q41 0 41 -43v-233h236q16 0 28.5 -10.5t12.5 -30.5v-23
q0 -16 -11.5 -29.5t-29.5 -13.5h-236v-233z" />
    <glyph glyph-name="acute" unicode="&#xb4;" horiz-adv-x="335" 
d="M115 1210h-43q-51 0 -6 76l112 201q20 35 34.5 37t25.5 2h36q45 0 7 -72l-115 -209q-20 -35 -51 -35z" />
    <glyph glyph-name="mu" unicode="&#xb5;" horiz-adv-x="778" 
d="M698 0h-22q-16 0 -29.5 11.5t-13.5 29.5v14q-88 -84 -228 -84t-215 86v-379q-5 -40 -43 -40h-22q-16 0 -29.5 11t-13.5 29v1305q2 41 43 41h25q41 0 40 -41v-682q0 -91 64.5 -157t156.5 -66q91 0 156.5 65.5t65.5 157.5v682q2 41 43 41h24q41 0 41 -41v-942
q-5 -41 -43 -41z" />
    <glyph glyph-name="mu" unicode="&#x3bc;" horiz-adv-x="778" 
d="M698 0h-22q-16 0 -29.5 11.5t-13.5 29.5v14q-88 -84 -228 -84t-215 86v-379q-5 -40 -43 -40h-22q-16 0 -29.5 11t-13.5 29v1305q2 41 43 41h25q41 0 40 -41v-682q0 -91 64.5 -157t156.5 -66q91 0 156.5 65.5t65.5 157.5v682q2 41 43 41h24q41 0 41 -41v-942
q-5 -41 -43 -41z" />
    <glyph glyph-name="paragraph" unicode="&#xb6;" horiz-adv-x="819" 
d="M178 4h467v1020h-467v-1020zM735 1112v-1188h-653v1188h653z" />
    <glyph glyph-name="periodcentered" unicode="&#xb7;" horiz-adv-x="387" 
d="M139 666q0 39 41 41h25q16 1 28 -11t13 -30v-25q0 -41 -41 -41h-25q-41 0 -41 41v25z" />
    <glyph glyph-name="cedilla" unicode="&#xb8;" horiz-adv-x="329" 
d="M123 -147q-41 0 -41 41v159q0 41 41 41h22q43 0 43 -41v-106q51 -20 83 -65.5t32 -111.5t-52 -117.5t-128 -51.5q-16 0 -28.5 10t-12.5 31v22q0 16 12 29.5t36 13.5t45.5 20.5t21.5 50.5t-19.5 50t-48.5 25h-6z" />
    <glyph glyph-name="guillemotright" unicode="&#xbb;" horiz-adv-x="954" 
d="M162 12q-10 -10 -26 -11t-32 13l-16 17q-10 10 -12 27t10 30l432 432l-432 434q-25 31 2 60q46 46 74 16l481 -479q29 -29 4 -53zM428 12q-10 -10 -26 -11t-31 13l-17 17q-10 10 -12 27t10 30l432 432l-432 434q-25 31 2 60l15 14q12 12 29 14t30 -12l481 -479
q29 -29 4 -53z" />
    <glyph glyph-name="questiondown" unicode="&#xbf;" horiz-adv-x="780" 
d="M475 961q0 -41 -41 -41h-22q-16 0 -30 11q-13 11 -13 30v22q0 43 43 43h22q41 0 41 -43v-22zM682 -51q41 0 41 -41v-29q0 -135 -95 -232q-97 -97 -233 -96t-233 96q-98 95 -96 232v170q0 89 62 155q62 67 124 120q61 53 89 99t28 101v144q0 18 13 29t30 12h22
q20 -1 30 -13t11 -28v-144q0 -104 -57 -176t-141 -139q-67 -67 -87 -95t-18 -75v-160q0 -93 66 -155q66 -66 158 -66t156 66t64 155v29q0 18 14 30t29 11h23z" />
    <glyph glyph-name="Agrave" unicode="&#xc0;" horiz-adv-x="780" 
d="M690 0h-26q-39 0 -48 39l-32 151h-391l-27 -151q-6 -39 -47 -39h-25q-45 0 -39 39l260 1300q10 43 43 43h62q34 0 43 -43l260 -1300q6 -39 -33 -39zM391 1155l-176 -866h350zM203 1790h37q10 0 24 -2t35 -37l113 -201q45 -76 -6 -75h-44q-31 0 -51 34l-114 209
q-39 72 6 72z" />
    <glyph glyph-name="Aacute" unicode="&#xc1;" horiz-adv-x="786" 
d="M700 0h-26q-39 0 -47 39l-33 151h-391l-27 -151q-6 -39 -47 -39h-25q-45 0 -38 39l260 1300q10 43 43 43h61q34 0 43 -43l260 -1300q6 -39 -33 -39zM401 1155l-176 -866h350zM379 1477q-51 0 -6 75l112 201q21 35 35 37t25 2h37q45 0 6 -72l-115 -209q-20 -35 -51 -34
h-43z" />
    <glyph glyph-name="Acircumflex" unicode="&#xc2;" horiz-adv-x="763" 
d="M682 0h-27q-39 0 -47 39l-33 151h-391l-26 -151q-6 -39 -47 -39h-25q-45 0 -39 39l260 1300q10 43 43 43h62q32 0 43 -43l260 -1300q6 -39 -33 -39zM383 1155l-176 -866h350zM170 1477q-18 0 -31 12l-18 18q-25 25 0 58l237 237q25 25 54 -4l233 -233q32 -28 -4 -64
q-37 -37 -70 -12l-188 186l-186 -186q-9 -12 -27 -12z" />
    <glyph glyph-name="Atilde" unicode="&#xc3;" horiz-adv-x="753" 
d="M686 0h-27q-39 0 -47 39l-32 151h-392l-26 -151q-6 -39 -47 -39h-25q-45 0 -39 39l260 1300q10 43 43 43h62q32 0 43 -43l260 -1300q6 -39 -33 -39zM387 1155l-176 -866h350zM282 1597q-28 -1 -45 -25t-32 -54q-12 -37 -27 -39t-37 10q-23 17 -21 35t11 37q29 73 73 99
t89 26t101 -59l40 -40q18 -18 45 -18q27 1 45 25t32 54t26 34q13 4 47 -9q25 -12 19 -36q-6 -25 -30 -61q-66 -99 -139 -97q-54 0 -110 59l-41 41q-18 18 -46 18z" />
    <glyph glyph-name="Adieresis" unicode="&#xc4;" horiz-adv-x="737" 
d="M670 0h-27q-39 0 -47 39l-33 151h-391l-27 -151q-6 -39 -47 -39h-24q-45 0 -39 39l260 1300q10 43 43 43h61q34 0 43 -43l260 -1300q6 -39 -32 -39zM371 1155l-176 -866h350zM172 1587q0 41 41 41h23q16 0 29 -11t14 -30v-22q0 -43 -43 -43h-23q-41 0 -41 43v22z
M459 1587q0 41 41 41h22q16 0 30 -11t13 -30v-22q0 -43 -43 -43h-22q-41 0 -41 43v22z" />
    <glyph glyph-name="Aring" unicode="&#xc5;" horiz-adv-x="733" 
d="M666 0h-27q-39 0 -47 39l-33 151h-391l-27 -151q-6 -39 -47 -39h-24q-45 0 -39 39l260 1300q10 43 43 43h61q34 0 43 -43l260 -1300q6 -39 -32 -39zM367 1155l-177 -866h351zM315 1681q1 -20 15 -34q14 -15 34 -15t35 14q14 14 15 35q0 21 -14 35t-35 14q-20 0 -35 -14
q-15 -15 -15 -35zM365 1837q67 0 111 -46t44 -111q0 -66 -45 -110t-111 -44t-110 45q-45 45 -45 109t45 110t111 47z" />
    <glyph glyph-name="AE" unicode="&#xc6;" horiz-adv-x="985" 
d="M377 289v866l-176 -866h176zM905 106q41 0 41 -40v-23q0 -16 -11 -29.5t-30 -13.5h-487q-41 0 -41 41v149h-199l-26 -151q-6 -39 -48 -39h-24q-45 0 -39 39l260 1300q10 43 43 43h561q16 0 28.5 -10t12.5 -31v-22q0 -16 -11 -29.5t-30 -13.5h-422v-533h340q16 0 28.5 -10
t12.5 -31v-22q0 -16 -11 -29.5t-30 -13.5h-340v-531h422z" />
    <glyph glyph-name="Ccedilla" unicode="&#xc7;" horiz-adv-x="735" 
d="M369 -166q-41 0 -41 41v107q-102 16 -180 95q-78 80 -76 214v801q0 129 91 221t221 92t222 -91t92 -222q0 -16 -10 -28t-33 -13h-16q-14 0 -28 11q-13 11 -13 42t-16 70q-16 40 -46 68q-63 59 -150 60q-88 1 -150 -60t-62 -150v-801q0 -91 63 -151t149 -60t149 60t63 151
q0 39 43 41h16q17 0 29 -11t12 -53t-24 -100q-49 -115 -166 -166q-35 -15 -74 -21v-53q51 -20 83 -65t32 -112t-52 -118t-128 -51q-16 0 -29 10q-12 10 -12 31v23q0 16 11 29t36 13t47 21q22 20 20 50q0 31 -19 51t-48 24h-6z" />
    <glyph glyph-name="Egrave" unicode="&#xc8;" horiz-adv-x="696" 
d="M68 1341q0 41 41 41h487q16 0 28 -10t13 -31v-22q0 -15 -11 -29t-30 -14h-422v-533h340q16 0 28 -10t13 -31v-22q0 -16 -11 -30t-30 -13h-340v-531h422q41 0 41 -40v-23q0 -15 -11 -29t-30 -14h-487q-41 0 -41 41v1300zM190 1792h37q11 0 25 -2t35 -37l112 -201
q45 -76 -6 -75h-43q-31 0 -51 34l-115 209q-39 72 6 72z" />
    <glyph glyph-name="Eacute" unicode="&#xc9;" horiz-adv-x="684" 
d="M68 1341q0 41 41 41h487q16 0 28 -10t13 -31v-22q0 -15 -11 -29t-30 -14h-422v-533h340q16 0 28 -10t13 -31v-22q0 -16 -11 -30t-30 -13h-340v-531h422q41 0 41 -40v-23q0 -15 -11 -29t-30 -14h-487q-41 0 -41 41v1300zM336 1477q-51 0 -6 75l112 201q20 35 34 37t26 2
h37q45 0 6 -72l-115 -209q-20 -35 -51 -34h-43z" />
    <glyph glyph-name="Ecircumflex" unicode="&#xca;" horiz-adv-x="704" 
d="M76 1341q0 41 41 41h487q16 0 28 -10t13 -31v-22q0 -15 -11 -29t-30 -14h-422v-533h340q16 0 28 -10t13 -31v-22q0 -16 -11 -30t-30 -13h-340v-531h422q41 0 41 -40v-23q0 -15 -11 -29t-30 -14h-487q-41 0 -41 41v1300zM144 1479q-18 0 -29 12l-19 18q-25 25 0 58
l238 237q25 25 53 -4l234 -233q14 -11 13 -29t-13 -31l-15 -14q-28 -28 -59 -2l-189 186l-186 -186q-10 -12 -28 -12z" />
    <glyph glyph-name="Edieresis" unicode="&#xcb;" horiz-adv-x="675" 
d="M66 1341q0 41 40 41h488q16 0 28 -10t13 -31v-22q0 -15 -11 -29t-30 -14h-422v-533h340q16 0 28 -10t13 -31v-22q0 -16 -11 -30t-30 -13h-340v-531h422q41 0 41 -40v-23q0 -15 -11 -29t-30 -14h-488q-41 0 -40 41v1300zM145 1589q1 17 11 29t30 12h23q15 0 29 -11t14 -30
v-22q0 -43 -43 -43h-23q-41 0 -41 43v22zM432 1589q0 41 41 41h23q16 0 29 -11t14 -30v-22q0 -43 -43 -43h-23q-41 0 -41 43v22z" />
    <glyph glyph-name="Igrave" unicode="&#xcc;" horiz-adv-x="229" 
d="M61 1341q1 17 11 29t30 12h23q15 0 29 -11t14 -30v-1298q0 -43 -43 -43h-23q-41 0 -41 43v1298zM-72 1792h37q11 0 25 -2t35 -37l112 -201q45 -76 -6 -75h-43q-31 0 -51 34l-115 209q-39 72 6 72z" />
    <glyph glyph-name="Iacute" unicode="&#xcd;" horiz-adv-x="206" 
d="M43 1341q0 41 41 41h22q16 0 30 -11t14 -30v-1298q0 -43 -44 -43h-22q-41 0 -41 43v1298zM72 1477q-51 0 -6 75l112 201q20 35 34 37t26 2h36q45 0 7 -72l-115 -209q-20 -35 -51 -34h-43z" />
    <glyph glyph-name="Icircumflex" unicode="&#xce;" horiz-adv-x="239" 
d="M66 1341q0 41 40 41h23q15 0 29 -11t14 -30v-1298q0 -43 -43 -43h-23q-41 0 -40 43v1298zM-93 1479q-17 0 -30 12l-18 18q-27 27 0 58l237 237q25 25 54 -4l233 -233q32 -28 -4 -64q-37 -37 -70 -12l-188 186l-187 -186q-10 -12 -27 -12z" />
    <glyph glyph-name="Idieresis" unicode="&#xcf;" horiz-adv-x="270" 
d="M82 1341q0 41 41 41h22q15 0 29 -11t14 -30v-1298q0 -43 -43 -43h-22q-41 0 -41 43v1298zM-61 1589q0 41 41 41h22q16 0 30 -11t13 -30v-22q0 -43 -43 -43h-22q-41 0 -41 43v22zM225 1589q1 17 11 29t30 12h23q16 0 29 -11t14 -30v-22q0 -43 -43 -43h-23q-41 0 -41 43v22
z" />
    <glyph glyph-name="Eth" unicode="&#xd0;" horiz-adv-x="925" 
d="M485 764q16 0 28.5 -10.5t12.5 -30.5v-23q0 -16 -11 -29.5t-30 -13.5h-157v-555h211q84 0 147.5 61.5t63.5 149.5v756q0 87 -63.5 149t-147.5 62h-211v-516h157zM225 1339q0 18 12.5 30.5t30.5 12.5h271q136 0 224.5 -86.5t88.5 -226.5v-756q0 -131 -91 -222t-222 -91
h-271q-18 0 -30.5 12.5t-12.5 30.5v614h-149q-43 0 -43 43v23q0 41 43 41h149v575z" />
    <glyph glyph-name="Ntilde" unicode="&#xd1;" horiz-adv-x="753" 
d="M584 1341q0 41 41 41h22q15 0 29 -11t14 -30v-1298q0 -19 -12 -31t-31 -12h-37q-18 0 -27 13t-16 30l-407 1036v-1036q0 -43 -43 -43h-23q-41 0 -41 43v1296q-1 19 13 31t30 12h37q19 0 27 -12t16 -31l408 -1040v1042zM270 1597q-28 0 -46 -24q-17 -25 -31 -55
q-12 -37 -28 -39t-37 12q-22 15 -20 33t11 37q29 73 73 99t88 26q45 0 102 -59l40 -40q18 -18 45 -18q27 1 45 25t32 54t26 34q13 5 42 -8t24 -37q-6 -25 -30 -61q-66 -99 -139 -97q-52 0 -111 59l-41 41q-17 18 -45 18z" />
    <glyph glyph-name="Ograve" unicode="&#xd2;" horiz-adv-x="735" 
d="M57 1092q0 127 91 222q91 91 221 91t223 -91q92 -91 92 -222v-801q0 -129 -91 -222q-92 -92 -221 -92q-129 -1 -222 91t-93 223v801zM582 1092q0 89 -61 149t-149 61q-88 2 -150 -60t-62 -150v-801q0 -89 61 -150t151 -61t149 60t61 151v801zM193 1794h36q11 0 25 -2
t35 -37l112 -201q45 -76 -6 -75h-43q-31 0 -51 34l-115 209q-39 72 7 72z" />
    <glyph glyph-name="Oacute" unicode="&#xd3;" horiz-adv-x="739" 
d="M59 1092q-1 128 91 220q92 93 222 93t223 -91q93 -93 91 -222v-801q0 -131 -92 -223t-221 -91q-130 0 -222 92t-92 222v801zM584 1092q0 89 -61 149t-149 61q-88 2 -150 -60t-62 -150v-801q0 -89 61 -150t151 -61t149 60t61 151v801zM344 1477q-51 0 -6 75l113 201
q20 35 34 37t25 2h37q45 0 6 -72l-115 -209q-20 -35 -51 -34h-43z" />
    <glyph glyph-name="Ocircumflex" unicode="&#xd4;" horiz-adv-x="770" 
d="M63 1092q-1 128 91 220q92 93 222 93t223 -91q93 -93 91 -222v-801q0 -131 -92 -223t-221 -91q-130 0 -222 92t-92 222v801zM588 1092q0 89 -61 149t-149 61q-88 2 -150 -60t-62 -150v-801q0 -89 61 -150t151 -61t149 60t61 151v801zM168 1479q-18 0 -31 12l-18 18
q-27 27 0 58l237 237q25 25 54 -4l233 -233q32 -28 -4 -64q-37 -37 -70 -12l-188 186l-186 -186q-9 -12 -27 -12z" />
    <glyph glyph-name="Otilde" unicode="&#xd5;" horiz-adv-x="751" 
d="M57 1092q0 127 91 222q91 91 221 91t223 -91q92 -91 92 -222v-801q0 -129 -91 -222q-92 -92 -221 -92q-129 -1 -222 91t-93 223v801zM582 1092q0 89 -61 149t-149 61q-88 2 -150 -60t-62 -150v-801q0 -89 61 -150t151 -61t149 60t61 151v801zM268 1597q-28 0 -46 -24
q-17 -25 -32 -55q-12 -37 -27 -39t-42 15q-27 18 -1 78q26 62 70 88t88 26q45 0 102 -59l40 -40q18 -18 45 -18q27 1 45 25t32 54t26 34q13 5 42 -8q30 -13 24 -37q-13 -58 -88 -128q-34 -31 -85 -30t-107 59l-41 41q-17 18 -45 18z" />
    <glyph glyph-name="Odieresis" unicode="&#xd6;" horiz-adv-x="722" 
d="M51 1092q0 127 91 222q91 91 220 91t225 -91q91 -91 91 -222v-801q0 -129 -91 -222q-92 -92 -221 -92q-129 -1 -222 91t-93 223v801zM575 1092q0 90 -60 149t-149 61q-88 2 -150 -60t-62 -150v-801q0 -89 61 -150t149 -61t150 61q61 61 61 150v801zM172 1587q0 41 41 41
h23q16 0 29 -11t14 -30v-22q0 -43 -43 -43h-23q-41 0 -41 43v22zM459 1587q0 41 41 41h22q16 0 30 -11t13 -30v-22q0 -43 -43 -43h-22q-41 0 -41 43v22z" />
    <glyph glyph-name="multiply" unicode="&#xd7;" horiz-adv-x="727" 
d="M188 432q-28 -28 -57 0l-16 17q-31 26 -2 59l166 164l-164 164q-31 31 0 61l16 16q29 29 59 -2l162 -163l166 165q31 29 62 0l16 -16q29 -29 -2 -59l-166 -166l168 -166q26 -31 0 -57l-16 -17q-12 -12 -30 -13t-30 11l-168 166z" />
    <glyph glyph-name="Oslash" unicode="&#xd8;" horiz-adv-x="708" 
d="M53 291v801q0 127 91 222q91 91 212 91t209 -70q11 32 24 40q13 7 36 7h26q29 0 34 -10t-5 -39l-37 -94q37 -74 37 -147v-801q0 -129 -91 -222q-92 -92 -210 -92t-202 64l-5 -12q-12 -29 -45 -29h-39q-37 0 -22 39l33 87q-46 77 -46 165zM156 1092v-818l369 958
q-27 33 -71 52q-89 37 -169 3t-113 -113q-16 -39 -16 -82zM216 142q62 -62 152 -62t149 60t61 151v779z" />
    <glyph glyph-name="Ugrave" unicode="&#xd9;" horiz-adv-x="745" 
d="M66 1341q0 41 40 41h23q15 0 29 -11t14 -30v-1050q0 -88 59 -149q59 -62 148 -62q88 0 147 61t60 150v1050q0 41 41 41h22q15 0 29 -11t14 -30v-1050q0 -131 -92 -223t-221 -91q-130 0 -222 92t-91 222v1050zM211 1792h37q10 0 24 -2t35 -37l113 -201q45 -76 -6 -75h-43
q-31 0 -52 34l-114 209q-39 72 6 72z" />
    <glyph glyph-name="Uacute" unicode="&#xda;" horiz-adv-x="753" 
d="M582 1341q0 41 41 41h22q15 0 29 -11t14 -30v-1050q0 -131 -92 -223t-221 -91q-130 0 -222 92t-92 222v1050q1 17 11 29t30 12h23q15 0 29 -11t14 -30v-1050q0 -88 59 -149q59 -62 148 -62q88 0 147 61t60 150v1050zM356 1477q-51 0 -6 75l113 201q21 35 35 37t24 2h37
q45 0 6 -72l-114 -209q-20 -35 -52 -34h-43z" />
    <glyph glyph-name="Ucircumflex" unicode="&#xdb;" horiz-adv-x="733" 
d="M575 1341q1 17 11 29t30 12h23q15 0 29 -11t14 -30v-1050q0 -129 -91 -222q-92 -92 -221 -92q-129 -1 -222 91t-93 223v1050q1 17 11 29t30 12h23q16 0 29 -11t14 -30v-1050q0 -88 59 -149q59 -62 148 -62q88 0 147 61t59 150v1050zM153 1477q-17 0 -30 12l-19 18
q-25 25 0 58l238 237q25 25 53 -4l234 -233q14 -11 13 -29t-13 -31l-15 -14q-27 -27 -59 -2l-188 186l-187 -186q-10 -12 -27 -12z" />
    <glyph glyph-name="Udieresis" unicode="&#xdc;" horiz-adv-x="712" 
d="M41 1341q0 41 41 41h22q16 0 30 -11t13 -30v-1050q0 -87 60 -149t147 -62q88 0 148 61q59 61 59 150v1050q0 41 41 41h23q16 0 29 -11t14 -30v-1050q0 -129 -91 -222q-93 -92 -223 -92q-130 -1 -222 91t-91 223v1050zM158 1589q0 41 41 41h22q15 0 29 -11t14 -30v-22
q0 -43 -43 -43h-22q-41 0 -41 43v22zM444 1589q0 17 10 29t31 12h23q16 0 30 -11t13 -30v-22q0 -43 -43 -43h-23q-41 0 -41 43v22z" />
    <glyph glyph-name="Yacute" unicode="&#xdd;" horiz-adv-x="729" 
d="M82 1382q23 0 36 -4t19 -22l223 -568l218 568q6 18 20 22t35 4h20q47 0 38 -26t-52 -134t-89 -228t-83 -213t-49 -136v-602q0 -43 -43 -43h-23q-41 0 -41 43v600l-272 674q-25 66 22 65h21zM356 1475q-51 0 -6 75l113 201q21 35 35 37t24 2h37q45 0 6 -72l-114 -209
q-20 -35 -52 -34h-43z" />
    <glyph glyph-name="germandbls" unicode="&#xdf;" horiz-adv-x="757" 
d="M330 39v22q0 41 43 41h24q85 0 148 61.5t63 149.5v191q0 89 -63 150t-148 61h-24q-43 0 -43 39v22q0 41 43 41h24q90 0 140.5 57t50.5 154v41q0 86 -46 132t-74 62.5t-71 16.5h-213v-1237q0 -43 -39 -43h-22q-41 0 -41 43v1296q0 18 12 30.5t31 12.5h272q111 0 202 -91
t91 -222v-55q0 -93 -44 -150t-81 -84q92 -35 119 -126t27 -148v-193q0 -131 -91 -222t-223 -91h-24q-43 0 -43 39z" />
    <glyph glyph-name="agrave" unicode="&#xe0;" horiz-adv-x="759" 
d="M379 -23q-134 0 -232 95t-98 231t97 228t233 92h221q0 267 -126 306q-42 13 -112 14t-149 -66q-33 -28 -59 0l-15 16q-10 11 -12 29t10 30q41 47 107 72t134 25q68 1 129 -19q124 -40 174 -201q26 -82 26 -206v-580q0 -43 -43 -43h-23q-41 0 -41 43v23q-48 -77 -221 -89z
M379 514q-93 0 -157 -60t-64 -150q0 -91 63 -156q63 -66 157 -66q93 0 158 56t64 167v209h-221zM266 1425q10 0 24 -2t36 -37l112 -200q45 -76 -6 -76h-43q-31 0 -51 35l-115 209q-39 72 6 71h37z" />
    <glyph glyph-name="aacute" unicode="&#xe1;" horiz-adv-x="745" 
d="M367 623h221q0 266 -126 306q-42 13 -112 14t-149 -66q-33 -27 -60 0l-14 16q-10 11 -12 29t10 30q41 47 107 72t134 25q69 1 129 -19q124 -40 174 -201q26 -82 25 -206v-580q0 -43 -43 -43h-22q-41 0 -41 43v23q-48 -77 -221 -89q-134 0 -233 96t-98 232t98 227
q98 91 233 91zM367 514q-93 0 -156 -59q-64 -59 -65 -150t63 -157t157 -66q94 0 158 56t64 167v209h-221zM397 1112h-43q-51 0 -6 76l113 201q21 35 35 37t24 1h37q45 0 6 -71l-114 -209q-20 -35 -52 -35z" />
    <glyph glyph-name="acircumflex" unicode="&#xe2;" horiz-adv-x="759" 
d="M365 623h221q0 266 -126 306q-42 13 -112 14t-149 -66q-33 -27 -60 0l-14 16q-10 11 -12 29t10 30q41 47 107 72t134 25q69 1 129 -19q124 -40 174 -201q26 -82 25 -206v-580q0 -43 -43 -43h-22q-41 0 -41 43v23q-48 -77 -221 -89q-134 0 -233 96t-98 232t98 227
q98 91 233 91zM365 514q-93 0 -156 -59q-64 -59 -65 -150t63 -157t157 -66q94 0 158 56t64 167v209h-221zM188 1112q-18 0 -30 12l-19 19q-25 25 0 57l238 238q25 25 53 -4l234 -234q14 -12 13 -30t-13 -29l-15 -15q-28 -28 -59 -2l-189 187l-186 -187q-9 -12 -27 -12z" />
    <glyph glyph-name="atilde" unicode="&#xe3;" horiz-adv-x="751" 
d="M365 623h221q0 266 -126 306q-42 13 -112 14t-149 -66q-33 -27 -60 0l-14 16q-10 11 -12 29t10 30q41 47 107 72t134 25q69 1 129 -19q124 -40 174 -201q26 -82 25 -206v-580q0 -43 -43 -43h-22q-41 0 -41 43v23q-48 -77 -221 -89q-134 0 -233 96t-98 232t98 227
q98 91 233 91zM365 514q-93 0 -156 -59q-64 -59 -65 -150t63 -157t157 -66q94 0 158 56t64 167v209h-221zM278 1292q-28 0 -46 -24q-17 -25 -31 -56q-12 -37 -28 -39t-37 13q-22 14 -20 32t11 37q29 72 73 99q81 50 142 8q26 -18 48 -40l40 -40t45 -18t45 24t32 55
q14 30 26 34q13 4 47 -9q25 -12 19 -36t-30 -60q-66 -99 -139 -98q-54 0 -110 59l-41 41q-18 18 -46 18z" />
    <glyph glyph-name="adieresis" unicode="&#xe4;" horiz-adv-x="718" 
d="M346 -23q-135 0 -232 95q-98 95 -98 232q0 136 98 228q98 91 232 91h221q0 267 -126 306q-42 13 -112 14t-149 -66q-32 -27 -59 0l-15 16q-10 11 -12 29t10 30q41 47 107 72q67 25 135 25q153 0 233 -88q95 -106 95 -338v-580q0 -43 -43 -43h-23q-41 0 -41 43v23
q-48 -77 -221 -89zM346 514q-93 0 -157 -60t-64 -150q0 -91 63 -156q63 -66 157 -66q93 0 158 56t64 167v209h-221zM158 1239q0 41 41 41h22q15 0 29 -11t14 -30v-22q0 -43 -43 -43h-22q-41 0 -41 43v22zM444 1239q0 17 10 29t31 12h23q16 0 30 -11t13 -30v-22
q0 -43 -43 -43h-23q-41 0 -41 43v22z" />
    <glyph glyph-name="aring" unicode="&#xe5;" horiz-adv-x="751" 
d="M377 -23q-134 0 -232 95t-98 231t97 228t233 92h221q0 267 -126 306q-42 13 -112 14t-149 -66q-33 -28 -59 0l-15 16q-10 11 -12 29t10 30q41 47 107 72t134 25q68 1 129 -19q124 -40 174 -201q26 -82 26 -206v-580q0 -43 -43 -43h-23q-41 0 -41 43v23q-48 -77 -221 -89z
M377 514q-93 0 -157 -60t-64 -150q0 -91 63 -156q63 -66 157 -66q93 0 158 56t64 167v209h-221zM352 1329q0 -21 14 -35t35 -14q20 0 35 14q14 14 14 34t-14 36q-14 14 -34 14t-36 -14q-14 -14 -14 -35zM401 1485q66 0 111 -46t45 -111q0 -66 -45 -110t-111 -44
q-67 0 -111 45t-44 109t44 110t111 47z" />
    <glyph glyph-name="ae" unicode="&#xe6;" horiz-adv-x="1277" 
d="M362 623h220v64q-11 206 -124 242q-42 13 -112 14t-149 -66q-33 -27 -60 0l-14 16q-10 11 -12 29t10 30q41 47 107 72t134 25q200 0 277 -154q52 88 144 128q60 26 128 26q140 0 235 -100t95 -279v-95q0 -18 -12 -30t-31 -13h-508v-227q0 -91 66 -157t155 -66
q176 0 215 143q6 23 14 35t36 12h22q16 0 26 -11t11 -30q-21 -105 -110 -179t-215 -76q-126 -1 -220 84v-17q0 -43 -43 -43h-22q-41 0 -41 43v23q-48 -77 -222 -89q-135 0 -233 96t-97 232t98 227q98 91 232 91zM362 514q-94 0 -156 -59q-63 -59 -64 -150t63 -157t156 -66
q93 0 153 52t69 144q-1 13 -1 27v209h-220zM1137 637q0 157 -64 234t-157 77t-158 -74q-64 -74 -66 -237h445z" />
    <glyph glyph-name="ccedilla" unicode="&#xe7;" horiz-adv-x="745" 
d="M362 -172q-40 0 -40 41v111q-102 16 -188 103q-85 87 -85 222v414q0 134 95 232t222 98t219 -76t113 -174q4 -17 -8 -29t-28 -12h-29q-27 0 -46 52q-20 52 -56 78q-37 26 -71 40t-81 14q-93 0 -158 -65t-65 -158v-414q0 -93 65 -158t157 -65t142 41q48 41 64 84t24 54
t25 11h29q42 0 38 -41q-20 -108 -99 -173q-78 -65 -173 -79v-57q51 -20 83 -65t32 -112q-1 -67 -53 -118t-128 -51q-16 0 -28 10t-12 31v23q0 16 11 29t35 13t47 21q21 20 21 50t-19 50t-48 25h-7z" />
    <glyph glyph-name="egrave" unicode="&#xe8;" horiz-adv-x="755" 
d="M668 532h-508v-227q0 -93 65 -158t156 -65q147 0 194 94q15 27 21 49q6 23 14 35t35 12h23q35 0 37 -41q-21 -105 -110 -179t-219 -76q-130 0 -227 96q-98 96 -98 233v365q0 171 94 275t236 104q141 0 236 -101q94 -101 94 -278v-95q-1 -19 -13 -31t-30 -12zM606 637
q0 236 -139 294q-41 17 -83 17q-150 0 -203 -166q-19 -59 -19 -145h444zM258 1427q10 0 24 -2t35 -36l113 -201q45 -76 -6 -76h-43q-31 0 -51 35l-115 209q-39 72 6 71h37z" />
    <glyph glyph-name="eacute" unicode="&#xe9;" horiz-adv-x="759" 
d="M676 532h-508v-227q0 -93 65 -158t156 -65q176 0 215 143q6 23 14 35t35 12h23q35 0 37 -41q-21 -105 -110 -179t-219 -76q-131 -1 -228 96t-97 233v365q0 172 95 276q95 103 235 103t235 -100t95 -279v-95q-1 -19 -13 -31t-30 -12zM614 637q0 236 -139 294
q-41 17 -83 17q-148 0 -203 -166q-19 -59 -19 -145h444zM414 1110h-43q-51 0 -6 76l112 200q21 35 35 37t25 2h36q45 0 7 -71l-115 -209q-20 -35 -51 -35z" />
    <glyph glyph-name="ecircumflex" unicode="&#xea;" horiz-adv-x="751" 
d="M672 532h-508v-227q0 -93 65 -158t156 -65q176 0 215 143q6 23 14 35t35 12h23q35 0 37 -41q-21 -105 -110 -179t-219 -76q-131 -1 -228 96t-97 233v365q0 172 95 276q95 103 235 103q141 0 236 -101q94 -101 94 -278v-95q-1 -19 -13 -31t-30 -12zM610 637
q0 236 -139 294q-41 17 -83 17q-148 0 -203 -166q-19 -59 -19 -145h444zM172 1112q-18 0 -31 12l-18 19q-25 25 0 57l237 238q25 25 54 -4l233 -234q14 -12 13 -30t-13 -29l-14 -15q-27 -27 -60 -2l-188 187l-186 -187q-9 -12 -27 -12z" />
    <glyph glyph-name="edieresis" unicode="&#xeb;" horiz-adv-x="753" 
d="M668 532h-508v-227q0 -93 65 -158t156 -65q147 0 194 94q15 27 21 49q6 23 14 35t35 12h23q35 0 37 -41q-21 -105 -110 -179t-219 -76q-130 0 -227 96q-98 96 -98 233v365q0 171 94 275t236 104q141 0 236 -101q94 -101 94 -278v-95q-1 -19 -13 -31t-30 -12zM606 637
q0 236 -139 294q-41 17 -83 17q-150 0 -203 -166q-19 -59 -19 -145h444zM195 1239q0 41 41 41h22q16 0 30 -11t13 -30v-22q0 -43 -43 -43h-22q-41 0 -41 43v22zM481 1239q1 17 11 29t30 12h23q16 0 29 -11t14 -30v-22q0 -43 -43 -43h-23q-41 0 -41 43v22z" />
    <glyph glyph-name="igrave" unicode="&#xec;" horiz-adv-x="225" 
d="M-33 1425q10 0 24.5 -2t35.5 -37l112 -200q45 -76 -6 -76h-43q-31 0 -51 35l-115 209q-39 72 6 71h37zM57 983q0 41 41 41h23q43 0 43 -41v-942q0 -18 -13.5 -29.5t-29.5 -11.5h-23q-20 0 -30.5 12.5t-10.5 28.5v942z" />
    <glyph glyph-name="iacute" unicode="&#xed;" horiz-adv-x="227" 
d="M135 1108h-43q-51 0 -6 76l113 200q20 35 34.5 37t24.5 2h37q45 0 6 -71l-115 -209q-20 -35 -51 -35zM57 983q0 41 41 41h23q43 0 43 -41v-942q0 -18 -13.5 -29.5t-29.5 -11.5h-23q-20 0 -30.5 12.5t-10.5 28.5v942z" />
    <glyph glyph-name="icircumflex" unicode="&#xee;" horiz-adv-x="227" 
d="M-103.5 1108q-17.5 0 -29.5 12l-19 19q-26 26 0 57l238 238q25 25 53 -4l234 -234q14 -12 13 -29.5t-13 -29.5l-15 -15q-28 -28 -59 -2l-188 187l-187 -187q-10 -12 -27.5 -12zM57 983q0 41 41 41h23q43 0 43 -41v-942q0 -18 -13.5 -29.5t-29.5 -11.5h-23
q-20 0 -30.5 12.5t-10.5 28.5v942z" />
    <glyph glyph-name="idieresis" unicode="&#xef;" horiz-adv-x="217" 
d="M-86 1237q0 41 41 41h22q16 0 29.5 -11.5t13.5 -29.5v-23q0 -43 -43 -43h-22q-41 0 -41 43v23zM201 1237q0 41 41 41h22q16 0 29.5 -11.5t13.5 -29.5v-23q0 -43 -43 -43h-22q-41 0 -41 43v23zM57 983q0 41 41 41h23q43 0 43 -41v-942q0 -18 -13.5 -29.5t-29.5 -11.5h-23
q-20 0 -30.5 12.5t-10.5 28.5v942z" />
    <glyph glyph-name="ntilde" unicode="&#xf1;" horiz-adv-x="804" 
d="M670 0q-41 0 -41 41v678q0 89 -68 156t-156 67q-87 0 -153 -66t-68 -155v-680q0 -17 -13 -29t-30 -12h-22q-41 0 -41 41v942q0 41 41 41h22q43 0 43 -61q91 86 225 86q133 0 230 -97t96 -233v-678q0 -17 -13 -29t-30 -12h-22zM292 1296q-28 0 -45 -24t-32 -55
q-12 -37 -27 -39t-37 12t-20 32t10 38q29 72 73 98q82 49 142 8q26 -18 48 -40l40 -40t45 -18t46 24q18 25 31 55q12 31 26 35q14 5 43 -9q29 -13 23 -37t-30 -60q-66 -99 -139 -98q-54 0 -110 59l-41 41q-18 18 -46 18z" />
    <glyph glyph-name="ograve" unicode="&#xf2;" horiz-adv-x="806" 
d="M78 719q0 136 95 233t233 97q139 0 235 -98t94 -232v-414q0 -136 -95 -233t-232 -97q-138 0 -235 97q-97 99 -95 233v414zM629 719q1 91 -65 157t-158 66t-155 -64q-64 -64 -67 -159v-414q0 -91 66 -157t158 -66q93 0 156 64t65 159v414zM244 1430h37q10 0 24 -2t35 -37
l113 -201q45 -76 -7 -76h-43q-31 0 -51 35l-114 209q-39 72 6 72z" />
    <glyph glyph-name="oacute" unicode="&#xf3;" horiz-adv-x="759" 
d="M51 719q0 134 95 232q96 98 234 98q139 0 234 -98t95 -232v-414q0 -135 -95 -232q-95 -98 -233 -98t-235 97q-95 97 -95 233v414zM602 719q0 93 -65 158t-157 65t-157 -65t-65 -158v-414q0 -93 65 -158t157 -65t157 65t65 158v414zM403 1110h-43q-51 0 -6 76l113 200
q21 35 35 37t24 2h37q45 0 6 -71l-114 -209q-20 -35 -52 -35z" />
    <glyph glyph-name="ocircumflex" unicode="&#xf4;" horiz-adv-x="768" 
d="M61 719q0 135 95 232q95 98 233 98t235 -97q95 -97 95 -233v-414q0 -134 -95 -232q-96 -98 -234 -98q-139 0 -234 98t-95 232v414zM612 719q0 93 -65 158t-157 65t-157 -65t-65 -158v-414q0 -93 65 -158t157 -65t157 65t65 158v414zM186 1110q-18 0 -30 12l-19 19
q-25 25 0 57l238 238q25 25 53 -4l234 -234q14 -12 13 -30t-13 -29l-15 -15q-28 -28 -59 -2l-189 187l-186 -187q-9 -12 -27 -12z" />
    <glyph glyph-name="otilde" unicode="&#xf5;" horiz-adv-x="790" 
d="M72 719q0 136 95 233t232 97q138 0 235 -97q95 -97 95 -233v-414q0 -134 -95 -232q-96 -98 -234 -98q-139 0 -234 98q-96 98 -94 232v414zM623 719q1 91 -65 157t-159 66t-156 -64t-65 -159v-414q0 -91 66 -157t156 -66q92 0 156 64t67 159v414zM302 1294q-28 0 -45 -24
t-32 -56q-12 -37 -27 -39t-43 16q-27 18 -3 66q29 72 72 99q81 50 143 8q27 -18 49 -40t39 -40q18 -18 45 -18t45 24q17 24 31 55t27 35q13 5 42 -9q29 -13 23 -37q-13 -58 -87 -128q-34 -31 -85 -30t-107 59l-41 41q-18 18 -46 18z" />
    <glyph glyph-name="odieresis" unicode="&#xf6;" horiz-adv-x="735" 
d="M43 719q0 134 95 232q96 98 234 98q139 0 234 -98q96 -98 94 -232v-414q0 -136 -95 -233t-232 -97q-138 0 -235 97q-95 97 -95 233v414zM594 719q0 94 -66 159q-66 64 -156 64q-92 0 -157 -65t-65 -158v-414q0 -93 65 -158t158 -65t157 66t64 157v414zM178 1239
q0 41 41 41h23q16 0 29 -11t14 -30v-22q0 -43 -43 -43h-23q-41 0 -41 43v22zM465 1239q0 41 41 41h22q16 0 30 -11t13 -30v-22q0 -43 -43 -43h-22q-41 0 -41 43v22z" />
    <glyph glyph-name="divide" unicode="&#xf7;" horiz-adv-x="661" 
d="M276 836q0 16 10.5 28.5t30.5 12.5h25q16 0 28.5 -11.5t12.5 -29.5v-25q0 -41 -41 -41h-25q-41 0 -41 41v25zM279 66q0 40 40 40h25q16 0 28.5 -11t12.5 -29v-25q0 -41 -41 -41h-25q-41 0 -40 41v25zM618 524q16 0 28.5 -10t12.5 -31v-22q0 -16 -11 -29.5t-30 -13.5h-573
q-43 0 -43 43v22q0 41 43 41h573z" />
    <glyph glyph-name="oslash" unicode="&#xf8;" horiz-adv-x="792" 
d="M68 719q0 136 95 233t234 97q68 0 128 -26l6 -2l61 159q10 28 22 34t35 7h27q29 -1 34 -11t-5 -39l-83 -211q103 -103 103 -241v-414q0 -134 -95 -232t-233 -98q-87 0 -145 33l-55 -141q-12 -29 -45 -29h-39q-37 0 -23 39l74 193q-1 1 -1 2q-97 99 -95 233v414zM618 305
v414q0 66 -40 128l-287 -738q49 -27 100 -27q97 0 162 65t65 158zM393 942q-91 0 -155 -66t-64 -157v-414q0 -69 35 -120l283 735q-56 22 -99 22z" />
    <glyph glyph-name="ugrave" unicode="&#xf9;" horiz-adv-x="876" 
d="M172 1024q41 0 41 -41v-682q0 -89 66 -151q68 -68 156 -68t155 63t67 154v684q-1 17 13 29t30 12h23q41 0 41 -41v-942q0 -41 -41 -41h-23q-51 0 -43 78q-68 -103 -214 -103q-145 0 -241 96t-96 230v682q0 17 14 29t30 12h22zM303 1425q11 0 25 -2t34 -37l113 -200
q45 -76 -6 -76h-43q-31 0 -51 35l-115 209q-39 72 6 71h37z" />
    <glyph glyph-name="uacute" unicode="&#xfa;" horiz-adv-x="882" 
d="M176 1024q41 0 41 -41v-682q0 -89 66 -151q68 -68 156 -68t154 62q67 62 69 155v684q0 17 13 29t30 12h22q41 0 41 -41v-942q0 -41 -41 -41h-22q-51 0 -43 78q-68 -103 -214 -103t-242 96t-95 230v682q0 17 13 29t30 12h22zM461 1112h-43q-51 0 -6 76l112 201
q20 35 34 37t26 1h37q45 0 6 -71l-115 -209q-20 -35 -51 -35z" />
    <glyph glyph-name="ucircumflex" unicode="&#xfb;" horiz-adv-x="897" 
d="M182 1024q41 0 41 -41v-682q0 -87 67 -153t155 -66t154 62q67 62 69 155v684q0 17 13 29t30 12h22q41 0 41 -41v-942q0 -41 -41 -41h-22q-51 0 -43 78q-68 -103 -214 -103t-242 96t-95 230v682q0 17 13 29t30 12h22zM226 1116q-18 0 -29 12l-19 19q-26 26 0 57l238 238
q25 25 53 -4l233 -234q14 -12 14 -29t-14 -30l-14 -15q-28 -28 -59 -2l-189 187l-186 -187q-10 -12 -28 -12z" />
    <glyph glyph-name="udieresis" unicode="&#xfc;" horiz-adv-x="872" 
d="M170 1024q41 0 41 -41v-682q1 -88 67 -154q66 -65 154 -65t156 63q67 63 67 154v684q-1 17 13 29t30 12h23q41 0 41 -41v-942q0 -41 -41 -41h-23q-51 0 -43 78q-68 -103 -214 -103q-145 0 -241 96t-96 230v682q0 17 14 29t29 12h23zM254 1239q0 41 41 41h22q15 0 29 -11
t14 -30v-22q0 -43 -43 -43h-22q-41 0 -41 43v22zM541 1239q0 41 41 41h22q16 0 30 -11t13 -30v-22q0 -43 -43 -43h-22q-41 0 -41 43v22z" />
    <glyph glyph-name="yacute" unicode="&#xfd;" horiz-adv-x="841" 
d="M635 57q-79 -86 -217 -86q-138 1 -236 97t-98 233v682q0 41 41 41h25q41 0 43 -41v-682q0 -93 65 -158t158 -65t155 65t64 158v682q0 41 41 41h24q41 0 43 -41v-1034q0 -137 -96 -233q-97 -95 -238 -95t-235 94q-25 30 0 60l16 14q29 29 67 -3q66 -58 159 -58t155 65
t64 156v108zM434 1110h-43q-51 0 -6 76l113 200q20 35 34 37t25 2h37q45 0 6 -71l-115 -209q-20 -35 -51 -35z" />
    <glyph glyph-name="ydieresis" unicode="&#xff;" horiz-adv-x="847" 
d="M639 57q-79 -86 -217 -86q-138 1 -236 97t-98 233v682q0 41 41 41h25q41 0 43 -41v-682q0 -93 65 -158t158 -65t156 66t63 157v682q0 41 41 41h25q41 0 43 -41v-1034q0 -136 -97 -233q-97 -95 -238 -95t-235 94q-25 30 0 60l17 14q29 29 66 -3q66 -58 159 -58t156 66
t63 155v108zM229 1239q1 17 11 29t30 12h23q15 0 29 -11t14 -30v-22q0 -43 -43 -43h-23q-41 0 -41 43v22zM516 1239q0 41 41 41h23q16 0 29 -11t14 -30v-22q0 -43 -43 -43h-23q-41 0 -41 43v22z" />
    <glyph glyph-name="Abreve" unicode="&#x102;" horiz-adv-x="749" 
d="M676 0h-27q-39 0 -47 39l-33 151h-391l-26 -151q-6 -39 -48 -39h-24q-45 0 -39 39l260 1300q10 43 43 43h62q32 0 43 -43l260 -1300q6 -39 -33 -39zM377 1155l-176 -866h350zM219 1636q0 41 41 41h23q15 1 29 -11t14 -32t14 -35q14 -14 34 -14t36 14q14 14 14 35v2
q0 41 41 41h22q15 0 29 -11t14 -30v-2q0 -66 -45 -110t-111 -45q-66 0 -110 45q-45 45 -45 110v2z" />
    <glyph glyph-name="abreve" unicode="&#x103;" horiz-adv-x="784" 
d="M381 -23q-134 0 -232 95t-98 231t97 228t233 92h221q0 267 -126 306q-42 13 -112 14t-149 -66q-33 -28 -59 0l-15 16q-10 11 -12 29t10 30q41 47 107 72t134 25q68 1 129 -19q124 -40 174 -201q26 -82 26 -206v-580q0 -43 -43 -43h-23q-41 0 -41 43v23q-48 -77 -221 -89z
M381 514q-93 0 -157 -60t-64 -150q0 -91 63 -156q63 -66 157 -66q93 0 158 56t64 167v209h-221zM242 1268q0 39 41 41h22q15 1 29 -11t14 -32t14 -35q14 -14 34 -14t36 14q14 14 14 35v2q0 39 41 41h23q16 1 30 -11t13 -30v-2q0 -66 -45 -111t-111 -45q-67 0 -111 45
t-44 111v2z" />
    <glyph glyph-name="aogonek" unicode="&#x105;" horiz-adv-x="784" 
d="M442 -125q0 -41 -41 -41h-6q-29 -4 -48 -24t-19 -50t22 -51q22 -20 45 -20q23 1 35 -13t12 -30v-23q0 -21 -12 -31t-29 -10q-76 0 -128 51t-52 117t32 112t83 66v52q-107 15 -196 101t-89 222t97 228t233 92h221q0 267 -126 306q-42 13 -112 14t-149 -66q-33 -28 -59 0
l-15 16q-10 11 -12 29t10 30q41 47 107 72t134 25q68 1 129 -19q124 -40 174 -201q26 -82 26 -206v-580q0 -43 -43 -43h-23q-41 0 -41 43v23q-38 -61 -160 -83v-108zM381 514q-93 0 -157 -60t-64 -150q0 -91 63 -156q63 -66 157 -66q93 0 158 56t64 167v209h-221z" />
    <glyph glyph-name="Cacute" unicode="&#x106;" horiz-adv-x="866" 
d="M715 332q39 0 41 -41q0 -129 -91 -222q-92 -92 -227 -92t-222 89t-87 225v801q0 127 91 222q91 91 220 91t225 -91q91 -91 91 -222q0 -16 -10 -28t-33 -13h-17q-14 0 -27 11t-13 42q-1 79 -64 138q-62 59 -149 60t-148 -59t-64 -151v-801q0 -89 63 -150q64 -61 150 -61
t148 60q63 60 63 151q1 16 11 28t32 13h17zM420 1477q-51 0 -6 75l112 201q20 35 34 37t26 2h37q45 0 6 -72l-115 -209q-20 -35 -51 -34h-43z" />
    <glyph glyph-name="cacute" unicode="&#x107;" horiz-adv-x="851" 
d="M721 758h-29q-24 0 -38 33q-62 151 -216 151q-94 0 -159 -66q-64 -66 -64 -157v-414q-1 -94 65 -159q66 -64 158 -64t142 41q49 41 64 84q16 43 24 54t24 11h29q17 0 29 -10t10 -31q-20 -107 -108 -180q-88 -74 -221 -75q-132 -1 -228 97t-94 232v414q0 136 95 233
t221 97t219 -76t114 -174q4 -17 -8 -29t-29 -12zM457 1110h-43q-51 0 -6 76l112 200q20 35 34 37t26 2h36q45 0 7 -71l-115 -209q-20 -35 -51 -35z" />
    <glyph glyph-name="Ccircumflex" unicode="&#x108;" horiz-adv-x="757" 
d="M664 332q39 0 41 -41q0 -130 -92 -222t-227 -92t-222 90q-88 90 -86 224v801q0 129 91 221t221 92t223 -91q92 -92 92 -222q-1 -16 -11 -28t-32 -13h-17q-14 0 -28 11q-13 11 -13 42t-16 70q-16 40 -46 68q-63 59 -150 60t-148 -59t-64 -151v-801q0 -89 63 -150t149 -61
t149 60t63 151q0 39 43 41h17zM182 1479q-18 0 -30 12l-19 18q-25 25 0 58l238 237q25 25 53 -4l233 -233q32 -28 -5 -65t-68 -11l-189 186l-186 -186q-9 -12 -27 -12z" />
    <glyph glyph-name="ccircumflex" unicode="&#x109;" horiz-adv-x="739" 
d="M662 758h-29q-27 0 -46 52q-20 52 -56 78q-37 26 -71 40t-81 14q-93 0 -158 -65t-65 -158v-414q0 -93 65 -158t157 -65t142 41q48 41 64 84t24 54t25 11h29q42 0 38 -41q-20 -108 -108 -181t-219 -74q-132 -1 -229 96q-95 97 -95 233v414q0 134 95 232t222 98t219 -76
t113 -174q4 -17 -8 -29t-28 -12zM174 1178q-18 0 -31 12l-18 18q-25 25 0 58l237 237q25 25 54 -4l233 -233q32 -28 -4 -64q-37 -37 -70 -12l-188 186l-186 -186q-9 -12 -27 -12z" />
    <glyph glyph-name="Cdotaccent" unicode="&#x10a;" horiz-adv-x="729" 
d="M643 332q17 0 29 -11t12 -53t-25 -100q-25 -57 -67 -99q-91 -92 -225 -92t-222 89t-88 225v801q0 127 91 222q91 91 221 91t223 -91q92 -91 92 -222q0 -16 -10 -28t-33 -13h-16q-14 0 -28 11q-13 11 -13 42t-17 70q-32 77 -115 112q-84 35 -164 0t-112 -112
q-16 -39 -16 -82v-801q0 -90 63 -151q63 -60 150 -60t148 60t63 151q0 39 43 41h16zM309 1542q0 41 41 41h25q16 0 28 -11t13 -30v-24q0 -41 -41 -41h-25q-41 0 -41 41v24z" />
    <glyph glyph-name="cdotaccent" unicode="&#x10b;" horiz-adv-x="747" 
d="M672 758h-29q-27 0 -46 52q-20 52 -56 78q-37 26 -71 40t-81 14q-93 0 -158 -65t-65 -158v-414q0 -93 65 -158t157 -65t142 41q48 41 64 84t24 54t25 11h29q41 0 39 -41q-20 -107 -108 -180q-88 -74 -221 -75q-132 -1 -228 97q-95 98 -95 232v414q0 135 95 232
q95 98 222 98q126 0 219 -76t114 -174q3 -17 -9 -29t-28 -12zM342 1235q0 41 41 41h25q16 0 28 -11t13 -30v-25q0 -41 -41 -41h-25q-41 0 -41 41v25z" />
    <glyph glyph-name="Ccaron" unicode="&#x10c;" horiz-adv-x="755" 
d="M600 289q0 41 43 43h16q17 0 29 -11t12 -53t-24 -100q-24 -57 -67 -99q-92 -92 -227 -92t-222 90q-88 90 -86 224v801q0 129 91 221t221 92t222 -91t92 -222q0 -16 -10 -28t-33 -13h-16q-14 0 -28 11q-13 11 -13 42t-16 70q-16 40 -46 68q-63 59 -150 60t-148 -59
t-64 -151v-801q0 -89 63 -150t149 -61t149 60q63 61 63 149zM162 1827q18 0 28 -12l187 -187l188 187q31 26 60 -3q46 -46 14 -73l-233 -234q-29 -29 -54 -4l-237 238q-26 31 0 57l18 19q11 12 29 12z" />
    <glyph glyph-name="ccaron" unicode="&#x10d;" horiz-adv-x="770" 
d="M680 758h-29q-24 0 -38 33q-62 151 -216 151q-94 0 -159 -66q-64 -66 -64 -157v-414q0 -94 66 -159q66 -64 157 -64q92 0 142 41q49 41 64 84t23 54t25 11h29q18 0 30 -10t9 -31q-20 -107 -108 -180q-88 -74 -221 -75q-132 -1 -228 97t-94 232v414q0 136 95 233t221 97
t219 -76t114 -174q4 -17 -8 -29t-29 -12zM172 1460q18 0 29 -12l186 -186l188 186q31 25 60 -2q46 -46 14 -74l-233 -233q-29 -29 -54 -4l-237 237q-26 31 0 58l18 18q11 12 29 12z" />
    <glyph glyph-name="Dcaron" unicode="&#x10e;" 
d="M82 1339q0 19 12 31t31 12h270q136 0 225 -87t89 -226v-756q1 -129 -91 -221t-223 -92h-270q-18 0 -31 12q-12 12 -12 31v1296zM184 1280v-1178h211q85 0 148 61t63 150v756q0 87 -62 149t-149 62h-211zM138 1827q17 0 28 -12l186 -187l189 187q31 25 59 -3
q47 -47 14 -73l-233 -234q-29 -29 -53 -4l-238 238q-25 30 0 57l19 19q12 12 29 12z" />
    <glyph glyph-name="dcaron" unicode="&#x10f;" horiz-adv-x="1087" 
d="M152 952q97 97 229 97t225 -84v376q0 41 41 41h23q41 0 43 -41v-1300q-1 -17 -11 -29t-30 -12h-23q-16 0 -29 11t-14 30v18q-93 -82 -224 -82q-132 0 -229 95q-98 95 -98 233v414q0 136 97 233zM164 305q0 -93 64 -157t155 -64t157 63t66 158v414q0 93 -65 158t-158 65
t-156 -66t-63 -157v-414zM905 1317v24q0 41 41 41h29q17 0 29 -10t12 -31v-65q0 -80 -31 -121q-31 -42 -49 -23t-15 28t17 30t14 45v20q0 9 -1 15t-11 6q-35 4 -35 41z" />
    <glyph glyph-name="dcroat" unicode="&#x111;" horiz-adv-x="845" 
d="M582 1341q0 41 41 41h22q18 0 30.5 -11t12.5 -30v-96h123q16 0 28.5 -10t12.5 -31v-22q0 -16 -11.5 -29.5t-29.5 -13.5h-123v-1098q0 -41 -41 -41h-22q-16 0 -29.5 11.5t-13.5 29.5v18q-93 -82 -225 -82t-229 95t-97 233v414q0 137 96.5 233.5t225.5 96.5t229 -84v174
h-119q-43 0 -43 43v22q0 41 43 41h119v96zM139 305q0 -92 64.5 -156.5t154.5 -64.5t157 63.5t67 157.5v414q0 93 -66.5 158t-157.5 65t-155 -66t-64 -157v-414z" />
    <glyph glyph-name="Edotaccent" unicode="&#x116;" horiz-adv-x="673" 
d="M68 1341q0 41 41 41h487q16 0 28 -10t13 -31v-22q0 -15 -11 -29t-30 -14h-422v-533h340q16 0 28 -10t13 -31v-22q0 -16 -11 -30t-30 -13h-340v-531h422q41 0 41 -40v-23q0 -15 -11 -29t-30 -14h-487q-41 0 -41 41v1300zM311 1544q1 16 11 28t30 13h25q17 0 29 -11t12 -30
v-24q0 -41 -41 -41h-25q-41 0 -41 41v24z" />
    <glyph glyph-name="edotaccent" unicode="&#x117;" horiz-adv-x="776" 
d="M684 532h-508v-227q0 -91 66 -157t155 -66q176 0 215 143q6 23 14 35t36 12h22q16 0 26 -11t11 -30q-21 -105 -110 -179t-219 -76q-131 -1 -228 96t-96 233v365q0 173 94 276t235 103q140 0 235 -100t95 -279v-95q-1 -19 -13 -31t-30 -12zM623 637q0 157 -64 234t-158 77
t-158 -74q-63 -74 -65 -237h445zM352 1237q0 41 41 41h25q16 0 28 -11t13 -30v-25q0 -41 -41 -41h-25q-41 0 -41 41v25z" />
    <glyph glyph-name="Eogonek" unicode="&#x118;" horiz-adv-x="886" 
d="M193 1341q0 41 40 41h488q17 0 29 -10t12 -31v-22q0 -15 -11 -29t-30 -14h-422v-533h340q17 0 29 -10t12 -31v-22q0 -16 -11 -30t-30 -13h-340v-531h422q41 0 41 -40v-23q0 -15 -11 -29t-30 -14h-186v-106q-1 -16 -11 -28t-30 -13h-7q-29 -5 -48 -25t-19 -50t22 -50
t46 -20q45 -1 47 -44v-22q-1 -20 -13 -30t-28 -11q-76 0 -128 51q-52 52 -52 118t31 111q32 45 83 66v53h-195q-41 0 -40 41v1300z" />
    <glyph glyph-name="eogonek" unicode="&#x119;" 
d="M684 532h-508v-227q0 -91 66 -157t155 -66q176 0 215 143q6 23 14 35t36 12h22q16 0 26 -11t11 -30q-21 -105 -96 -169q-76 -64 -168 -82v-109q-1 -17 -11 -29t-30 -12h-6q-28 -4 -48 -24t-20 -51q0 -30 22 -50t46 -20q24 1 35 -13t12 -30v-23q-1 -21 -13 -31t-28 -10
q-76 0 -128 51t-52 117q0 133 114 178v55q-109 16 -196 103q-88 88 -86 223v365q0 173 94 276t235 103q140 0 235 -100t95 -279v-95q-1 -19 -13 -31t-30 -12zM623 637q0 157 -64 234t-158 77t-158 -74q-63 -74 -65 -237h445z" />
    <glyph glyph-name="Ecaron" unicode="&#x11a;" horiz-adv-x="663" 
d="M82 1341q0 41 41 41h487q16 0 28 -10t13 -31v-22q0 -15 -11 -29t-30 -14h-422v-533h340q16 0 28 -10t13 -31v-22q0 -16 -11 -30t-30 -13h-340v-531h422q41 0 41 -40v-23q0 -15 -11 -29t-30 -14h-487q-41 0 -41 41v1300zM144 1831q17 0 28 -12l186 -187l189 187
q30 25 59 -2l15 -15q12 -12 13 -29t-13 -30l-234 -234q-29 -29 -53 -4l-238 238q-25 30 0 57l19 19q12 12 29 12z" />
    <glyph glyph-name="ecaron" unicode="&#x11b;" 
d="M684 532h-508v-227q0 -91 66 -157t155 -66q176 0 215 143q6 23 14 35t36 12h22q16 0 26 -11t11 -30q-21 -105 -110 -179t-219 -76q-131 -1 -228 96t-96 233v365q0 173 94 276t235 103q140 0 235 -100t95 -279v-95q-1 -19 -13 -31t-30 -12zM623 637q0 157 -64 234t-158 77
t-158 -74q-63 -74 -65 -237h445zM183 1460q17 0 28 -12l186 -186l189 186q30 25 59 -2q46 -46 14 -74l-233 -233q-29 -29 -53 -4l-238 237q-26 31 0 58l19 18q12 12 29 12z" />
    <glyph glyph-name="gcircumflex" unicode="&#x11d;" horiz-adv-x="780" 
d="M68 719q0 137 96 233t233 97q71 0 139 -29q67 -29 82 -62v25q0 41 41 41h25q43 0 43 -41v-1032q0 -135 -96 -233q-97 -95 -240 -95t-233 94q-26 31 0 60l16 14q30 31 66 -3q64 -58 158 -58q93 0 157 66q63 66 63 155v112q-74 -80 -221 -86q-136 0 -233 97t-96 233v412z
M618 719q0 92 -63 157q-63 66 -157 66q-93 0 -157 -64q-63 -64 -65 -159v-412q0 -93 66 -158t158 -65t155 66t63 157v412zM192 1112q-18 0 -30 12l-19 19q-25 25 0 57l238 238q25 25 53 -4l234 -234q14 -12 13 -30t-13 -29l-15 -15q-27 -27 -59 -2l-188 187l-187 -187
q-9 -12 -27 -12z" />
    <glyph glyph-name="gdotaccent" unicode="&#x121;" horiz-adv-x="837" 
d="M78 719q0 137 96 233t234 97q70 0 137 -29q66 -29 84 -62v25q0 41 41 41h24q43 0 43 -41v-1032q0 -137 -96 -233q-97 -95 -240 -95t-233 94q-25 30 0 60l16 14q29 29 67 -3q66 -58 159 -58t155 65t64 156v112q-73 -80 -221 -86q-135 0 -234 97q-98 98 -96 233v412z
M629 719q0 91 -64 157t-156 66t-156 -64t-67 -159v-412q0 -93 66 -158t159 -65t155 66q61 66 63 157v412zM358 1239q0 17 10 29t31 12h25q16 0 28 -11t13 -30v-25q0 -41 -41 -40h-25q-41 0 -41 40v25z" />
    <glyph glyph-name="gcommaaccent" unicode="&#x123;" horiz-adv-x="841" 
d="M80 719q0 137 96 233t234 97q70 0 137 -29q66 -29 84 -62v25q0 41 41 41h24q43 0 43 -41v-1032q0 -137 -96 -233q-97 -95 -240 -95t-233 94q-25 30 0 60l16 14q29 29 67 -3q66 -58 159 -58t155 65t64 156v112q-73 -80 -221 -86q-135 0 -234 97q-98 98 -96 233v412z
M631 719q0 91 -64 157t-156 66t-156 -64t-67 -159v-412q0 -93 66 -158t159 -65t155 66q61 66 63 157v412zM449 1214q0 -41 -41 -40h-29q-41 0 -41 40v66q0 80 30 120t50 23q19 -19 15 -27q-3 -9 -17 -30t-15 -45v-21q0 -10 1 -15t12 -5q33 -4 35 -41v-25z" />
    <glyph glyph-name="Hcircumflex" unicode="&#x124;" horiz-adv-x="763" 
d="M66 1341q0 41 40 41h23q15 0 29 -11t14 -30v-598h416v598q0 41 41 41h22q15 0 29 -11t14 -30v-1300q0 -41 -43 -41h-22q-41 0 -41 41v596h-416v-596q0 -41 -43 -41h-23q-41 0 -40 41v1300zM170 1477q-18 0 -31 12l-18 18q-25 25 0 58l237 237q25 25 54 -4l233 -233
q32 -28 -4 -64q-37 -37 -70 -12l-188 186l-186 -186q-9 -12 -27 -12z" />
    <glyph glyph-name="hcircumflex" unicode="&#x125;" horiz-adv-x="770" 
d="M174 963q76 86 216 86q140 -1 237 -97q98 -96 98 -233v-676q0 -43 -43 -43h-23q-41 0 -41 43v676q0 90 -68 157q-68 66 -154 66q-88 0 -154 -65t-68 -148v-686q0 -43 -43 -43h-22q-41 0 -41 43v1298q0 41 41 41h22q15 0 29 -11t14 -30v-378zM168 1479q-18 0 -31 12
l-18 18q-27 27 0 58l237 237q25 25 54 -4l233 -233q32 -28 -4 -64q-37 -37 -70 -12l-188 186l-186 -186q-9 -12 -27 -12z" />
    <glyph glyph-name="Itilde" unicode="&#x128;" horiz-adv-x="227" 
d="M51 1341q0 41 41 41h23q16 0 29 -11t14 -30v-1298q0 -43 -43 -43h-23q-41 0 -41 43v1298zM-1 1599q-28 -1 -45 -25t-32 -54q-12 -37 -27 -39t-37 12q-22 15 -20 33t10 37q29 73 73 99t80 26q52 0 111 -59l40 -40q18 -18 44 -18t46 24q18 25 31 55t27 34q14 5 42 -8
q46 -21 8 -77q-39 -56 -72 -88q-34 -31 -85 -30t-107 59l-41 41q-18 18 -46 18z" />
    <glyph glyph-name="IJ" unicode="&#x132;" horiz-adv-x="954" 
d="M412 -23q-82 0 -149 35q-11 -12 -34 -12h-22q-41 0 -41 43v1298q0 41 41 41h22q15 0 29 -11t14 -30v-1204q62 -57 153 -57t150 61t60 150v1050q0 41 41 41h22q16 0 30 -11t13 -30v-1050q1 -131 -91 -223t-238 -91z" />
    <glyph glyph-name="ij" unicode="&#x133;" horiz-adv-x="792" 
d="M170 0q-41 0 -41 41v942q0 41 41 41h23q43 0 43 -41v-942q0 -17 -14 -29t-29 -12h-23zM170 1274q-41 0 -41 41v26q0 41 41 41h25q41 0 41 -41v-26q0 -17 -12 -29t-29 -12h-25zM291 -322v25q0 37 41 40q80 6 136 70t56 150v1020q0 41 41 41h23q43 0 43 -41v-1020
q0 -124 -85 -218t-214 -107q-41 0 -41 40zM567 1274q-39 0 -41 41v26q0 41 41 41h25q41 0 41 -41v-26q0 -17 -12 -29t-29 -12h-25z" />
    <glyph glyph-name="Jcircumflex" unicode="&#x134;" horiz-adv-x="649" 
d="M461 1341q0 41 41 41h22q16 0 30 -11t13 -30v-1050q1 -131 -91 -223t-234 -91q-142 0 -219 84q-25 30 -5 56l21 20q31 27 65 -5q54 -52 146 -52t151 61t60 150v1050zM496 1790q25 25 53 -4l233 -234q32 -27 -6 -65t-67 -10l-189 186l-186 -186q-10 -13 -28 -13t-30 13
l-18 18q-26 26 0 57z" />
    <glyph glyph-name="Lacute" unicode="&#x139;" horiz-adv-x="735" 
d="M72 1341q0 41 41 41h22q15 0 29 -11t14 -30v-1235h477q41 0 41 -40v-23q0 -15 -11 -29t-30 -14h-542q-41 0 -41 41v1300zM369 1475q-51 0 -7 75l113 201q21 35 35 37t25 2h36q45 0 7 -72l-115 -209q-20 -35 -51 -34h-43z" />
    <glyph glyph-name="lacute" unicode="&#x13a;" horiz-adv-x="540" 
d="M207 1341q0 41 41 41h24q18 0 30 -11t11 -30v-1060q1 -95 55 -143t138 -56q16 0 28 -10t13 -31v-25q0 -39 -41 -41q-208 13 -276 171q-24 56 -23 135v1060zM246 1477q-51 0 -6 75l112 201q20 35 34 37t26 2h37q45 0 6 -72l-115 -209q-20 -35 -51 -34h-43z" />
    <glyph glyph-name="Lcaron" unicode="&#x13d;" horiz-adv-x="856" 
d="M156 1341q0 41 41 41h22q15 0 29 -11t14 -30v-1235h477q41 0 41 -40v-23q0 -15 -11 -29t-30 -14h-542q-41 0 -41 41v1300zM424 1319v24q0 41 41 41h29q16 0 28 -10t13 -31v-65q0 -77 -31 -119t-50 -24t-15 27q3 9 17 29t15 46v20q0 9 -1 15t-11 6q-35 4 -35 41z" />
    <glyph glyph-name="lcaron" unicode="&#x13e;" horiz-adv-x="753" 
d="M573 16q0 -39 -41 -41q-207 13 -275 171q-24 56 -24 135v1060q1 17 11 29t30 12h25q17 0 29 -11t12 -30v-1060q0 -95 54 -143t138 -56q16 0 28 -10t13 -31v-25zM453 1317v24q0 41 41 41h28q16 0 28 -10t13 -31v-65q0 -80 -31 -121t-49 -22q-19 19 -15 27q4 9 18 31t14 44
v20q0 9 -1 15t-12 6q-34 4 -34 41z" />
    <glyph glyph-name="Lslash" unicode="&#x141;" horiz-adv-x="751" 
d="M729 106q41 0 41 -40v-23q0 -15 -11 -29t-30 -14h-543q-41 0 -41 41v1300q1 17 11 29t30 12h23q15 0 29 -11t14 -30v-1235h477z" />
    <glyph glyph-name="Nacute" unicode="&#x143;" horiz-adv-x="755" 
d="M590 1341q0 41 41 41h22q15 0 29 -11t14 -30v-1298q0 -19 -12 -31t-31 -12h-37q-18 0 -27 13t-16 30l-407 1036v-1036q0 -43 -43 -43h-23q-41 0 -41 43v1296q-1 19 13 31t30 12h37q19 0 27 -12t16 -31l408 -1040v1042zM348 1477q-51 0 -6 75l113 201q20 35 34 37t25 2h37
q45 0 6 -72l-115 -209q-20 -35 -51 -34h-43z" />
    <glyph glyph-name="nacute" unicode="&#x144;" horiz-adv-x="866" 
d="M700 0q-39 0 -41 41v678q1 90 -67 157q-68 66 -157 66t-155 -66q-65 -66 -65 -155v-680q0 -17 -13 -29t-30 -12h-22q-41 0 -41 41v942q0 41 41 41h22q43 0 43 -61q91 86 224 86q132 -1 229 -97q98 -96 98 -233v-678q0 -17 -13 -29t-30 -12h-23zM463 1112h-43q-51 0 -6 76
l112 201q20 35 34 37t26 1h37q45 0 6 -71l-115 -209q-20 -35 -51 -35z" />
    <glyph glyph-name="Ncaron" unicode="&#x147;" horiz-adv-x="802" 
d="M639 0q-28 0 -43 43l-408 1036v-1036q0 -43 -43 -43h-22q-41 0 -41 43v1296q0 19 13 31t30 12h37q18 0 26 -12t17 -31l407 -1040v1042q0 17 10 29t31 12h23q16 0 30 -11t13 -30v-1298q0 -19 -12 -31t-31 -12h-37zM181 1829q17 0 28 -12l186 -187l189 187q30 25 59 -2
l14 -15q11 -12 13 -30t-13 -29l-233 -234q-29 -29 -53 -4l-238 238q-25 30 0 57l19 19q12 12 29 12z" />
    <glyph glyph-name="ncaron" unicode="&#x148;" horiz-adv-x="815" 
d="M674 0q-41 0 -41 41v678q0 89 -68 156t-156 67q-87 0 -153 -66t-68 -155v-680q0 -17 -13 -29t-30 -12h-22q-41 0 -41 41v942q0 41 41 41h22q43 0 43 -61q91 86 225 86q133 0 230 -97t96 -233v-678q0 -17 -13 -29t-30 -12h-22zM189 1462q17 0 28 -12l186 -186l189 186
q31 26 59 -2l15 -14q12 -12 13 -30t-13 -30l-234 -233q-29 -29 -53 -4l-238 237q-26 31 0 58l19 18q12 12 29 12z" />
    <glyph glyph-name="OE" unicode="&#x152;" horiz-adv-x="1177" 
d="M53 291v801q0 127 91 222q91 91 217 91t214 -79v15q1 17 11 29t30 12h488q16 0 28 -10t13 -31v-22q0 -15 -11 -29t-30 -14h-422v-533h340q16 0 28 -10t13 -31v-22q0 -16 -11 -30t-30 -13h-340v-531h422q41 0 41 -40v-23q0 -15 -11 -29t-30 -14h-488q-41 0 -41 41v15
q-91 -79 -214 -79q-123 -1 -215 91q-93 92 -93 223zM156 1092v-801q0 -89 61 -150t151 -61t144 56q55 56 63 125v860q-11 74 -49 111q-70 69 -159 70q-87 2 -149 -60t-62 -150z" />
    <glyph glyph-name="oe" unicode="&#x153;" horiz-adv-x="1308" 
d="M55 719q0 135 95 232q95 98 234 98q138 0 233 -97q26 -26 46 -58q54 90 145 129q60 26 128 26t128 -25q124 -52 176 -191q26 -71 26 -163v-95q0 -18 -12 -30t-31 -13h-508v-227q0 -93 65 -158t156 -65q147 0 194 94q14 27 20 49q6 23 15 35q8 12 35 12h23q35 0 37 -41
q-21 -105 -110 -179t-219 -76q-130 -1 -229 96q-24 24 -42 53q-51 -82 -147 -124q-60 -26 -129 -26q-138 0 -234 98q-95 98 -95 232v414zM606 719q0 93 -65 158t-157 65t-157 -65t-65 -158v-414q0 -93 65 -158t157 -65t157 65t65 158v414zM1161 637q0 236 -139 294
q-41 17 -83 17q-150 0 -203 -166q-19 -59 -19 -145h444z" />
    <glyph glyph-name="Racute" unicode="&#x154;" horiz-adv-x="882" 
d="M125 1341q0 41 41 41h272q132 0 224 -86q92 -88 92 -227v-115q0 -92 -50 -164t-122 -114l182 -615q14 -61 -29 -61h-28q-39 0 -50 43l-174 598h-252v-598q0 -43 -43 -43h-22q-41 0 -41 43v1298zM231 1280v-537h207q87 0 150 61t63 150v115q0 87 -62 149t-151 62h-207z
M369 1477q-51 0 -7 75l113 201q21 35 35 37t25 2h36q45 0 7 -72l-115 -209q-20 -35 -51 -34h-43z" />
    <glyph glyph-name="racute" unicode="&#x155;" horiz-adv-x="614" 
d="M498 1049q16 -1 28 -11t13 -30v-23q1 -15 -11 -29t-30 -14h-29q-91 0 -156 -65t-65 -158v-676q0 -43 -43 -43h-23q-41 0 -41 43v676q0 135 95 232q95 98 233 98h29zM365 1112h-43q-51 0 -7 76l113 201q20 35 34 37t25 1h37q45 0 6 -71l-114 -209q-20 -35 -51 -35z" />
    <glyph glyph-name="Rcaron" unicode="&#x158;" horiz-adv-x="747" 
d="M82 1341q0 41 41 41h272q133 0 224 -87q92 -87 92 -226v-115q-1 -92 -51 -164t-121 -114l182 -615q14 -61 -29 -61h-28q-39 0 -50 43l-174 598h-252v-598q0 -43 -43 -43h-22q-41 0 -41 43v1298zM188 1280v-537h207q87 0 150 61t63 150v115q0 87 -62 149t-151 62h-207z
M118 1827q18 0 27 -12l187 -187l188 187q31 26 60 -3q46 -46 14 -73l-234 -234q-29 -29 -53 -4l-237 238q-26 31 0 57l18 19q12 12 30 12z" />
    <glyph glyph-name="rcaron" unicode="&#x159;" horiz-adv-x="471" 
d="M426 1049q16 -1 28 -11t13 -30v-23q0 -15 -11 -29t-30 -14h-29q-92 0 -156 -64q-63 -64 -65 -159v-676q0 -43 -43 -43h-22q-41 0 -41 43v676q0 136 95 233t232 97h29zM36 1460q18 0 27 -12l187 -186l188 186q31 25 60 -2q45 -45 14 -74l-233 -233q-29 -29 -54 -4
l-237 237q-26 32 0 58l18 18q12 12 30 12z" />
    <glyph glyph-name="Sacute" unicode="&#x15a;" horiz-adv-x="817" 
d="M721 1067q0 -41 -41 -41h-23q-41 0 -43 56q-10 218 -202 221q-87 0 -147 -62t-60 -152t59 -153q90 -104 179 -208t150 -173q61 -70 88 -109t35 -81q9 -43 9 -89t-25 -102q-24 -56 -66 -101q-92 -98 -229 -98q-136 0 -221 91q-86 91 -86 225v31q0 16 10 28t31 12h23
q16 0 29 -11t14 -29v-9q0 -104 30 -149q63 -94 177 -92q86 0 148 62q61 62 63 157q0 65 -76 160l-359 413q-86 103 -86 230t89 220q91 91 219 91t220 -90q91 -90 91 -223v-25zM389 1477q-51 0 -6 75l113 201q20 35 34 37t25 2h37q45 0 6 -72l-115 -209q-20 -35 -51 -34h-43z
" />
    <glyph glyph-name="sacute" unicode="&#x15b;" horiz-adv-x="837" 
d="M133 272h23q42 0 43 -57t62 -100q62 -43 161 -43q163 0 224 114q17 33 18 74q0 94 -71 139t-143 63t-129 38q-121 40 -175 140q-57 106 -5 230q45 103 156 153q55 26 121 26q128 0 221 -71t106 -179q2 -17 -9 -29t-27 -12h-23q-27 0 -37 10t-15 34q-19 91 -121 132
q-37 14 -107 12t-124 -54t-57 -134q2 -70 49 -111t150 -69q195 -43 272 -126q76 -82 76 -198q0 -117 -96 -200q-45 -38 -115 -60q-71 -22 -139 -21q-138 0 -232 68q-94 69 -98 190q0 41 41 41zM446 1110h-43q-51 0 -6 76l113 200q20 35 34 37t25 2h37q45 0 6 -71l-114 -209
q-20 -35 -52 -35z" />
    <glyph glyph-name="Scircumflex" unicode="&#x15c;" horiz-adv-x="727" 
d="M668 1067q0 -17 -10 -29t-31 -12h-23q-42 0 -44 56q-1 34 -12 77q-36 141 -190 144q-86 0 -146 -62t-60 -152t59 -153q381 -441 412 -484t40 -86q9 -44 9 -90t-25 -102q-53 -119 -166 -172q-57 -27 -127 -27t-128 25q-115 50 -159 168q-22 57 -22 123v31q0 16 10 28
t31 12h23q16 0 29 -11t14 -29v-9q0 -103 30 -149q61 -94 176 -92q85 0 148 63t63 143t-75 173l-359 413q-86 103 -86 230t89 220q91 91 218 91t223 -91q89 -89 89 -222v-25zM157 1477q-17 0 -30 12l-18 18q-27 27 0 58l237 237q25 25 53 -4l234 -233q14 -11 13 -29t-13 -31
l-15 -14q-27 -27 -59 -2l-188 186l-187 -186q-10 -12 -27 -12z" />
    <glyph glyph-name="scircumflex" unicode="&#x15d;" horiz-adv-x="759" 
d="M94 272h23q42 0 43 -57t62 -100q62 -43 161 -43q163 0 224 114q17 33 18 74q0 94 -71 139q-72 45 -144 63t-128 38q-122 40 -174 140q-58 107 -9 220q48 113 159 163q54 26 120 26q128 0 221 -71q92 -71 108 -179q3 -17 -9 -29t-28 -12h-23q-27 0 -37 10t-19 52t-45 71
q-73 58 -161 56q-88 -3 -142 -55t-57 -134q2 -70 49 -111t150 -69q195 -43 272 -126q76 -82 76 -199q0 -118 -96 -199q-45 -38 -115 -60t-138 -21q-139 0 -233 69t-98 189q0 41 41 41zM172 1110q-18 0 -31 12l-18 19q-25 25 0 57l237 238q25 25 54 -4l233 -234
q14 -12 13 -30t-13 -29l-14 -15q-27 -27 -60 -2l-188 187l-186 -187q-9 -12 -27 -12z" />
    <glyph glyph-name="Scedilla" unicode="&#x15e;" horiz-adv-x="743" 
d="M354 -186q-39 0 -41 41v125q-102 16 -178 96q-76 81 -76 215v31q1 16 11 28t30 12h23q15 0 29 -11t14 -29v-9q0 -104 30 -149q63 -94 177 -92q86 0 148 62q61 62 63 157q0 65 -76 160l-358 413q-87 104 -87 231t90 219q91 91 219 91t219 -90t91 -223v-25q0 -41 -41 -41
h-23q-42 0 -44 56q-10 218 -201 221q-87 0 -147 -62t-60 -152t59 -153q90 -104 179 -208t163 -188q74 -85 97 -135q22 -49 22 -112t-24 -119q-51 -117 -166 -172q-36 -17 -76 -23v-71q51 -20 83 -66t32 -112q-1 -66 -53 -117t-128 -51q-16 0 -28 10t-13 31v22q-1 15 11 29
t36 14t47 20q21 20 21 51q0 30 -19 50t-49 25h-6z" />
    <glyph glyph-name="Scaron" unicode="&#x160;" horiz-adv-x="794" 
d="M711 1067q-1 -17 -11 -29t-30 -12h-23q-42 0 -44 56q-1 34 -12 77q-36 141 -190 144q-86 0 -146 -62t-60 -152t59 -153q381 -441 412 -484t40 -86q9 -44 9 -90t-25 -102q-53 -119 -166 -172q-57 -27 -127 -27t-128 25q-115 50 -159 168q-22 57 -22 123v31q0 16 10 28
t31 12h23q16 0 29 -11t14 -29v-9q-1 -103 29 -149q61 -94 177 -92q85 0 148 63t63 143t-75 173l-359 413q-86 103 -86 230t89 220q91 91 218 91t223 -91q89 -89 89 -222v-25zM191 1827q17 0 28 -12l187 -187l188 187q32 26 59 -3l15 -14q12 -12 13 -30t-13 -29l-234 -234
q-29 -29 -53 -4l-238 238q-25 30 0 57l19 19q12 12 29 12z" />
    <glyph glyph-name="scaron" unicode="&#x161;" horiz-adv-x="774" 
d="M100 272h23q15 0 29 -11t14 -41q0 -62 71 -109q54 -39 152 -39q163 0 224 114q17 33 18 74q0 94 -71 139q-72 45 -144 63t-128 38q-122 40 -174 140q-58 108 -5 230q25 57 62 93q93 86 218 86q124 0 216 -71t108 -179q3 -17 -9 -29t-28 -12h-23q-27 0 -37 10t-19 52
t-45 71q-73 58 -161 56q-88 -3 -142 -55t-56 -134q2 -70 48 -111t150 -69q194 -43 271 -125t77 -200t-96 -199q-45 -38 -115 -60t-138 -21q-139 0 -233 69t-98 189q1 17 11 29t30 12zM170 1458q18 0 29 -12l186 -186l188 186q31 25 60 -2q45 -45 14 -74l-233 -233
q-29 -29 -54 -4l-237 237q-26 31 0 57l18 19q11 12 29 12z" />
    <glyph glyph-name="Tcaron" unicode="&#x164;" horiz-adv-x="663" 
d="M606 1382q16 0 28 -10t13 -31v-22q0 -15 -11 -29t-30 -14h-219v-1235q0 -41 -43 -41h-22q-41 0 -41 41v1235h-224q-41 0 -41 43v22q0 41 41 41h549zM118 1829q18 0 27 -12l187 -187l188 187q31 25 60 -2l14 -15q12 -12 13 -30t-13 -29l-234 -234q-29 -29 -53 -4l-237 238
q-26 31 0 57l18 19q12 12 30 12z" />
    <glyph glyph-name="tcaron" unicode="&#x165;" horiz-adv-x="927" 
d="M616 16q0 -39 -41 -41q-207 13 -275 171q-24 56 -24 135v641h-151q-18 0 -30 11q-11 11 -11 30v24q0 21 12 31t29 10h151v313q0 17 10 29t31 12h25q18 0 30 -11t11 -30v-313h192q17 0 29 -10t12 -31v-24q0 -41 -41 -41h-192v-641q0 -95 54 -143t138 -56q17 0 29 -10
t12 -31v-25zM735 1317v24q0 41 41 41h29q17 0 29 -10t12 -31v-65q0 -80 -31 -121q-31 -42 -49 -23t-15 28t17 30t14 45v20q0 9 -1 15t-11 6q-35 4 -35 41z" />
    <glyph glyph-name="Utilde" unicode="&#x168;" horiz-adv-x="755" 
d="M582 1341q0 41 41 41h22q15 0 29 -11t14 -30v-1050q0 -131 -92 -223t-221 -91q-130 0 -222 92t-92 222v1050q1 17 11 29t30 12h23q15 0 29 -11t14 -30v-1050q0 -88 59 -149q59 -62 148 -62q88 0 147 61t60 150v1050zM284 1642q-28 0 -45 -24t-32 -55q-12 -37 -27 -39
t-37 10q-23 16 -21 34t11 38q29 72 73 98t89 27q45 0 101 -59l40 -40q18 -18 45 -18t45 24t32 55q14 30 26 34q13 4 47 -9q25 -12 19 -36q-14 -58 -88 -128q-34 -31 -84 -30t-107 59l-41 41q-18 18 -46 18z" />
    <glyph glyph-name="utilde" unicode="&#x169;" horiz-adv-x="790" 
d="M139 1024q41 0 41 -41v-682q0 -87 67 -153t155 -66t154 62q67 62 69 155v684q0 17 13 29t30 12h22q41 0 41 -41v-942q0 -41 -41 -41h-22q-51 0 -43 78q-68 -103 -214 -103t-242 96t-95 230v682q0 17 13 29t30 12h22zM319 1296q-28 0 -46 -24q-17 -25 -31 -55
q-12 -37 -28 -39t-37 12t-19 32t10 38q29 72 73 98t89 26q45 -1 101 -58l40 -40q18 -18 45 -18t45 24q17 24 31 55q14 30 27 34t47 -9q26 -12 20 -36t-30 -60q-66 -99 -140 -98q-54 0 -110 59l-41 41q-18 18 -46 18z" />
    <glyph glyph-name="Uring" unicode="&#x16e;" horiz-adv-x="876" 
d="M125 1341q0 41 41 41h22q16 0 30 -11t13 -30v-1050q0 -87 60 -149t147 -62q88 0 148 61q59 61 59 150v1050q0 41 41 41h23q16 0 29 -11t14 -30v-1050q0 -130 -92 -222t-222 -92q-130 -1 -222 91t-91 223v1050zM410 1636q0 -20 14 -34t34 -14t36 14q14 14 14 34t-14 34
t-34 16q-20 0 -36 -15q-14 -15 -14 -35zM459 1792q67 0 111 -46t44 -111t-45 -109t-111 -45q-66 0 -110 45q-45 45 -45 109q0 65 45 111t111 46z" />
    <glyph glyph-name="uring" unicode="&#x16f;" horiz-adv-x="872" 
d="M170 1024q41 0 41 -41v-682q1 -88 67 -154q66 -65 154 -65t156 63q67 63 67 154v684q-1 17 13 29t30 12h23q41 0 41 -41v-942q0 -41 -41 -41h-23q-51 0 -43 78q-68 -103 -214 -103q-145 0 -241 96t-96 230v682q0 17 14 29t29 12h23zM387 1268q0 -20 14 -34q15 -14 35 -15
q20 0 35 14q14 15 14 35t-14 34q-15 14 -35 15q-20 0 -35 -14q-14 -15 -14 -35zM436 1423q66 0 111 -46q45 -47 45 -111t-45 -109t-111 -45t-110 45t-45 109q1 64 45 111q44 46 110 46z" />
    <glyph glyph-name="Uogonek" unicode="&#x172;" horiz-adv-x="763" 
d="M428 -125q0 -41 -41 -41h-6q-29 -4 -48 -24t-19 -50t21 -51q22 -20 46 -20q23 1 35 -13t12 -30v-23q0 -21 -12 -31t-29 -10q-76 0 -128 51t-52 117t32 112t83 66v53q-99 16 -181 98t-82 212v1050q1 17 11 29t30 12h23q15 0 29 -11t14 -30v-1050q0 -88 59 -149
q59 -62 148 -62q88 0 147 61t60 150v1050q0 41 41 41h22q15 0 29 -11t14 -30v-1050q0 -131 -81 -212t-177 -97v-107z" />
    <glyph glyph-name="Wcircumflex" unicode="&#x174;" horiz-adv-x="1323" 
d="M86 1341q0 41 41 41h23q16 0 29 -11t14 -30v-1050q0 -87 59 -149t144 -62t148 61q64 61 64 150v1048q0 15 12 29t31 14h21q16 0 29 -11t14 -32v-1048q0 -87 62 -149t147 -62t146 64q60 64 60 147v1050q0 17 10 29t31 12h23q16 0 30 -11t13 -30v-1050q0 -129 -91 -222
q-92 -92 -222 -92q-169 0 -260 123q-114 -123 -254 -123q-140 -1 -232 91t-92 223v1050zM446 1477q-18 0 -30 12l-19 18q-25 25 0 58l238 237q25 25 53 -4l234 -233q14 -11 13 -29t-13 -31l-15 -14q-27 -27 -59 -2l-189 186l-186 -186q-9 -12 -27 -12z" />
    <glyph glyph-name="wcircumflex" unicode="&#x175;" horiz-adv-x="1327" 
d="M61 979q1 17 11 29t30 12h23q15 0 29 -11t14 -30v-678q0 -98 65 -161q65 -62 155 -62t157 67t67 156v678q0 17 10 29t31 12h23q16 0 30 -11t13 -30v-678q0 -91 66 -157t155 -66t156 67t67 156v678q1 17 11 29t30 12h23q16 0 29 -11t14 -30v-678q0 -134 -95 -232t-233 -98
q-72 0 -150 36t-124 104q-49 -68 -128 -104q-80 -36 -138 -36q-121 -1 -231 83t-110 245v680zM450 1112q-17 0 -30 12l-19 19q-25 25 0 57l238 238q25 25 53 -4l234 -234q14 -12 13 -30t-13 -29l-15 -15q-27 -27 -59 -2l-188 187l-187 -187q-10 -12 -27 -12z" />
    <glyph glyph-name="Ycircumflex" unicode="&#x176;" horiz-adv-x="739" 
d="M88 1382q23 0 36 -4t19 -22l224 -568l217 568q6 18 20 22t35 4h20q47 0 38 -26t-52 -134t-89 -228t-83 -213t-49 -136v-602q0 -43 -43 -43h-23q-41 0 -41 43v600l-272 674q-25 66 23 65h20zM159 1477q-17 0 -30 12l-18 18q-27 27 0 58l237 237q25 25 53 -4l234 -233
q32 -28 -4 -64q-37 -37 -70 -12l-188 186l-187 -186q-10 -12 -27 -12z" />
    <glyph glyph-name="ycircumflex" unicode="&#x177;" horiz-adv-x="856" 
d="M643 57q-79 -86 -217 -86q-138 1 -236 97t-98 233v682q0 41 41 41h25q41 0 43 -41v-682q0 -93 65 -158t158 -65t156 66t63 157v682q0 41 41 41h25q41 0 43 -41v-1034q0 -136 -97 -233q-97 -95 -238 -95t-235 94q-25 30 0 60l17 14q29 29 66 -3q66 -58 158 -58
q93 0 157 66q63 66 63 155v108zM204 1112q-17 0 -30 12l-18 19q-26 26 0 57l237 238q25 25 53 -4l234 -234q14 -12 13 -30t-13 -29l-14 -15q-27 -27 -60 -2l-188 187l-187 -187q-10 -12 -27 -12z" />
    <glyph glyph-name="Ydieresis" unicode="&#x178;" horiz-adv-x="729" 
d="M92 1382q23 0 36 -4t19 -22l224 -568l217 568q6 18 20 22t35 4h21q47 0 37 -25q-9 -27 -52 -135t-89 -228t-77 -199t-55 -150v-602q0 -43 -43 -43h-23q-41 0 -40 43v600l-273 674q-25 66 23 65h20zM176 1542q0 41 41 41h23q16 0 29 -11t14 -30v-22q0 -43 -43 -43h-23
q-41 0 -41 43v22zM463 1542q0 41 41 41h22q16 0 30 -11t13 -30v-22q0 -43 -43 -43h-22q-41 0 -41 43v22z" />
    <glyph glyph-name="Zacute" unicode="&#x179;" horiz-adv-x="872" 
d="M709 106q39 0 41 -40v-23q0 -15 -12 -29t-29 -14h-545q-18 0 -31 12q-12 12 -12 31v49q0 12 6 25l512 1159h-475q-43 0 -43 43v22q0 41 43 41h543q18 0 30 -12t13 -31v-49q0 -17 -9 -28l-503 -1156h471zM426 1477q-51 0 -6 75l112 201q20 35 34 37t26 2h37q45 0 6 -72
l-115 -209q-20 -35 -51 -34h-43z" />
    <glyph glyph-name="zacute" unicode="&#x17a;" horiz-adv-x="862" 
d="M760 106q41 0 41 -40v-23q0 -43 -41 -43h-617q-18 0 -29 13t-12 30v49q0 14 7 25l534 801h-541q-18 0 -29 13t-12 30v22q1 21 13 31t28 10h617q41 0 41 -41v-49q-2 -23 -10 -33l-519 -795h529zM432 1110h-43q-51 0 -6 76l113 200q20 35 34 37t25 2h37q45 0 6 -71
l-115 -209q-20 -35 -51 -35z" />
    <glyph glyph-name="Zdotaccent" unicode="&#x17b;" horiz-adv-x="897" 
d="M721 106q41 0 41 -40v-23q0 -15 -11 -29t-30 -14h-545q-18 0 -31 12q-12 12 -12 31v49q0 12 6 25l512 1159h-475q-43 0 -43 43v22q0 41 43 41h543q19 0 31 -12t12 -31v-49q0 -16 -8 -28l-504 -1156h471zM412 1542q0 41 41 41h24q17 0 29 -11t12 -30v-24q0 -41 -41 -41
h-24q-41 0 -41 41v24z" />
    <glyph glyph-name="zdotaccent" unicode="&#x17c;" horiz-adv-x="862" 
d="M760 106q41 0 41 -40v-23q0 -43 -41 -43h-617q-18 0 -29 13t-12 30v49q0 14 7 25l534 801h-541q-18 0 -29 13t-12 30v22q1 21 13 31t28 10h617q41 0 41 -41v-49q-2 -23 -10 -33l-519 -795h529zM362 1176q0 39 41 41h25q16 1 28 -11t13 -30v-25q0 -41 -41 -41h-25
q-41 0 -41 41v25z" />
    <glyph glyph-name="Zcaron" unicode="&#x17d;" horiz-adv-x="702" 
d="M625 106q39 0 41 -40v-23q0 -15 -12 -29t-29 -14h-545q-18 0 -31 12q-12 12 -12 31v49q0 12 6 25l512 1159h-475q-43 0 -43 43v22q0 41 43 41h543q18 0 30 -12t13 -31v-49q0 -17 -9 -28l-503 -1156h471zM162 1829q18 0 28 -12l187 -187l188 187q31 25 60 -2l14 -15
q12 -12 13 -30t-13 -29l-233 -234q-29 -29 -54 -4l-237 238q-26 31 0 57l18 19q11 12 29 12z" />
    <glyph glyph-name="zcaron" unicode="&#x17e;" horiz-adv-x="833" 
d="M745 106q41 0 41 -40v-23q0 -43 -41 -43h-616q-18 0 -30 13q-11 13 -11 30v49q0 14 6 25l535 801h-541q-18 0 -30 13q-11 13 -11 30v22q0 21 12 31t29 10h617q41 0 40 -41v-49q-2 -23 -10 -33l-518 -795h528zM202 1460q18 0 27 -12l187 -186l188 186q31 25 60 -2
q45 -45 14 -74l-234 -233q-29 -29 -53 -4l-237 237q-26 32 0 58l18 18q12 12 30 12z" />
    <glyph glyph-name="florin" unicode="&#x192;" horiz-adv-x="602" 
d="M549 958q41 0 41 -40v-23q0 -16 -11.5 -29.5t-29.5 -13.5h-195v-891q0 -126 -85 -220t-214 -106q-16 0 -28.5 10.5t-12.5 30.5v25q0 36 41 40q79 6 136 69.5t57 150.5v891h-150q-18 0 -29.5 13.5t-11.5 29.5v23q0 40 41 40h150v123q0 129 86.5 221.5t214.5 104.5
q16 0 28.5 -10.5t12.5 -30.5v-23q0 -16 -11.5 -29.5t-29.5 -13.5q-84 -10 -139.5 -72.5t-55.5 -146.5v-123h195z" />
    <glyph glyph-name="aeacute" unicode="&#x1fd;" horiz-adv-x="1308" 
d="M362 623h222q0 266 -126 306q-42 13 -112 14t-149 -66q-33 -27 -60 0l-14 16q-10 11 -12 29t10 30q41 47 107 72t134 25q203 0 277 -156q54 90 146 130q60 26 128 26q140 0 236 -101t94 -278v-95q0 -18 -12 -30t-31 -13h-508v-227q0 -91 66 -157t155 -66q176 0 215 143
q6 23 14 35t36 12h22q16 0 26 -11t11 -30q-21 -105 -110 -179t-216 -76q-127 -1 -221 86v-19q0 -43 -43 -43h-22q-41 0 -41 43v23q-48 -77 -222 -89q-135 0 -233 96t-97 232t98 227q98 91 232 91zM362 514q-94 0 -156 -59q-63 -59 -64 -150t63 -157t156 -66q93 0 158 56
t65 167v209h-222zM1139 637q0 157 -64 234t-157 77t-158 -74q-64 -74 -66 -237h445zM657 1112h-43q-51 0 -6 76l113 201q21 35 35 37t24 1h37q45 0 6 -71l-114 -209q-20 -35 -52 -35z" />
    <glyph glyph-name="circumflex" unicode="&#x2c6;" horiz-adv-x="618" 
d="M285 1534q25 25 53 -4l233 -234q32 -27 -6 -65t-67 -10l-189 186l-186 -186q-9 -13 -27 -13t-30 13l-19 18q-26 26 0 57z" />
    <glyph glyph-name="caron" unicode="&#x2c7;" horiz-adv-x="616" 
d="M92 1763q18 0 29 -12l186 -186l189 186q30 25 59 -2q46 -46 14 -74l-233 -233q-29 -29 -53 -4l-238 237q-26 31 0 58l18 18q11 12 29 12z" />
    <glyph glyph-name="breve" unicode="&#x2d8;" horiz-adv-x="413" 
d="M256 1683q0 41 41 41h22q16 0 29.5 -11t13.5 -30v-2q0 -66 -45 -110.5t-110.5 -44.5t-110.5 45t-45 110v2q0 16 10.5 28.5t30.5 12.5h23q16 0 29.5 -12t13.5 -32t14 -34t34.5 -14t35 14.5t14.5 34.5v2z" />
    <glyph glyph-name="dotaccent" unicode="&#x2d9;" horiz-adv-x="253" 
d="M74 1341q0 41 41 41h24q16 0 28.5 -11t12.5 -30v-24q0 -41 -41 -41h-24q-41 0 -41 41v24z" />
    <glyph glyph-name="ring" unicode="&#x2da;" horiz-adv-x="540" 
d="M225 1681.5q0 -20.5 14.5 -35t35 -14.5t35 14.5t14.5 35t-14.5 35t-35 14.5t-35 -14.5t-14.5 -35zM274.5 1837q65.5 0 110.5 -46t45 -111t-45 -109.5t-110.5 -44.5t-110.5 45t-45 109t45 110.5t110.5 46.5z" />
    <glyph glyph-name="ogonek" unicode="&#x2db;" horiz-adv-x="331" 
d="M200 -293q24 0 36 -13t12 -30v-22q0 -20 -12.5 -30.5t-28.5 -10.5q-76 0 -128 51.5t-52 117.5t31.5 111t82.5 66v106q0 41 43 41h23q41 0 41 -41v-159q0 -16 -10.5 -28.5t-30.5 -12.5h-6q-29 -4 -48.5 -24.5t-19.5 -50.5t21.5 -50.5t45.5 -20.5z" />
    <glyph glyph-name="tilde" unicode="&#x2dc;" horiz-adv-x="657" 
d="M433 1479q-40 0 -67.5 18.5t-50 41t-41 40.5t-46.5 18t-45 -24.5t-31 -54.5q-12 -37 -27.5 -39.5t-37.5 12.5q-22 14 -19.5 32.5t10.5 37.5q29 72 72.5 98.5t79.5 26.5q52 0 66 -14l59 -59q44 -44 71 -44t44.5 24.5t31.5 54.5t26.5 34.5t42.5 -8.5q29 -13 24 -37.5
t-29 -60.5t-58.5 -66.5t-74.5 -30.5z" />
    <glyph glyph-name="Wgrave" unicode="&#x1e80;" horiz-adv-x="1312" 
d="M80 1341q0 41 41 41h22q15 0 29 -11t14 -30v-1050q0 -87 60 -149t144 -62q85 0 148 61q64 61 64 150v1048q0 15 11 29t32 14h21q16 0 29 -11t14 -32v-1048q0 -87 62 -149t146 -62t146 64q61 64 61 147v1050q0 17 10 29t31 12h23q16 0 30 -11t13 -30v-1050
q0 -129 -91 -222q-92 -92 -222 -92q-167 0 -261 123q-71 -78 -139 -100t-130 -23q-126 0 -217 92q-92 92 -91 222v1050zM510 1845q10 0 24 -2t35 -37l113 -200q45 -76 -6 -76h-43q-31 0 -51 35l-115 209q-39 72 6 71h37z" />
    <glyph glyph-name="wgrave" unicode="&#x1e81;" horiz-adv-x="1343" 
d="M621 979q0 41 41 41h22q16 0 30 -11t13 -30v-678q1 -92 67 -158q66 -65 154 -65t156 67q67 67 67 156v678q1 17 11 29t30 12h23q15 0 29 -11t14 -30v-678q0 -134 -95 -232t-233 -98q-72 0 -150 36t-124 104q-49 -68 -128 -104q-80 -36 -138 -36q-121 0 -231 84
q-111 84 -109 244v680q0 41 41 41h22q15 0 29 -11t14 -30v-678q0 -97 65 -160t155 -63t157 67t68 156v678zM532 1425q10 0 24 -2t36 -37l113 -200q45 -76 -7 -76h-43q-31 0 -51 35l-115 209q-39 72 7 71h36z" />
    <glyph glyph-name="Wacute" unicode="&#x1e82;" horiz-adv-x="1323" 
d="M86 1341q0 41 41 41h23q16 0 29 -11t14 -30v-1050q0 -87 59 -149t144 -62t148 61q64 61 64 150v1048q0 15 12 29t31 14h21q16 0 29 -11t14 -32v-1048q0 -87 62 -149t147 -62t146 64q60 64 60 147v1050q0 17 10 29t31 12h23q16 0 30 -11t13 -30v-1050q0 -129 -91 -222
q-92 -92 -222 -92q-169 0 -260 123q-114 -123 -254 -123q-140 -1 -232 91t-92 223v1050zM633 1479q-51 0 -6 75l112 201q21 35 35 37t25 2h37q45 0 6 -72l-115 -209q-20 -35 -51 -34h-43z" />
    <glyph glyph-name="wacute" unicode="&#x1e83;" horiz-adv-x="1327" 
d="M61 979q1 17 11 29t30 12h23q15 0 29 -11t14 -30v-678q0 -98 65 -161q65 -62 155 -62t157 67t67 156v678q0 17 10 29t31 12h23q16 0 30 -11t13 -30v-678q0 -91 66 -157t155 -66t156 67t67 156v678q1 17 11 29t30 12h23q16 0 29 -11t14 -30v-678q0 -134 -95 -232t-233 -98
q-72 0 -150 36t-124 104q-49 -68 -128 -104q-80 -36 -138 -36q-121 -1 -231 83t-110 245v680zM682 1110h-43q-51 0 -6 76l112 200q21 35 35 37t25 2h37q45 0 6 -71l-115 -209q-20 -35 -51 -35z" />
    <glyph glyph-name="Wdieresis" unicode="&#x1e84;" horiz-adv-x="1333" 
d="M90 1341q0 41 41 41h23q16 0 29 -11t14 -30v-1050q0 -87 59 -149t144 -62t148 61q64 61 64 150v1048q0 15 12 29t31 14h21q16 0 30 -11t13 -32v-1048q0 -87 62 -149t147 -62t145 63t62 148v1050q0 41 41 41h22q16 0 30 -11t13 -30v-1050q1 -131 -91 -223t-222 -91
q-169 0 -260 123q-114 -123 -253 -123q-140 -1 -232 91q-93 92 -93 223v1050zM469 1591q0 41 41 41h22q16 0 30 -11t13 -30v-22q0 -43 -43 -43h-22q-41 0 -41 43v22zM756 1591q0 41 41 41h22q15 0 29 -11t14 -30v-22q0 -43 -43 -43h-22q-41 0 -41 43v22z" />
    <glyph glyph-name="wdieresis" unicode="&#x1e85;" horiz-adv-x="1333" 
d="M63 979q1 17 11 29t30 12h23q15 0 29 -11t14 -30v-678q0 -99 65 -161t155 -62t157 67t67 156v678q0 17 10 29t31 12h23q16 0 30 -11t13 -30v-678q0 -91 66 -157t155 -66t156 67t67 156v678q1 17 11 29t30 12h23q16 0 29 -11t14 -30v-678q0 -134 -95 -232t-233 -98
q-72 0 -150 36t-124 104q-49 -68 -128 -104q-80 -36 -138 -36q-121 -1 -231 83t-110 245v680zM469 1239q0 41 41 41h22q16 0 30 -11t13 -30v-22q0 -43 -43 -43h-22q-41 0 -41 43v22zM756 1239q0 41 41 41h22q15 0 29 -11t14 -30v-22q0 -43 -43 -43h-22q-41 0 -41 43v22z" />
    <glyph glyph-name="Ygrave" unicode="&#x1ef2;" horiz-adv-x="727" 
d="M88 1382q23 0 36 -4t19 -22l224 -568l217 568q6 18 20 22t35 4h20q47 0 38 -26t-52 -134t-89 -228t-83 -213t-49 -136v-602q0 -43 -43 -43h-23q-41 0 -41 43v600l-272 674q-25 66 23 65h20zM193 1798h36q11 0 25 -2t35 -37l112 -200q45 -76 -6 -76h-43q-31 0 -51 35
l-115 208q-39 72 7 72z" />
    <glyph glyph-name="ygrave" unicode="&#x1ef3;" horiz-adv-x="837" 
d="M633 57q-79 -86 -217 -86q-138 1 -236 97t-98 233v682q0 41 41 41h24q41 0 43 -41v-682q0 -91 66 -157t158 -66q93 0 155 65t64 158v682q0 41 41 41h24q41 0 43 -41v-1034q0 -137 -96 -233q-97 -95 -238 -95t-235 94q-25 30 0 60l16 14q29 29 67 -3q66 -58 159 -58
t155 65t64 156v108zM289 1427q10 0 24 -2t35 -36l113 -201q45 -76 -6 -76h-43q-31 0 -52 35l-114 209q-39 72 6 71h37z" />
    <glyph glyph-name="endash" unicode="&#x2013;" horiz-adv-x="985" 
d="M907 612q16 0 28.5 -10t12.5 -31v-22q0 -16 -11 -29.5t-30 -13.5h-839q-43 0 -43 43v22q0 41 43 41h839z" />
    <glyph glyph-name="emdash" unicode="&#x2014;" horiz-adv-x="1437" 
d="M1317 612q16 0 28.5 -10t12.5 -31v-22q0 -16 -11.5 -29.5t-29.5 -13.5h-1192q-43 0 -43 43v22q0 41 43 41h1192z" />
    <glyph glyph-name="quoteleft" unicode="&#x2018;" horiz-adv-x="233" 
d="M172 1192v-25q0 -41 -41 -41h-29q-16 0 -28.5 10.5t-12.5 30.5v66q0 75 30.5 118.5t49.5 24.5t16 -28t-17.5 -28.5t-14.5 -45.5v-21q0 -10 1 -15t11 -5q35 -4 35 -41z" />
    <glyph glyph-name="quoteright" unicode="&#x2019;" horiz-adv-x="229" 
d="M57 1317v24q0 41 41 41h29q16 0 28.5 -10t12.5 -31v-65q0 -77 -31 -120t-49 -24t-15 28t17 30t14 45v20q0 10 -1 15.5t-11 5.5q-35 4 -35 41z" />
    <glyph glyph-name="quotesinglbase" unicode="&#x201a;" horiz-adv-x="221" 
d="M51 41v25q0 41 41 40h29q41 0 41 -40v-66q0 -75 -31 -119t-49 -25t-15 28.5t17 29.5t14 45v21q0 10 -1 15t-11 5q-35 4 -35 41z" />
    <glyph glyph-name="quotedblleft" unicode="&#x201c;" horiz-adv-x="440" 
d="M184 1192v-25q0 -41 -41 -41h-28q-16 0 -28.5 10.5t-12.5 30.5v66q0 77 30.5 118.5t49.5 24.5q19 -19 15.5 -28t-18 -29.5t-14.5 -44.5v-21q0 -10 1 -15t12 -5q34 -4 34 -41zM369 1192v-25q0 -41 -41 -41h-29q-16 0 -28.5 10.5t-12.5 30.5v66q0 77 30.5 119.5t49.5 23.5
t15.5 -28t-17.5 -29t-14 -45v-21q0 -10 1 -15t11 -5q35 -4 35 -41z" />
    <glyph glyph-name="quotedblright" unicode="&#x201d;" horiz-adv-x="440" 
d="M256 1319v24q0 41 41 41h29q16 0 28.5 -10t12.5 -31v-65q0 -75 -31 -119t-50 -25t-15.5 28t18 29.5t14.5 45.5v20q0 10 -1 15.5t-11 5.5q-35 4 -35 41zM72 1319v24q0 41 41 41h28q16 0 28.5 -10t12.5 -31v-65q0 -77 -30.5 -119.5t-49.5 -23.5t-15.5 27.5t18 30t14.5 44.5
v20q0 10 -1 15.5t-12 5.5q-34 4 -34 41z" />
    <glyph glyph-name="quotedblbase" unicode="&#x201e;" horiz-adv-x="432" 
d="M66 41v25q0 41 40 40h29q41 0 41 -40v-66q0 -77 -31 -120t-49 -24t-15 28.5t17.5 30t14.5 44.5v21q0 10 -1 15t-12 5q-34 4 -34 41zM250 41v25q0 41 41 40h28q41 0 41 -40v-66q0 -77 -31 -119.5t-49 -24.5q-18 19 -15 28.5t17.5 29t14.5 45.5v21q0 10 -1 15t-11 5
q-35 4 -35 41z" />
    <glyph glyph-name="dagger" unicode="&#x2020;" horiz-adv-x="669" 
d="M281 1409q0 41 41 41h22q16 0 29.5 -11.5t13.5 -29.5v-797h236q16 0 28.5 -10t12.5 -31v-22q0 -16 -11.5 -29.5t-29.5 -13.5h-236v-887q0 -43 -43 -43h-22q-41 0 -41 43v887h-232q-43 0 -43 43v22q0 41 43 41h232v797z" />
    <glyph glyph-name="daggerdbl" unicode="&#x2021;" horiz-adv-x="673" 
d="M283 1409q0 41 41 41h22q16 0 29.5 -11.5t13.5 -29.5v-623h236q16 0 28.5 -10t12.5 -31v-22q0 -16 -11.5 -29.5t-29.5 -13.5h-236v-332h236q16 0 28.5 -10t12.5 -31v-22q0 -16 -11.5 -29.5t-29.5 -13.5h-236v-623q0 -43 -43 -43h-22q-41 0 -41 43v623h-232q-43 0 -43 43
v22q0 41 43 41h232v332h-232q-43 0 -43 43v22q0 41 43 41h232v623z" />
    <glyph glyph-name="bullet" unicode="&#x2022;" horiz-adv-x="227" 
d="M63 581.5q0 22.5 15.5 38t38 15.5t37 -15.5t14.5 -38t-14.5 -37t-37 -14.5t-38 14.5t-15.5 37z" />
    <glyph glyph-name="onedotenleader" unicode="&#x2024;" horiz-adv-x="253" 
d="M74 66q0 16 10 28t31 12h24q16 0 28.5 -11t12.5 -29v-25q0 -41 -41 -41h-24q-41 0 -41 41v25z" />
    <glyph glyph-name="twodotenleader" unicode="&#x2025;" horiz-adv-x="450" 
d="M264 66q0 16 10.5 28t30.5 12h25q16 0 28.5 -11t12.5 -29v-25q0 -41 -41 -41h-25q-41 0 -41 41v25zM78 66q0 16 10 28t31 12h24q16 0 28.5 -11t12.5 -29v-25q0 -41 -41 -41h-24q-41 0 -41 41v25z" />
    <glyph glyph-name="ellipsis" unicode="&#x2026;" horiz-adv-x="634" 
d="M80 66q0 16 10 28t31 12h22q16 0 29.5 -11t13.5 -29v-23q0 -43 -43 -43h-22q-41 0 -41 43v23zM264 66q0 16 10.5 28t30.5 12h23q16 0 29.5 -11t13.5 -29v-23q0 -43 -43 -43h-23q-41 0 -41 43v23zM449 66q0 40 40 40h23q16 0 29.5 -11t13.5 -29v-23q0 -43 -43 -43h-23
q-41 0 -40 43v23z" />
    <glyph glyph-name="perthousand" unicode="&#x2030;" horiz-adv-x="1611" 
d="M866 1382h27q29 0 34 -10t-5 -39l-508 -1304q-12 -29 -45 -29h-39q-37 0 -23 39l502 1302q10 27 22.5 34t34.5 7zM57 1149q0 104 76 180t181 76t180 -76.5t75 -179.5v-248q0 -103 -75 -179.5t-180 -76.5t-181 76t-76 180v248zM459 1149q0 59 -43.5 104t-103.5 45
t-104 -45t-44 -104v-248q0 -59 44 -103t104 -44t103.5 44t43.5 103v248zM662 227v248q0 107 76 181.5t189 74.5t189 -98q76 98 191 98t191.5 -75t76.5 -181v-248q0 -104 -76 -180t-193 -76t-190 99q-74 -99 -188 -99q-115 0 -190.5 75.5t-75.5 180.5zM916 625
q-59 0 -103.5 -45t-44.5 -105v-248q0 -59 44 -103t104 -44t103.5 44t43.5 103v248q-4 66 -46 108t-101 42zM1464 475q0 59 -43 104.5t-103 45.5t-104.5 -45t-44.5 -105v-248q4 -66 47.5 -106.5t102.5 -40.5t102 44t43 103v248z" />
    <glyph glyph-name="guilsinglleft" unicode="&#x2039;" horiz-adv-x="671" 
d="M29 498q-25 25 4 53l481 479q12 14 30 12t29 -14l15 -14q27 -27 2 -60l-432 -434l432 -432q12 -12 10 -30t-12 -27l-17 -17q-28 -28 -57 -2z" />
    <glyph glyph-name="guilsinglright" unicode="&#x203a;" horiz-adv-x="671" 
d="M158 12q-10 -10 -26 -11t-32 13l-16 17q-10 10 -12 27t10 30l432 432l-432 434q-25 31 2 60q46 46 74 16l481 -479q29 -29 4 -53z" />
    <glyph glyph-name="exclamdbl" unicode="&#x203c;" horiz-adv-x="473" 
d="M305 1409q0 16 10.5 28.5t30.5 12.5h23q16 0 29.5 -11.5t13.5 -29.5v-1010q0 -41 -43 -41h-23q-41 0 -41 41v1010zM305 68q0 16 10.5 28.5t30.5 12.5h25q16 0 28.5 -11.5t12.5 -29.5v-27q0 -41 -41 -41h-25q-41 0 -41 41v27zM59 1409q0 16 10.5 28.5t30.5 12.5h23
q16 0 29.5 -11.5t13.5 -29.5v-1010q0 -41 -43 -41h-23q-41 0 -41 41v1010zM59 68q0 16 10.5 28.5t30.5 12.5h25q16 0 28.5 -11.5t12.5 -29.5v-27q0 -41 -41 -41h-25q-41 0 -41 41v27z" />
    <glyph glyph-name="Euro" unicode="&#x20ac;" horiz-adv-x="860" 
d="M801 1117q0 -41 -10.5 -53.5t-32.5 -12.5h-17q-14 0 -27.5 11t-13.5 42t-16 69.5t-46 67.5t-69 45.5t-102.5 16.5t-127 -61.5t-63.5 -149.5v-162h377q16 0 28.5 -10.5t12.5 -30.5v-23q0 -16 -11 -29.5t-30 -13.5h-377v-209h377q16 0 28.5 -10t12.5 -31v-22
q0 -16 -11 -29.5t-30 -13.5h-377v-217q0 -90 64 -150.5t148.5 -60.5t148 60t63.5 151q0 16 10.5 28.5t32.5 12.5h17q18 0 29.5 -11.5t11.5 -53.5t-24.5 -99t-91.5 -124t-202 -67t-222 89t-87 225v217h-94q-43 0 -43 43v22q0 41 43 41h94v209h-94q-43 0 -43 43v23q0 41 43 41
h94v162q0 131 91 222t222.5 91t198 -66.5t91 -123.5t24.5 -98z" />
    <glyph glyph-name="ff" unicode="&#xfb00;" horiz-adv-x="1079" 
d="M43 918q0 40 41 40h149v123q0 125 87 220q87 94 215 106q16 0 28 -10t12 -31v-23q0 -16 -11 -29t-29 -14q-83 -10 -139 -72t-56 -147v-123h344v123q0 124 88 223q85 91 213 103q17 0 29 -10t12 -31v-23q0 -16 -11 -29t-30 -14q-84 -10 -139 -72t-55 -147v-123h194
q41 0 41 -40v-23q0 -15 -11 -29t-30 -14h-194v-811q1 -17 -13 -29t-30 -12h-23q-41 0 -41 41v811h-344v-811q0 -17 -13 -29t-30 -12h-23q-39 0 -41 41v811h-149q-18 0 -30 13q-11 13 -11 30v23z" />
    <glyph glyph-name="glyph238" horiz-adv-x="0" 
 />
    <glyph glyph-name="percent" horiz-adv-x="1216" 
d="M858 1382h27q29 0 34 -10t-6 -39l-507 -1304q-12 -29 -46 -29h-38q-37 0 -23 39l502 1302q10 27 22.5 34t34.5 7zM653 475q0 106 76.5 181t180.5 75t179.5 -75.5t75.5 -180.5v-248q0 -103 -75 -179.5t-180 -76.5t-181 76t-76 180v248zM1055 475q0 59 -43.5 104.5
t-103.5 45.5t-104 -45t-44 -105v-248q0 -59 44 -103t104 -44t103.5 44t43.5 103v248zM49 1149q0 104 76 180t181 76t180 -76.5t75 -179.5v-248q0 -103 -75 -179.5t-180 -76.5t-181 76t-76 180v248zM451 1149q0 59 -43.5 104t-103.5 45t-104 -45t-44 -104v-248q0 -59 44 -103
t104 -44t103.5 44t43.5 103v248z" />
    </font>
</defs>
</svg>
