<?xml version="1.0" standalone="no"?>
<!DOCTYPE svg PUBLIC "-//W3C//DTD SVG 1.1//EN" "http://www.w3.org/Graphics/SVG/1.1/DTD/svg11.dtd" >
<svg xmlns="http://www.w3.org/2000/svg">
<metadata>
Created by FontPrep 20130207 at Fri Aug  7 10:25:04 2015
 By gumar
Copyright (c) 2007 by Studio Kmzero. All rights reserved.
</metadata>
<defs>
<font id="b21d7344982455882a8f0ab69cb41e22" horiz-adv-x='1024' >
  <font-face 
    font-family="Sugo"
    font-weight="400"
    font-stretch="normal"
    units-per-em="2048"
    panose-1="2 0 5 6 0 0 0 2 0 4"
    ascent="1638"
    descent="-410"
    x-height="1024"
    cap-height="1382"
    bbox="-94 -473 1538 1927"
    underline-thickness="102"
    underline-position="-102"
    unicode-range="U+0020-FB06"
  />
<missing-glyph horiz-adv-x="583" 
 />
    <glyph glyph-name=".notdef" horiz-adv-x="583" 
 />
    <glyph glyph-name=".null" horiz-adv-x="0" 
 />
    <glyph glyph-name="nonmarkingreturn" horiz-adv-x="681" 
 />
    <glyph glyph-name="space" unicode=" " horiz-adv-x="583" 
 />
    <glyph glyph-name="exclam" unicode="!" horiz-adv-x="421" 
d="M84 1341q0 41 45 41h168q41 0 41 -41v-999q0 -16 -10.5 -28.5t-30.5 -12.5h-168q-14 0 -29.5 11.5t-15.5 29.5v999zM84 213q0 41 41 41h172q16 0 28.5 -10.5t12.5 -30.5v-168q0 -14 -11.5 -29.5t-29.5 -15.5h-172q-41 0 -41 45v168z" />
    <glyph glyph-name="quotedbl" unicode="&#x22;" horiz-adv-x="542" 
d="M287 1341q0 41 41 41h90q41 0 41 -41v-360q0 -41 -41 -41h-90q-41 0 -41 41v360zM82 1341q0 41 41 41h90q41 0 41 -41v-360q0 -41 -41 -41h-90q-41 0 -41 41v360z" />
    <glyph glyph-name="numbersign" unicode="#" horiz-adv-x="970" 
d="M428 623h115v114h-115v-114zM543 1341q0 41 41 41h168q14 0 29.5 -11t15.5 -30v-350h73q16 0 28.5 -10t12.5 -31v-168q0 -14 -11 -29.5t-30 -15.5h-73v-114h73q16 0 28.5 -10.5t12.5 -30.5v-168q0 -14 -11 -29.5t-30 -15.5h-73v-328q0 -41 -45 -41h-168q-41 0 -41 41v328
h-115v-328q0 -41 -45 -41h-168q-41 0 -41 41v328h-74q-41 0 -41 45v168q0 41 41 41h74v114h-74q-41 0 -41 45v168q0 41 41 41h74v350q0 16 10.5 28.5t30.5 12.5h168q14 0 29.5 -11t15.5 -30v-350h115v350z" />
    <glyph glyph-name="dollar" unicode="$" horiz-adv-x="813" 
d="M281 1458q0 41 41 41h167q14 0 30 -11t16 -30v-80q100 -39 162.5 -128t62.5 -206v-59q0 -20 -14.5 -32.5t-30.5 -12.5h-166q-16 0 -29.5 11.5t-13.5 31.5v61q0 43 -28.5 74t-72 31t-72 -31t-28.5 -78t33 -79l315 -367q65 -73 88 -126t23 -118q0 -122 -65.5 -217
t-163.5 -133v-76q0 -41 -46 -41h-167q-41 0 -41 41v76q-104 39 -169 130t-65 208v65q0 23 15.5 33t27.5 10h168q16 0 29.5 -10t13.5 -33v-65q0 -43 30.5 -74t74 -31t74 30.5t30.5 62.5t-14.5 54.5t-32.5 45.5l-316 365q-96 112 -96 241t62.5 219t167.5 129v78z" />
    <glyph glyph-name="uni0025" unicode="%" horiz-adv-x="1271" 
d="M1032 485q0 31 -21.5 53.5t-52 22.5t-53 -22.5t-22.5 -53.5v-247q0 -31 22.5 -53.5t53 -22.5t52 22.5t21.5 53.5v247zM702 485q0 106 76 181t180 75t180 -74.5t76 -181.5v-247q0 -107 -76 -181.5t-180 -74.5t-180 75t-76 181v247zM387 1147q0 31 -21.5 53.5t-52 22.5
t-53 -22.5t-22.5 -53.5v-248q0 -31 22.5 -53.5t53 -22.5t52 22.5t21.5 53.5v248zM57 1147q0 104 76 180t181 76t180 -76.5t75 -179.5v-248q0 -103 -75 -179.5t-180 -76.5t-181 76t-76 180v248zM989 1382q47 0 47 -28q0 -10 -2 -13l-588 -1300q-10 -23 -19 -32t-30 -9h-135
q-39 0 -39 27q0 -6 4 14l588 1300q20 41 59 41h115z" />
    <glyph glyph-name="ampersand" unicode="&#x26;" horiz-adv-x="937" 
d="M408 565q-43 0 -74 -30.5t-31 -73.5v-123q0 -43 31 -74t74 -31t73.5 31t30.5 74v227h-104zM49 1024q0 151 105 254.5t254 103.5h104q16 0 28.5 -11t12.5 -32v-170q0 -16 -11.5 -28.5t-29.5 -12.5h-104q-43 0 -74 -30.5t-31 -73.5v-100q0 -43 31 -74t74 -31h104v80
q0 16 11.5 28.5t31.5 12.5h170q37 0 41 -41v-80h80q16 0 28.5 -11t12.5 -32v-170q0 -37 -41 -41h-80v-227q0 -151 -105 -254.5t-253.5 -103.5t-253.5 103.5t-105 254.5v123q0 135 84 231q-84 96 -84 232v100z" />
    <glyph glyph-name="quotesingle" unicode="'" horiz-adv-x="382" 
d="M84 1341q0 41 41 41h131q41 0 41 -41v-360q0 -41 -41 -41h-131q-41 0 -41 41v360z" />
    <glyph glyph-name="parenleft" unicode="(" horiz-adv-x="561" 
d="M72 1024q0 150 104 254t254 104h16q41 -4 41 -41v-165q0 -20 -12 -34t-29 -14h-16q-43 0 -73.5 -30.5t-30.5 -73.5v-1022q0 -43 30.5 -73.5t73.5 -30.5h16q16 0 28.5 -13.5t12.5 -34.5v-165q0 -37 -41 -41h-16q-150 0 -254 104t-104 254v1022z" />
    <glyph glyph-name="parenright" unicode=")" horiz-adv-x="561" 
d="M72 1341q0 37 41 41h16q150 0 254 -104t104 -254v-1022q0 -150 -104 -254t-254 -104h-16q-41 4 -41 41v165q0 20 12 34t29 14h16q43 0 73.5 30.5t30.5 73.5v1022q0 43 -30.5 73.5t-73.5 30.5h-16q-16 0 -28.5 13.5t-12.5 34.5v165z" />
    <glyph glyph-name="asterisk" unicode="*" horiz-adv-x="823" 
d="M729 641q16 0 28.5 -10t12.5 -31v-168q0 -14 -11 -29.5t-30 -15.5h-98l49 -84q6 -9 6 -27t-20 -30l-146 -84q-10 -6 -28 -6t-31 20l-49 84l-50 -84q-12 -20 -29 -20t-30 6l-145 86q-23 12 -23 30t8 25l47 84h-96q-41 0 -41 45v168q0 41 41 41h96l-47 84q-6 7 -6 25t25 34
l145 84q7 6 23 6t32 -22l50 -86l49 86q7 20 25 20t30 -4l146 -86q23 -12 22 -41q-2 -2 -2 -3l-2 -13l-49 -84h98z" />
    <glyph glyph-name="plus" unicode="+" horiz-adv-x="780" 
d="M516 197q0 -41 -41 -41h-168q-14 0 -29.5 11t-15.5 30v190h-190q-41 0 -41 45v168q0 41 41 41h190v190q0 41 45 41h168q41 0 41 -41v-190h191q16 0 28.5 -10t12.5 -31v-168q0 -14 -11.5 -29.5t-29.5 -15.5h-191v-190z" />
    <glyph glyph-name="comma" unicode="," horiz-adv-x="387" 
d="M72 213q0 41 41 41h172q16 0 28.5 -10.5t12.5 -30.5v-213q0 -88 -40 -166t-112 -125q-2 -2 -17 -2t-24 12l-55 54q-28 28 13.5 73t41.5 93v41q0 20 -20 20h-7q-35 4 -34 41v172z" />
    <glyph glyph-name="hyphen" unicode="-" horiz-adv-x="880" 
d="M82 600q0 41 41 41h635q16 0 28.5 -10t12.5 -31v-168q0 -14 -11.5 -29.5t-29.5 -15.5h-635q-41 0 -41 45v168z" />
    <glyph glyph-name="period" unicode="." horiz-adv-x="417" 
d="M82 213q0 41 41 41h172q16 0 28.5 -10.5t12.5 -30.5v-168q0 -14 -11.5 -29.5t-29.5 -15.5h-172q-41 0 -41 45v168z" />
    <glyph glyph-name="slash" unicode="/" horiz-adv-x="903" 
d="M842 1382q47 0 47 -28q0 -10 -2 -13l-588 -1300q-10 -23 -19.5 -32t-29.5 -9h-197q-39 0 -39 27q0 -6 4 14l588 1300q20 41 60 41h176z" />
    <glyph glyph-name="zero" unicode="0" horiz-adv-x="860" 
d="M535 1044q0 43 -31 74t-74 31t-73.5 -31t-30.5 -74v-706q0 -43 30.5 -74t73.5 -31t74 31t31 74v706zM72 1044q0 149 103.5 254t254.5 105t254.5 -105t103.5 -254v-706q0 -150 -104 -254t-254 -104t-254 104t-104 254v706z" />
    <glyph glyph-name="one" unicode="1" horiz-adv-x="544" 
d="M55 1241q0 35 41 57l152 76q8 8 28 8h168q45 0 45 -41v-1300q0 -18 -12 -29.5t-31 -11.5h-170q-23 0 -31.5 12.5t-8.5 26.5v1077l-127 -63q-7 -2 -11 -2t-13 -1t-19.5 12t-10.5 30v149z" />
    <glyph glyph-name="two" unicode="2" 
d="M70 1044q0 149 103.5 254t254.5 105t254.5 -105t103.5 -254v-124q0 -116 -77 -232l-310 -434h346q16 0 28.5 -10.5t12.5 -30.5v-168q0 -14 -11 -29.5t-30 -15.5h-634q-41 0 -41 45v174q0 8 10 25l446 641q6 8 6 35v124q0 43 -30.5 74t-73.5 31t-73.5 -31t-30.5 -74v-63
q0 -16 -11.5 -28.5t-31.5 -12.5h-170q-37 0 -41 41v63z" />
    <glyph glyph-name="three" unicode="3" horiz-adv-x="839" 
d="M778 502v-164q0 -150 -104 -254t-254 -104t-254.5 104.5t-104.5 253.5v47q0 16 11.5 28.5t31.5 12.5h170q37 0 41 -41v-47q0 -43 31 -74t74 -31t73.5 31t30.5 74v164q0 43 -30.5 73.5t-73.5 30.5h-21q-16 0 -28.5 11.5t-12.5 31.5v150q0 37 41 41h21q43 0 73.5 30.5
t30.5 73.5v100q0 43 -30.5 74t-73.5 31t-74 -31t-31 -74v-63q0 -16 -11 -28.5t-32 -12.5h-170q-37 0 -41 41v63q0 148 104 253.5t255 105.5t254.5 -105t103.5 -254v-100q0 -110 -84 -211q84 -101 84 -231z" />
    <glyph glyph-name="four" unicode="4" horiz-adv-x="821" 
d="M449 446v367l-138 -367h138zM733 446q47 0 47 -45v-168q0 -18 -13 -29t-34 -11h-31v-152q0 -41 -45 -41h-168q-41 0 -40 41v152h-365q-16 0 -29.5 10t-13.5 30v168q0 12 6 31l402 909q20 41 47 41h161q14 0 29.5 -11t15.5 -30v-895h31z" />
    <glyph glyph-name="five" unicode="5" horiz-adv-x="860" 
d="M374 686q-48 0 -48 -43q-2 -18 -15.5 -30.5t-29.5 -12.5h-162q-20 0 -33.5 12.5t-13.5 30.5v692q0 18 13 32.5t34 14.5h608q18 0 30.5 -15t12.5 -32v-164q0 -43 -43 -43h-401v-202q44 14 112 14q141 0 245.5 -106t104.5 -252v-244q0 -150 -104 -254t-254 -104t-254 104
t-104 254v68q0 16 11 28t32 12h170q23 0 31 -15t10 -39.5t4 -51.5t15 -67t85 -40q43 0 74 31t31 74v244q0 41 -30.5 70.5t-56.5 31.5t-74 2z" />
    <glyph glyph-name="six" unicode="6" horiz-adv-x="851" 
d="M530 582q0 43 -30.5 73.5t-72.5 30.5t-71.5 -27.5t-33.5 -68.5v-252q0 -43 30.5 -74t73.5 -31t73.5 31t30.5 74v244zM784 1044q0 -43 -39 -43h-170q-25 0 -31.5 23t-16 50.5t-30 51t-67.5 23.5t-77.5 -31t-30.5 -74v-120q58 16 118 16t125.5 -27.5t142 -105t76.5 -225.5
v-244q0 -150 -104 -254t-254 -104t-254 104t-104 254v706q0 149 103.5 254t254.5 105t254.5 -105t103.5 -254z" />
    <glyph glyph-name="seven" unicode="7" horiz-adv-x="813" 
d="M94 1128q-47 0 -47 46v167q0 18 13.5 29.5t33.5 11.5h627q16 0 29.5 -10t13.5 -31v-167q0 -16 -6 -31l-363 -1096q-16 -47 -53 -47h-186q-20 0 -32.5 12.5t-12.5 30.5l364 1085h-381z" />
    <glyph glyph-name="eight" unicode="8" horiz-adv-x="851" 
d="M322 965q0 -43 30.5 -74t73.5 -31t73.5 31t30.5 74v79q0 43 -30.5 74t-73.5 31t-73.5 -31t-30.5 -74v-79zM428 606q-45 0 -75.5 -30.5t-30.5 -73.5v-164q0 -43 30.5 -74t73.5 -31t73.5 31t30.5 74v164q0 41 -28.5 72.5t-73.5 31.5zM784 502v-164q0 -150 -104 -254
t-254 -104t-254 104t-104 254v164q0 135 84 231q-84 96 -84 232v79q0 149 103.5 254t254.5 105t254.5 -105t103.5 -254v-79q0 -131 -84 -232q84 -101 84 -231z" />
    <glyph glyph-name="nine" unicode="9" horiz-adv-x="851" 
d="M530 1044q0 43 -30.5 74t-73.5 31t-73.5 -31t-30.5 -74v-243q0 -43 30.5 -74t72.5 -31t71.5 28t33.5 69v251zM68 338q0 43 38 43h170q25 0 35.5 -23.5t20.5 -51t29.5 -50.5t63.5 -23t74.5 31t30.5 74v121q-212 -58 -337 67t-125 275v243q0 149 103.5 254t254.5 105
t254.5 -105t103.5 -254v-706q0 -150 -104 -254t-254 -104t-254 104t-104 254z" />
    <glyph glyph-name="colon" unicode=":" horiz-adv-x="374" 
d="M61 213q0 41 41 41h172q16 0 28 -10t13 -31v-168q0 -13 -11 -29t-30 -16h-172q-41 0 -41 45v168zM61 983q0 41 41 41h172q16 0 28 -10t13 -31v-168q0 -13 -11 -29t-30 -16h-172q-41 0 -41 45v168z" />
    <glyph glyph-name="semicolon" unicode=";" horiz-adv-x="387" 
d="M76 983q0 41 41 41h172q16 0 28 -10t13 -31v-168q0 -13 -12 -29t-29 -16h-172q-41 0 -41 45v168zM70 41v172q0 41 41 41h172q16 0 28 -10t13 -31v-213q0 -88 -40 -166t-112 -125q-2 -2 -17 -2t-24 12l-55 54q-28 28 -3 55q58 63 58 111v41q0 20 -20 20h-7q-34 4 -34 41z
" />
    <glyph glyph-name="less" unicode="&#x3c;" horiz-adv-x="763" 
d="M563 1038q16 0 33 -12l119 -119q12 -12 12 -26t-10 -31l-338 -338l338 -336q10 -16 10 -32t-14 -29l-121 -119q-12 -12 -28 -12t-27 12l-488 489q-14 13 -14 27t14 29l488 487q10 10 26 10z" />
    <glyph glyph-name="equal" unicode="=" horiz-adv-x="882" 
d="M82 784q0 41 41 41h635q16 0 28.5 -10t12.5 -31v-168q0 -14 -11.5 -29.5t-29.5 -15.5h-635q-41 0 -41 45v168zM82 416q0 41 41 41h635q16 0 28.5 -10.5t12.5 -30.5v-168q0 -14 -11.5 -29.5t-29.5 -15.5h-635q-41 0 -41 45v168z" />
    <glyph glyph-name="greater" unicode="&#x3e;" horiz-adv-x="765" 
d="M196 1038q16 0 31 -10l488 -487q14 -13 14 -27t-14 -29l-488 -489q-12 -12 -29 -12t-26 12l-121 119q-16 16 -16 32.5t12 28.5l338 336l-338 338q-10 16 -10 30t12 27l119 119q12 12 28 12z" />
    <glyph glyph-name="question" unicode="?" horiz-adv-x="792" 
d="M246 213q0 41 41 41h172q16 0 28.5 -10.5t12.5 -30.5v-168q0 -14 -11.5 -29.5t-29.5 -15.5h-172q-41 0 -41 45v168zM37 1044q0 149 103.5 254t254.5 105t255 -105.5t104 -253.5v-141q0 -139 -84 -214t-116 -93q-54 -30 -54 -92v-158q0 -20 -13.5 -32.5t-29.5 -12.5h-168
q-20 0 -31.5 14.5t-11.5 30.5v158q0 115 62.5 191.5t148.5 123.5q43 22 43 84v141q0 43 -31 74t-74 31t-73.5 -31t-30.5 -74v-63q0 -16 -11.5 -28.5t-31.5 -12.5h-170q-16 0 -28.5 11.5t-12.5 29.5v63z" />
    <glyph glyph-name="at" unicode="@" horiz-adv-x="1136" 
d="M610 631q0 -43 31 -74t73 -31t71.5 28t33.5 69v135q-4 41 -33.5 68.5t-71.5 27.5t-73 -30.5t-31 -73.5v-119zM322 752v-121q0 -184 116.5 -291t276.5 -107h358q-12 -103 -141 -178t-258 -75q-130 0 -237 51t-190 139t-133.5 207t-50.5 254v121q0 272 175.5 461.5
t425.5 189.5q179 0 294 -107.5t115 -271.5v-690q0 -41 -45 -41h-168q-16 0 -18 2q-55 -23 -128 -23q-148 0 -253 105t-105 254v119q0 147 104 252.5t255 105.5q33 0 63 -6q-30 43 -97 43q-141 0 -250 -110t-109 -283z" />
    <glyph glyph-name="A" unicode="A" horiz-adv-x="874" 
d="M436 780l-67 -362h135zM614 0q-33 0 -39 29l-26 139h-227l-25 -139q-6 -25 -35 -29h-180q-14 0 -26.5 9t-12.5 26l262 1317q10 29 33 30h199q20 -6 30 -30l264 -1309q0 -41 -45 -43h-172z" />
    <glyph glyph-name="B" unicode="B" horiz-adv-x="866" 
d="M328 1128v-309h104q43 0 74 31t31 74v100q0 43 -31 73.5t-74 30.5h-104zM328 565v-311h104q43 0 74 30.5t31 73.5v103q0 43 -31 73.5t-74 30.5h-104zM74 1337q0 16 12 30.5t35 14.5h311q150 0 254.5 -104.5t104.5 -253.5v-113q0 -125 -72 -215l-8 -8q41 -51 60.5 -97
t19.5 -128v-105q0 -147 -104 -252.5t-255 -105.5h-311q-18 0 -32.5 10t-14.5 27v1300z" />
    <glyph glyph-name="C" unicode="C" horiz-adv-x="845" 
d="M780 983q0 -43 -39 -43h-170q-18 0 -31.5 12.5t-13.5 30.5v61q0 43 -30.5 74t-73.5 31t-74 -31t-31 -74v-706q0 -43 31 -74t74 -31t73.5 31t30.5 74v61q0 16 13.5 31.5t31.5 15.5h164q16 0 30.5 -11t14.5 -34v-63q0 -150 -104 -254t-261 -104t-254.5 104t-97.5 254v706
q0 148 104 253.5t255 105.5t254.5 -105t103.5 -254v-61z" />
    <glyph glyph-name="D" unicode="D" horiz-adv-x="870" 
d="M330 1128v-874h104q43 0 74 30.5t31 73.5v666q0 43 -31 73.5t-74 30.5h-104zM76 1337q0 45 45 45h313q151 0 255 -98t104 -260v-666q0 -147 -104 -252.5t-255 -105.5h-313q-14 0 -29.5 5t-15.5 32v1300z" />
    <glyph glyph-name="E" unicode="E" horiz-adv-x="880" 
d="M123 0q-41 0 -41 39v1298q0 45 41 45h635q41 0 41 -47v-164q0 -16 -12.5 -29.5t-30.5 -13.5h-420v-309h366q41 0 41 -43v-168q0 -43 -41 -43h-366v-311h420q18 0 30.5 -11.5t12.5 -33.5v-170q0 -39 -41 -39h-635z" />
    <glyph glyph-name="F" unicode="F" 
d="M731 608q0 -43 -43 -43h-364v-526q0 -39 -41 -39h-177q-37 0 -36 39v1296q0 43 43 47h628q45 0 45 -47v-161q0 -46 -45 -46h-417v-309h364q43 0 43 -43v-168z" />
    <glyph glyph-name="G" unicode="G" horiz-adv-x="884" 
d="M756 778q45 0 45 -43v-397q0 -149 -104.5 -253.5t-253.5 -104.5t-254 103.5t-105 254.5v706q0 150 104.5 254.5t254.5 104.5t254 -105.5t104 -253.5v-61q0 -16 -11.5 -29.5t-31.5 -13.5h-168q-16 0 -29.5 11.5t-13.5 31.5v61q0 43 -31 74t-74 31t-73.5 -31t-30.5 -74
v-706q0 -43 30.5 -74t73.5 -31t74 31t31 74v186h-66q-39 0 -39 43v168q0 16 11.5 29.5t33.5 13.5h269z" />
    <glyph glyph-name="H" unicode="H" horiz-adv-x="882" 
d="M82 1341q0 14 11 27.5t28 13.5h172q14 0 28.5 -12t14.5 -29v-522h209v522q0 16 12 28.5t31 12.5h164q16 0 31.5 -11t15.5 -30v-1300q0 -41 -47 -41h-164q-16 0 -29.5 10t-13.5 31v524h-209v-524q0 -18 -13.5 -29.5t-33.5 -11.5h-168q-39 0 -39 41v1300z" />
    <glyph glyph-name="I" unicode="I" horiz-adv-x="421" 
d="M84 1341q0 41 41 41h168q14 0 29.5 -11t15.5 -30v-1300q0 -41 -45 -41h-168q-41 0 -41 41v1300z" />
    <glyph glyph-name="J" unicode="J" horiz-adv-x="770" 
d="M459 1346q0 33 37 36h176q41 0 41 -39v-1005q0 -149 -104.5 -253.5t-254.5 -104.5q-88 0 -166.5 38.5t-128.5 112.5q-2 2 -2 16t13 25l114 117q14 12 30 12q18 0 56.5 -34t82.5 -34t75 31t31 74v1008z" />
    <glyph glyph-name="K" unicode="K" horiz-adv-x="892" 
d="M770 0h-182q-26 0 -35 18l-180 402l-45 -101v-278q0 -16 -10.5 -28.5t-30.5 -12.5h-176q-37 0 -37 41v1300q0 14 10 27.5t27 13.5h176q14 0 27.5 -12t13.5 -29v-403l192 426q8 18 35 18h199q14 0 24 -9t9 -18l-1 -9l-2 -15l-272 -602l303 -670l4 -18q0 -16 -13 -28.5
t-36 -12.5z" />
    <glyph glyph-name="L" unicode="L" horiz-adv-x="864" 
d="M74 1343q0 16 11 28.5t32 12.5h170q37 0 41 -41v-1089h422q16 0 28.5 -11.5t12.5 -31.5v-170q0 -37 -41 -41h-635q-41 0 -41 41v1302z" />
    <glyph glyph-name="M" unicode="M" horiz-adv-x="1112" 
d="M82 1341q0 41 41 41h217q29 0 35 -28l180 -649l180 649q7 28 39 28h209q14 0 29.5 -11t15.5 -30v-1300q0 -41 -45 -41h-168q-41 0 -41 41v623l-108 -465q-10 -31 -31 -31h-158q-21 0 -33 31l-108 471v-629q0 -41 -45 -41h-168q-41 0 -41 41v1300z" />
    <glyph glyph-name="N" unicode="N" horiz-adv-x="882" 
d="M82 1341q0 41 41 41h168q10 0 23.5 -8t19.5 -20v-4l211 -605v596q0 41 41 41h168q14 0 29.5 -11t15.5 -30v-1300q0 -41 -45 -41h-168q-25 0 -32 12.5t-15 32.5l-203 584v-588q0 -41 -45 -41h-168q-41 0 -41 41v1300z" />
    <glyph glyph-name="O" unicode="O" horiz-adv-x="860" 
d="M535 1044q0 43 -31 74t-74 31t-73.5 -31t-30.5 -74v-706q0 -43 30.5 -74t73.5 -31t74 31t31 74v706zM72 1044q0 149 103.5 254t254.5 105t254.5 -105t103.5 -254v-706q0 -150 -104 -254t-254 -104t-254 104t-104 254v706z" />
    <glyph glyph-name="P" unicode="P" horiz-adv-x="866" 
d="M328 1128v-536h104q43 0 74 30.5t31 73.5v328q0 43 -31 73.5t-74 30.5h-104zM74 1343q0 16 12 27.5t29 11.5h317q151 0 255 -98t104 -258v-330q0 -149 -106 -253.5t-253 -104.5h-104v-291q0 -16 -12.5 -31.5t-32.5 -15.5h-170q-14 0 -26.5 14.5t-12.5 32.5v1296z" />
    <glyph glyph-name="Q" unicode="Q" horiz-adv-x="843" 
d="M526 1044q0 43 -30.5 74t-73.5 31t-74 -31t-31 -74v-706q0 -43 31 -74t74 -31t73.5 31t30.5 74v706zM545 -133q0 -47 -43 -47l-168 -2q-43 0 -43 47v139q-88 32 -158 123t-70 211v706q0 148 104 253.5t255 105.5t254.5 -105t103.5 -254v-706q0 -123 -68 -211t-167 -125
v-135z" />
    <glyph glyph-name="R" unicode="R" horiz-adv-x="897" 
d="M326 1128v-309h104q43 0 74 31t31 74v100q0 43 -31 73.5t-74 30.5h-104zM788 924q0 -198 -135 -275l170 -592q2 -2 2 -18q0 -39 -39 -39h-182q-22 0 -33 31l-157 534h-88v-518q0 -16 -12.5 -31.5t-30.5 -15.5h-166q-16 0 -30.5 15.5t-14.5 31.5v1294q0 37 39 39l319 2
q152 0 255 -99t103 -259v-100z" />
    <glyph glyph-name="S" unicode="S" horiz-adv-x="831" 
d="M559 940q-43 0 -43 56t-16.5 104.5t-71.5 48.5t-84 -31t-29 -78t33 -79l316 -367q63 -71 86.5 -125t23.5 -129q0 -146 -104.5 -254.5t-252.5 -108.5t-254 106t-106 255v65q0 23 15.5 33t27.5 10h168q33 0 38 -39.5t12.5 -106.5t97.5 -67q43 0 73.5 30.5t30.5 62.5
t-14 54.5t-33 45.5l-315 365q-97 113 -97 256t101 249.5t254 106.5t253.5 -106t100.5 -253v-59q0 -20 -14.5 -32.5t-30.5 -12.5h-166z" />
    <glyph glyph-name="T" unicode="T" horiz-adv-x="798" 
d="M711 1382q43 0 47 -41v-163q0 -20 -12.5 -35t-34.5 -15h-185v-1081q0 -14 -13 -30.5t-30 -16.5h-166q-12 0 -28.5 15.5t-16.5 31.5v1081h-184q-18 0 -32.5 13.5t-14.5 36.5v163q0 16 14.5 28.5t32.5 12.5h623z" />
    <glyph glyph-name="U" unicode="U" horiz-adv-x="870" 
d="M76 1341q0 16 11 28.5t32 12.5h168q16 0 29.5 -10t13.5 -31v-1003q0 -43 30.5 -74t73.5 -31t74 31t31 74v1003q0 41 45 41h170q39 0 39 -41v-1003q0 -149 -104.5 -253.5t-254.5 -104.5t-254 104t-104 254v1003z" />
    <glyph glyph-name="V" unicode="V" horiz-adv-x="870" 
d="M80 1382h180q29 0 35 -28l139 -752l139 752q7 28 39 28h172q20 0 32.5 -11t12.5 -25v-7l-264 -1308q-10 -31 -30 -31h-199q-23 0 -33 31l-260 1308l-2 9q0 16 12.5 25t26.5 9z" />
    <glyph glyph-name="W" unicode="W" horiz-adv-x="1337" 
d="M78 338v1003q0 41 41 41h170q43 0 43 -41v-1003q0 -43 30.5 -74t72.5 -31t74 31t32 74v1003q0 41 41 41h174q39 0 39 -41v-1003q0 -43 31.5 -74t73.5 -31t73 32t31 73v1003q0 20 12 30.5t28 10.5h170q16 0 29.5 -12t13.5 -29v-1003q0 -150 -104 -254t-243 -104t-242 83
q-100 -83 -241 -83t-245 104t-104 254z" />
    <glyph glyph-name="X" unicode="X" horiz-adv-x="925" 
d="M137 1382h191q18 0 26 -20l107 -320l104 318q9 22 23 22h200q12 0 26.5 -9t12.5 -18t-3 -12.5t-30.5 -75.5t-195.5 -530q63 -170 107.5 -287.5t72 -194.5t44 -120t24.5 -66.5t10 -34.5t-8 -22.5t-25 -11.5h-205q-13 0 -24 25l-133 421l-137 -421q-10 -25 -27 -25h-201
q-14 0 -22 12.5t-6 21.5t251 703l-223 606q-4 12 7.5 25.5t33.5 13.5z" />
    <glyph glyph-name="Y" unicode="Y" horiz-adv-x="858" 
d="M72 1382h194q25 0 33 -20l131 -416l137 416q7 20 25 20h196q16 0 25 -14t7 -24q-3 -11 -11 -31.5t-23.5 -63.5t-44 -120.5t-72.5 -198.5t-108 -295v-588q0 -47 -41 -47h-178q-16 0 -26.5 13.5t-10.5 33.5v588q-266 701 -268 713t8 23t27 11z" />
    <glyph glyph-name="Z" unicode="Z" horiz-adv-x="880" 
d="M129 1128q-47 0 -47 46v167q0 18 13.5 29.5t33.5 11.5h627q16 0 29.5 -10t13.5 -31v-167q0 -16 -6 -31l-412 -889h375q18 0 30.5 -10.5t12.5 -32.5v-164q0 -16 -12.5 -31.5t-30.5 -15.5h-627q-16 0 -31.5 14.5t-15.5 32.5v168q0 12 6 25l422 888h-381z" />
    <glyph glyph-name="bracketleft" unicode="[" horiz-adv-x="565" 
d="M78 1341q0 41 41 41h325q41 -4 41 -41v-170q0 -20 -12 -31.5t-29 -11.5h-112v-1230h112q16 0 28.5 -11.5t12.5 -31.5v-170q0 -37 -41 -41h-325q-41 0 -41 41v1656z" />
    <glyph glyph-name="backslash" unicode="\" horiz-adv-x="905" 
d="M63 1382h177q40 0 59 -41l588 -1300l4 -14q0 -27 -39 -27h-197q-20 0 -29.5 9t-19.5 32l-588 1300q-2 3 -2 7t-2 6q0 28 49 28z" />
    <glyph glyph-name="bracketright" unicode="]" horiz-adv-x="565" 
d="M78 1341q0 37 41 41h325q41 0 41 -41v-1656q0 -41 -41 -41h-325q-41 4 -41 41v170q0 20 12 31.5t29 11.5h112v1230h-112q-16 0 -28.5 11.5t-12.5 31.5v170z" />
    <glyph glyph-name="asciicircum" unicode="^" horiz-adv-x="843" 
d="M807 966q0 -15 -12 -28l-119 -121q-16 -16 -32.5 -16t-29.5 12l-192 195l-195 -195q-16 -10 -30 -10t-27 12l-119 119q-14 12 -14 30t12 29l344 344q28 28 56 0l346 -344q12 -12 12 -27z" />
    <glyph glyph-name="underscore" unicode="_" horiz-adv-x="1103" 
d="M82 213q0 41 41 41h858q16 0 28.5 -10.5t12.5 -30.5v-168q0 -14 -11.5 -29.5t-29.5 -15.5h-858q-41 0 -41 45v168z" />
    <glyph glyph-name="grave" unicode="`" horiz-adv-x="413" 
d="M37 1389q0 18 26 18h132q43 0 61 -41l115 -238q6 -12 6 -20q0 -20 -33 -21h-131q-23 0 -34 11.5t-21 29.5l-115 238q-6 12 -6 23z" />
    <glyph glyph-name="a" unicode="a" horiz-adv-x="843" 
d="M422 446q-43 0 -74 -32.5t-31 -75.5t31 -74t74 -31t73.5 31t30.5 74v108h-104zM415 1044q157 0 261 -104t104 -254v-647q0 -39 -41 -39h-176q-12 0 -14 2q-140 -47 -270 7.5t-173 154.5t-43 212t105 211t254 99h104q0 41 -30.5 73t-66.5 32t-56.5 -11.5t-35.5 -24
t-27.5 -23.5t-27.5 -11t-30 14l-115 117q-21 21 -10 41q43 78 125 114.5t163 36.5z" />
    <glyph glyph-name="b" unicode="b" horiz-adv-x="872" 
d="M541 686q0 43 -31 74t-74 31t-73.5 -31t-30.5 -74v-348q0 -43 30.5 -74t73.5 -31t74 31t31 74v348zM78 1341q0 41 41 41h168q14 0 29.5 -11t15.5 -30v-313q58 16 118 16t125.5 -27.5t142.5 -104.5t77 -226v-348q0 -149 -104.5 -253.5t-254.5 -104.5q-59 0 -131 22
q-2 -2 -18 -2h-168q-41 0 -41 41v1300z" />
    <glyph glyph-name="c" unicode="c" horiz-adv-x="833" 
d="M729 358q45 0 45 -56t-27.5 -115.5t-76.5 -105.5t-115 -73.5t-177.5 -27.5t-216 104.5t-104.5 253.5v348q0 149 104.5 253.5t252.5 104.5t226.5 -75.5t106 -135t27.5 -110.5t-39 -51h-170q-25 0 -32 18.5t-23.5 59.5t-93.5 41q-43 0 -74 -31t-31 -74v-348q0 -43 31 -74
t78 -31t67.5 19.5t29.5 43t16.5 43t31.5 19.5h164z" />
    <glyph glyph-name="d" unicode="d" horiz-adv-x="874" 
d="M541 686q0 43 -31 74t-74 31t-73.5 -31t-30.5 -74v-348q0 -43 30.5 -74t73.5 -31t74 31t31 74v348zM754 1382q41 0 41 -41v-1300q0 -41 -41 -41h-168q-16 0 -19 2q-146 -47 -275.5 7.5t-171.5 154.5t-42 174v348q0 150 104 254t254 104q45 0 105 -16v313q0 18 15 29.5
t30 11.5h168z" />
    <glyph glyph-name="e" unicode="e" horiz-adv-x="843" 
d="M526 672q0 72 -30.5 98.5t-73.5 26.5t-73 -28t-32 -97h209zM735 358q45 0 45 -65q0 -43 -27.5 -103.5t-76.5 -106.5t-114.5 -74.5t-177.5 -28.5t-216.5 104.5t-104.5 253.5v348q0 149 104.5 253.5t254.5 104.5t254 -104t104 -254v-194q0 -23 -12 -34.5t-29 -11.5h-422
v-108q0 -43 31 -74t79 -31t68.5 19.5t28.5 43t15.5 43t31.5 19.5h164z" />
    <glyph glyph-name="f" unicode="f" horiz-adv-x="655" 
d="M182 1044q0 148 104 253.5t255 105.5h16q41 -4 41 -41v-166q0 -20 -12.5 -33.5t-28.5 -13.5h-16q-43 0 -74 -31t-31 -74v-20h121q41 0 41 -41v-145q0 -45 -41 -45h-121v-752q0 -20 -13 -30.5t-30 -10.5h-168q-20 0 -31.5 12.5t-11.5 28.5v752h-86q-41 0 -41 45v145
q0 41 41 41h86v20z" />
    <glyph glyph-name="g" unicode="g" 
d="M532 686q0 43 -30.5 74t-73.5 31t-73.5 -31t-30.5 -74v-348q0 -43 30.5 -74t73.5 -31t73.5 31t30.5 74v348zM745 1024q41 0 41 -39v-1005q0 -149 -103.5 -254t-254.5 -105q-88 0 -167 39t-128 113q-10 20 10 41l115 116q28 28 49 10t48 -41.5t72 -23.5q44 0 74.5 31
t30.5 74v16q-58 -16 -118 -16t-125.5 27.5t-142 104t-76.5 226.5v348q0 150 104 254t254 104q59 0 127 -22l14 2h176z" />
    <glyph glyph-name="h" unicode="h" horiz-adv-x="870" 
d="M117 0q-41 0 -41 41v1300q0 41 41 41h168q14 0 29.5 -11t15.5 -30v-313q58 16 118 16t125.5 -27.5t142.5 -104.5t77 -226v-647q0 -39 -43 -39h-170q-16 0 -28.5 10t-12.5 31v645q0 41 -31 73t-73 32t-73.5 -31t-31.5 -72v-649q-2 -39 -43 -39h-170z" />
    <glyph glyph-name="i" unicode="i" horiz-adv-x="421" 
d="M84 1341q0 41 41 41h172q16 0 28.5 -10t12.5 -31v-167q0 -14 -11.5 -30t-29.5 -16h-172q-41 0 -41 46v167zM84 983q0 41 41 41h168q14 0 29.5 -11.5t15.5 -29.5v-942q0 -41 -45 -41h-168q-41 0 -41 41v942z" />
    <glyph glyph-name="j" unicode="j" horiz-adv-x="516" 
d="M211 1341q0 41 41 41h172q16 0 28.5 -10t12.5 -31v-167q0 -14 -11.5 -30t-29.5 -16h-172q-41 0 -41 46v167zM211 983q0 20 13.5 30.5t29.5 10.5h168q20 0 31.5 -12.5t11.5 -28.5v-1003q0 -150 -104.5 -254.5t-254.5 -104.5h-16q-41 4 -41 41v166q0 20 12.5 33.5
t28.5 13.5h16q43 0 74 31t31 74v1003z" />
    <glyph glyph-name="k" unicode="k" horiz-adv-x="854" 
d="M303 41q0 -41 -41 -41h-176q-37 0 -37 41v1300q0 14 10.5 27.5t26.5 13.5h176q14 0 27.5 -12t13.5 -29v-587l172 254q10 16 33 16h215q14 0 27.5 -9t13.5 -26l-4 -14l-287 -428l324 -488q6 -10 6 -23t-13.5 -24.5t-33.5 -11.5h-203q-20 0 -33 16l-217 324v-299z" />
    <glyph glyph-name="l" unicode="l" horiz-adv-x="542" 
d="M63 1341q0 16 11.5 28.5t31.5 12.5h168q16 0 29.5 -10t13.5 -31v-1003q0 -43 31 -74t74 -31h16q16 0 28.5 -13t12.5 -34v-166q0 -37 -41 -40h-16q-150 0 -254.5 104.5t-104.5 253.5v1003z" />
    <glyph glyph-name="m" unicode="m" horiz-adv-x="1339" 
d="M670 961q100 83 241 83q140 0 244.5 -104.5t104.5 -253.5v-645q0 -16 -13.5 -28.5t-29.5 -12.5h-170q-16 0 -28.5 10t-12.5 31v645q0 41 -31 73t-73 32t-73.5 -31t-31.5 -74v-645q0 -41 -39 -41h-174q-41 0 -41 41v645q0 43 -32 74t-74 31t-72.5 -31t-30.5 -74v-645
q0 -41 -43 -41h-170q-41 0 -41 41v942q0 41 41 41h168l18 -4q74 24 131 24q129 0 232 -83z" />
    <glyph glyph-name="n" unicode="n" horiz-adv-x="872" 
d="M445 1044q141 0 245.5 -104.5t104.5 -253.5v-645q0 -16 -13.5 -28.5t-29.5 -12.5h-170q-16 0 -28.5 10t-12.5 31v645q0 41 -31 73t-73 32t-73.5 -31t-31.5 -72v-647q0 -41 -43 -41h-170q-41 0 -41 41v942q0 41 41 41h168l18 -4q75 24 140 24z" />
    <glyph glyph-name="o" unicode="o" horiz-adv-x="847" 
d="M528 686q0 43 -30.5 74t-73.5 31t-74 -31t-31 -74v-348q0 -43 31 -74t74 -31t73.5 31t30.5 74v348zM66 686q0 150 104 254t254 104t254 -104t104 -254v-348q0 -150 -104 -254t-254 -104t-254 104t-104 254v348z" />
    <glyph glyph-name="p" unicode="p" horiz-adv-x="866" 
d="M328 338q0 -43 30.5 -74t73.5 -31t74 31t31 74v348q0 43 -31 74t-74 31t-73.5 -31t-30.5 -74v-348zM115 -358q-41 0 -41 41v1300q0 41 41 41h168q16 0 18 -2q146 47 275 -7.5t172 -154.5t43 -174v-348q0 -149 -104.5 -253.5t-254.5 -104.5q-45 0 -104 16v-313
q0 -18 -15.5 -29.5t-29.5 -11.5h-168z" />
    <glyph glyph-name="q" unicode="q" horiz-adv-x="874" 
d="M541 686q0 43 -31 74t-74 31t-73.5 -31t-30.5 -74v-348q0 -43 30.5 -74t73.5 -31t74 31t31 74v348zM78 686q0 150 104 254t254 104q59 0 131 -22q2 2 19 2h168q41 0 41 -41v-1300q0 -16 -10.5 -28.5t-30.5 -12.5h-168q-14 0 -29.5 11t-15.5 30v313q-59 -16 -119 -16
t-125.5 27.5t-142 104t-76.5 226.5v348z" />
    <glyph glyph-name="r" unicode="r" horiz-adv-x="583" 
d="M59 686q0 149 104.5 253.5t254.5 104.5h63q41 -4 41 -40v-166q0 -20 -12 -33.5t-29 -13.5h-63q-43 0 -74 -31t-31 -74v-641q0 -20 -13 -32.5t-30 -12.5h-168q-20 0 -31.5 14.5t-11.5 30.5v641z" />
    <glyph glyph-name="s" unicode="s" horiz-adv-x="839" 
d="M524 314q0 79 -122 79q-62 0 -127.5 26.5t-139.5 95t-74 203.5t106.5 230.5t263.5 95.5t252 -92t95 -239q0 -16 -14 -28.5t-31 -12.5h-166q-35 0 -39 19.5t-9 44t-22.5 44t-75.5 19.5t-82 -29t-24 -63q1 -72 101 -72q181 0 271.5 -103.5t90.5 -236.5t-103.5 -225.5
t-254.5 -92.5q-152 0 -255.5 80t-103.5 226v32q0 23 12.5 33t24.5 10h174q43 0 43 -57q0 -31 31 -49.5t74 -18.5t73.5 21.5t30.5 59.5z" />
    <glyph glyph-name="t" unicode="t" horiz-adv-x="651" 
d="M180 1341q0 16 11.5 28.5t31.5 12.5h168q16 0 29.5 -10t13.5 -31v-317h121q41 0 41 -41v-145q0 -45 -41 -45h-121v-476q0 -43 31 -63.5t74 -20.5h16q16 0 28.5 -13t12.5 -34v-166q0 -37 -41 -40h-16q-253 0 -306 122.5t-53 214.5v476h-86q-41 0 -41 45v145q0 41 41 41h86
v317z" />
    <glyph glyph-name="u" unicode="u" horiz-adv-x="874" 
d="M78 983q0 16 11 28.5t32 12.5h168q16 0 29.5 -10t13.5 -31v-645q0 -43 30.5 -74t73.5 -31t74 31t31 74v645q0 41 45 41h170q39 0 39 -41v-942q0 -41 -45 -41h-168q-16 0 -19 2q-140 -47 -270.5 7.5t-172.5 154.5t-42 174v645z" />
    <glyph glyph-name="v" unicode="v" horiz-adv-x="868" 
d="M88 1024h182q29 0 35 -31l129 -512l129 514q6 29 37 29h184q20 0 31.5 -15.5t7.5 -29.5l-258 -948q-10 -31 -33 -31h-194q-25 0 -35 31l-258 948q-4 10 7 27.5t36 17.5z" />
    <glyph glyph-name="w" unicode="w" horiz-adv-x="1333" 
d="M76 338v645q0 41 41 41h170q43 0 43 -41v-645q0 -43 30.5 -74t72.5 -31t74 31t32 74v645q0 41 41 41h174q39 0 39 -41v-645q0 -43 31.5 -74t73.5 -31t72.5 32t30.5 73v645q0 20 12.5 30.5t28.5 10.5h170q16 0 29.5 -12.5t13.5 -28.5v-645q0 -150 -104 -254t-243 -104
t-242 83q-100 -83 -241 -83t-245 104t-104 254z" />
    <glyph glyph-name="x" unicode="x" horiz-adv-x="942" 
d="M150 1024h206q18 0 27 -20l90 -193l88 190q10 23 27 23h213q23 0 33 -14.5t2 -30.5l-222 -432l248 -486q10 -16 3 -38.5t-29 -22.5h-213q-16 0 -27 25l-123 260l-125 -260q-10 -25 -26 -25h-213q-18 0 -28.5 22.5t-0.5 38.5l250 486l-219 430q-6 14 5 30.5t34 16.5z" />
    <glyph glyph-name="y" unicode="y" horiz-adv-x="862" 
d="M535 987q0 37 36 37h179q18 0 28 -11.5t10 -25.5v-1007q0 -149 -103.5 -254t-254.5 -105q-88 0 -167 39t-128 113q-10 23 10 41l115 116q30 26 50 9t47 -40.5t72 -23.5q44 0 75 31t31 74v16q-59 -16 -119 -16t-125.5 27.5t-142 104t-76.5 226.5v645q0 16 11 28.5t32 12.5
h168q16 0 29.5 -10t13.5 -31v-645q0 -43 30.5 -74t72.5 -31t71.5 28t34.5 69v657z" />
    <glyph glyph-name="z" unicode="z" horiz-adv-x="880" 
d="M127 770q-47 0 -47 45v168q0 18 13 29.5t34 11.5h627q16 0 29.5 -10t13.5 -31v-95q0 -95 -6 -104l-381 -530h344q18 0 30.5 -10.5t12.5 -32.5v-164q0 -16 -12.5 -31.5t-30.5 -15.5h-627q-16 0 -31.5 14.5t-15.5 32.5v168q0 14 6 25l385 530h-344z" />
    <glyph glyph-name="braceleft" unicode="{" horiz-adv-x="645" 
d="M176 1024q0 151 105 254.5t254 103.5h16q41 -4 41 -41v-165q0 -20 -12.5 -34t-28.5 -14h-16q-43 0 -74 -30.5t-31 -73.5v-389q0 -68 -43 -117q43 -49 43 -119v-397q0 -43 31 -73.5t74 -30.5h16q16 0 28.5 -13.5t12.5 -34.5v-165q0 -37 -41 -41h-16q-149 0 -254 103.5
t-105 254.5v365q0 8 -7 15t-15 7h-60q-41 0 -41 45v168q0 41 41 41h56q27 0 26 27v354z" />
    <glyph glyph-name="bar" unicode="|" horiz-adv-x="421" 
d="M84 1341q0 41 41 41h168q14 0 29.5 -11t15.5 -30v-1656q0 -41 -45 -41h-168q-41 0 -41 41v1656z" />
    <glyph glyph-name="braceright" unicode="}" horiz-adv-x="643" 
d="M51 1341q0 37 41 41h17q148 0 253 -103.5t105 -254.5v-354q0 -27 27 -27h55q41 0 41 -41v-168q0 -45 -41 -45h-60q-8 0 -15 -7t-7 -15v-365q0 -151 -105 -254.5t-253 -103.5h-17q-41 4 -41 41v165q0 20 12.5 34t28.5 14h17q43 0 73.5 30.5t30.5 73.5v397q0 70 43 119
q-43 49 -43 117v389q0 43 -30.5 73.5t-73.5 30.5h-17q-16 0 -28.5 13.5t-12.5 34.5v165z" />
    <glyph glyph-name="asciitilde" unicode="~" horiz-adv-x="1126" 
d="M374 713q119 0 224 -66l76 -49q26 -18 70 -18t73 41l37 53q10 16 28 16t33 -10l140 -94q16 -12 16 -28t-8 -30l-37 -51q-107 -153 -291 -153q-103 -4 -207 65l-75 49q-29 18 -72 18t-72 -40l-37 -54q-22 -31 -61 -6l-139 95q-26 16 -15.5 39.5t43.5 68.5q53 76 128.5 115
t145.5 39z" />
    <glyph glyph-name="exclamdown" unicode="&#xa1;" horiz-adv-x="413" 
d="M80 682q0 41 41 41h168q14 0 29 -11t16 -30v-999q0 -41 -45 -41h-168q-41 0 -41 41v999zM334 811q0 -41 -41 -41h-172q-16 0 -29 10q-12 10 -12 31v168q0 13 11 29t30 16h172q41 0 41 -45v-168z" />
    <glyph glyph-name="cent" unicode="&#xa2;" horiz-adv-x="798" 
d="M270 1188q0 41 41 41h172q16 0 28.5 -10.5t12.5 -30.5v-166q104 -37 169 -128t65 -208q0 -18 -10.5 -30.5t-28.5 -12.5h-170q-25 0 -35 22.5t-20.5 50t-30 51.5t-63.5 24t-74.5 -31t-30.5 -74v-348q0 -43 30.5 -74t74.5 -31t63.5 24t30 52.5t20.5 52t35 23.5h164
q16 0 30.5 -11.5t14.5 -33.5v-2q0 -117 -64.5 -208t-169.5 -130v-158q0 -14 -11 -29.5t-30 -15.5h-172q-41 0 -41 45v160q-104 39 -166.5 129t-62.5 207v348q0 117 62.5 206t166.5 128v168z" />
    <glyph glyph-name="sterling" unicode="&#xa3;" horiz-adv-x="804" 
d="M72 39v1005q0 149 103.5 254t254.5 105q88 0 167 -39t128 -113q2 -2 2 -15t-12 -26l-115 -116q-29 -29 -63 0t-57 42t-58 13t-65.5 -31t-30.5 -74v-403h202q16 0 28.5 -10t12.5 -31v-102q0 -14 -11 -29.5t-30 -15.5h-202v-199h364q16 0 28.5 -10.5t12.5 -30.5v-168
q0 -14 -11 -29.5t-30 -15.5h-577q-41 0 -41 39z" />
    <glyph glyph-name="currency" unicode="&#xa4;" horiz-adv-x="897" 
d="M221 903q14 0 29 -14l98 -98q55 16 97 16t98 -16l100 98q13 12 29 12t30 -14l119 -119q29 -29 0 -57l-98 -101q16 -55 16 -97t-16 -97l98 -99q31 -31 0 -57l-119 -119q-12 -12 -30 -12t-29 10l-100 99q-100 -29 -195 0l-98 -99q-14 -14 -30 -14t-27 14l-119 119
q-12 8 -12 28t10 31l98 99q-16 55 -16 97t16 97l-98 101q-28 28 2 59l119 119q14 14 28 14zM266 514q0 -76 52.5 -128t128 -52t128 52t52.5 128t-52.5 128t-128 52t-128 -52t-52.5 -128z" />
    <glyph glyph-name="yen" unicode="&#xa5;" horiz-adv-x="876" 
d="M776 750q16 0 28.5 -10.5t12.5 -30.5v-103q0 -14 -11 -29.5t-30 -15.5h-207v-84h207q16 0 28.5 -10t12.5 -31v-102q0 -14 -11 -29.5t-30 -15.5h-207v-242q0 -47 -41 -47h-178q-16 0 -26.5 13.5t-10.5 33.5v242h-209q-41 0 -41 45v102q0 41 41 41h209v84h-209
q-41 0 -41 45v103q0 41 41 41h166l-219 577l-4 19q0 36 33 36h194q25 0 33 -20l131 -416l137 416q7 20 25 20h197q30 0 30 -41l-2 -12l-215 -579h166z" />
    <glyph glyph-name="brokenbar" unicode="&#xa6;" horiz-adv-x="421" 
d="M84 1341q0 41 41 41h168q14 0 29.5 -11t15.5 -30v-735q0 -41 -45 -41h-168q-41 0 -41 41v735zM84 420q0 41 41 41h168q14 0 29.5 -11.5t15.5 -29.5v-735q0 -41 -45 -41h-168q-41 0 -41 41v735z" />
    <glyph glyph-name="dieresis" unicode="&#xa8;" horiz-adv-x="770" 
d="M449 1321q0 39 40 39h160q39 0 39 -39v-156q0 -16 -10 -30.5t-29 -14.5h-160q-41 0 -40 45v156zM82 1321q0 39 39 39h162q14 0 26.5 -10.5t12.5 -28.5v-156q0 -16 -11.5 -30.5t-27.5 -14.5h-162q-39 0 -39 45v156z" />
    <glyph glyph-name="copyright" unicode="&#xa9;" horiz-adv-x="1251" 
d="M276 545q0 -145 102.5 -247.5t246.5 -102.5t247 101.5t103 248.5v293q0 142 -102 246t-248 104t-247.5 -105t-101.5 -245v-293zM61 838q0 233 164.5 399t399.5 166t400 -165t165 -400v-293q0 -237 -165.5 -401t-399.5 -164t-399 165t-165 400v293zM891 584q39 0 39 -51
t-23.5 -106.5t-64.5 -96.5t-96.5 -64.5t-150.5 -23.5t-183 88t-88 215v293q0 127 88 215t215 88t215 -88t88 -215q0 -35 -33 -35h-145q-23 0 -31 19.5t-17.5 42t-24.5 42t-52 19.5t-62.5 -26t-25.5 -62v-293q0 -37 25.5 -62.5t62.5 -25.5t53 19.5t25.5 44t17.5 44t29 19.5
h139z" />
    <glyph glyph-name="ordfeminine" unicode="&#xaa;" horiz-adv-x="583" 
d="M295 788q-31 0 -53 -24t-21 -54q0 -31 22 -53q23 -21 53 -21t52 22t22 52v78h-75zM290 1214q110 0 186 -74q75 -74 75 -182v-461q0 -28 -29 -28h-126q-9 0 -10 1q-48 -16 -96 -16q-101 0 -176 75t-75 182t75 177t181 70h75q0 29 -22 52t-48 23t-44 -10q-19 -10 -35 -25
q-15 -15 -26 -15t-21 11l-82 83q-15 15 -7 29q31 56 89 82t116 26z" />
    <glyph glyph-name="guillemotleft" unicode="&#xab;" horiz-adv-x="1191" 
d="M580 1038q16 0 32 -12l86 -88q24 -24 2 -57l-366 -369l366 -367q22 -35 -4 -61l-88 -88q-12 -12 -27 -12t-28 12l-487 489q-28 28 0 56l487 487q11 10 27 10zM1010 1038q16 0 32 -12l86 -88q24 -24 2 -57l-366 -369l366 -367q22 -35 -4 -61l-88 -88q-12 -12 -27 -12
t-28 12l-487 489q-28 28 0 56l487 487q11 10 27 10z" />
    <glyph glyph-name="logicalnot" unicode="&#xac;" horiz-adv-x="1073" 
d="M66 696q0 41 40 41h859q41 0 41 -41v-448q0 -16 -10.5 -28.5t-30.5 -12.5h-103q-14 0 -29.5 11t-15.5 30v301h-711q-41 0 -40 45v102z" />
    <glyph glyph-name="uni00AD" unicode="&#xad;" horiz-adv-x="880" 
d="M82 600q0 41 41 41h635q16 0 28.5 -10t12.5 -31v-168q0 -14 -11.5 -29.5t-29.5 -15.5h-635q-41 0 -41 45v168z" />
    <glyph glyph-name="registered" unicode="&#xae;" horiz-adv-x="1251" 
d="M276 545q0 -145 102.5 -247.5t246.5 -102.5t247 101.5t103 248.5v293q0 142 -102 246t-248 104t-247.5 -105t-101.5 -245v-293zM61 838q0 233 164.5 399t399.5 166t400 -165t165 -400v-293q0 -237 -165.5 -401t-399.5 -164t-399 165t-165 400v293zM324 838q0 127 88 215
t215 88t215 -88t88 -215q0 -35 -33 -35h-145q-23 0 -31 19.5t-17.5 42t-24.5 42t-52 19.5t-62.5 -26t-25.5 -62v-525q0 -10 -8.5 -25.5t-17.5 -15.5t-11 2q-78 31 -127 108t-51 163v293z" />
    <glyph glyph-name="degree" unicode="&#xb0;" horiz-adv-x="505" 
d="M252 1401q-41 0 -68.5 -29t-27.5 -69.5t27.5 -68.5t68.5 -28t69.5 28t28.5 68.5t-28.5 69.5t-69.5 29zM252 1499q82 0 139.5 -57.5t57.5 -139t-57.5 -138t-139.5 -56.5t-138.5 56.5t-56.5 138t56.5 139t138.5 57.5z" />
    <glyph glyph-name="plusminus" unicode="&#xb1;" horiz-adv-x="827" 
d="M55 213q0 41 41 41h635q16 0 28.5 -10.5t12.5 -30.5v-168q0 -14 -11 -29.5t-30 -15.5h-635q-41 0 -41 45v168zM55 752q0 41 41 41h191v190q0 41 45 41h168q41 0 41 -41v-190h190q16 0 28.5 -10.5t12.5 -30.5v-168q0 -14 -11 -29.5t-30 -15.5h-190v-191q0 -16 -10.5 -28.5
t-30.5 -12.5h-168q-14 0 -29.5 11.5t-15.5 29.5v191h-191q-41 0 -41 45v168z" />
    <glyph glyph-name="twosuperior" unicode="&#xb2;" horiz-adv-x="481" 
d="M180 879q0 -22 -24 -22h-92q-20 0 -22 22v35q0 80 57 137t139 57t137 -57q56 -57 56 -137v-68q0 -60 -42 -125l-168 -235h188q22 0 22 -22v-91q0 -25 -22 -25h-345q-22 0 -22 25v94q0 4 5 13l243 347q3 4 3 19v68q0 23 -17 40q-17 16 -40 16t-40 -16t-16 -40v-35z" />
    <glyph glyph-name="threesuperior" unicode="&#xb3;" horiz-adv-x="481" 
d="M178 877q0 -22 -23 -22h-92q-20 0 -22 22v35q1 80 57 136t136 57q80 0 137 -56t57 -137v-54q0 -60 -45 -114q45 -54 45 -125v-89q0 -79 -56 -136t-136 -57t-138 56q-57 57 -57 137v26q0 22 24 22h91q20 0 22 -22v-26q0 -24 17 -40t40 -16t40 17t16 39v89q0 23 -16 40
q-17 17 -40 16h-11q-9 0 -16 6t-6 17v81q0 20 22 22h11q23 0 40 17t16 40v54q-1 24 -17 40t-39 16t-40 -17t-17 -39v-35z" />
    <glyph glyph-name="acute" unicode="&#xb4;" horiz-adv-x="415" 
d="M219 1407h131q27 0 27 -18q0 -10 -6 -23l-115 -238q-23 -41 -55 -41h-131q-33 0 -33 21q0 8 6 20l115 238q18 41 61 41z" />
    <glyph glyph-name="mu" unicode="&#xb5;" horiz-adv-x="882" 
d="M82 983q0 16 11 28.5t32 12.5h168q16 0 29.5 -10t13.5 -31v-653q4 -41 33.5 -69t71.5 -28t73 31t31 74v645q0 41 45 41h170q39 0 39 -41v-645q0 -149 -104.5 -253.5t-254.5 -104.5q-45 0 -104 16v-311q0 -41 -45 -41h-168q-41 0 -41 41v1298z" />
    <glyph glyph-name="paragraph" unicode="&#xb6;" horiz-adv-x="0" 
 />
    <glyph glyph-name="periodcentered" unicode="&#xb7;" horiz-adv-x="387" 
d="M68 588q0 41 41 41h172q16 -1 28 -11t13 -30v-168q0 -14 -12 -30t-29 -15h-172q-41 0 -41 45v168z" />
    <glyph glyph-name="cedilla" unicode="&#xb8;" horiz-adv-x="432" 
d="M49 -54q0 34 19 52h143q-21 -14 -21 -35t30 -39t96.5 -60t66.5 -115t-56.5 -124t-197.5 -94h-4q-35 0 -46 42t-11 53t10 18q160 39 160 98q0 31 -30 52.5t-64.5 43t-64.5 48t-30 60.5z" />
    <glyph glyph-name="onesuperior" unicode="&#xb9;" horiz-adv-x="296" 
d="M32 928v80q0 19 21 30l81 41q4 4 15 4h90q24 0 24 -22v-695q0 -22 -23 -22h-91q-24 0 -21 21v576l-68 -34q-4 -1 -6 -1t-3 -1q-19 0 -19 23z" />
    <glyph glyph-name="ordmasculine" unicode="&#xba;" horiz-adv-x="575" 
d="M365 942q0 30 -21 52q-22 22 -52 22t-52 -22t-22 -52v-244q0 -30 22 -52t52 -22t52 22t21 52v244zM40 942q0 106 73 179q75 73 181 73q105 0 176 -73q72 -70 74 -179v-244q0 -106 -74 -178t-179 -73q-103 -1 -177 71t-74 180v244z" />
    <glyph glyph-name="guillemotright" unicode="&#xbb;" horiz-adv-x="1193" 
d="M609 1038q15 0 32 -10l487 -487q28 -28 0 -56l-487 -489q-11 -12 -29 -12t-26 12l-88 88q-34 34 -4 61l366 367l-366 369q-21 34 2 57l86 88q12 12 27 12zM179 1038q15 0 32 -10l487 -487q28 -28 0 -56l-487 -489q-11 -12 -29 -12t-26 12l-88 88q-33 33 -5 61l367 367
l-367 369q-10 16 -10 30t13 27l86 88q12 12 27 12z" />
    <glyph glyph-name="onequarter" unicode="&#xbc;" horiz-adv-x="958" 
d="M702 240v194l-73 -194h73zM881 125q0 -23 -27 -23h-16v-79q0 -23 -23 -23h-90q-23 0 -23 23v79h-194q-8 0 -15.5 6.5t-7.5 16.5v90q0 6 2 16l215 486q9 22 25 22h88q6 0 14.5 -6t8.5 -16v-477h16q27 0 27 -25v-90zM197 643q-23 0 -23 21v575l-68 -33q-2 -2 -6 -2h-2
q-8 0 -14 7.5t-6 15.5v80q0 18 22 30l80 41q6 4 17 4h90q23 0 22 -22v-694q0 -23 -22 -23h-90zM838 1382q47 0 47 -28q0 -10 -2 -13l-588 -1300q-10 -23 -19.5 -32t-29.5 -9h-135q-39 0 -39 27q31 72 70.5 159.5t105 234t167.5 370.5t249 550q20 41 59 41h115z" />
    <glyph glyph-name="onehalf" unicode="&#xbd;" horiz-adv-x="1036" 
d="M190 643q-22 0 -22 21v575l-68 -33q-2 -2 -6 -2h-2q-8 0 -14 7.5t-6 15.5v80q0 18 22 30l80 41q6 4 16 4h91q23 0 22 -22v-694q0 -23 -22 -23h-91zM721 524q0 -22 -23 -22h-90q-20 0 -22 22v33q0 80 55 136.5t136 56.5t136.5 -55.5t55.5 -137.5v-65q0 -64 -41 -123
l-166 -234h184q23 0 23 -20v-90q0 -8 -6.5 -16.5t-16.5 -8.5h-338q-23 0 -22 25v92q0 4 6 14l237 342q4 4 5 19v65q0 25 -16.5 41t-40.5 16t-40 -16t-16 -41v-33zM831 1382q48 0 48 -28q0 -10 -2 -13l-588 -1300q-10 -23 -19.5 -32t-29.5 -9h-136q-39 0 -38 27q0 -6 4 14
l587 1300q20 41 60 41h114z" />
    <glyph glyph-name="threequarters" unicode="&#xbe;" horiz-adv-x="1044" 
d="M797 240v194l-74 -194h74zM975 125q0 -23 -27 -23h-16v-79q0 -23 -23 -23h-90q-23 0 -22 23v79h-195q-8 0 -15 6.5t-7 16.5v90q0 6 2 16l215 486q9 22 24 22h88q6 0 14.5 -6t8.5 -16v-477h16q27 0 27 -25v-90zM205 1178q0 -23 -23 -23h-90q-20 0 -22 23v32
q0 125 75.5 159t115.5 34q78 0 135 -55t57 -138v-53q0 -57 -45 -113q45 -56 45 -122v-88q0 -80 -55.5 -135.5t-135.5 -55.5t-136 54.5t-56 136.5v24q0 23 22 23h92q18 0 21 -23v-24q0 -23 16.5 -39.5t40.5 -16.5t39.5 16.5t15.5 39.5v88q0 23 -16 39t-39 16h-12
q-8 0 -15.5 6t-7.5 16v80q0 20 23 23h12q23 0 39 16.5t16 38.5v53q0 23 -16 39.5t-40 16.5t-40 -16.5t-16 -39.5v-32zM924 1382q47 0 47 -28q0 -10 -2 -13l-588 -1300q-10 -23 -19.5 -32t-29.5 -9h-135q-39 0 -39 27q0 -6 4 14l588 1300q20 41 59 41h115z" />
    <glyph glyph-name="questiondown" unicode="&#xbf;" horiz-adv-x="780" 
d="M539 813q0 -41 -41 -41h-172q-16 0 -29 10q-12 10 -12 31v168q0 13 11 29t30 16h172q41 0 41 -45v-168zM748 -18q0 -151 -105 -255t-254 -104q-149 -1 -255 105t-103 254v141q0 139 130 255q38 34 70 52q52 29 54 92v158q0 20 13 32t30 13h168q20 0 31 -14t12 -31v-158
q-1 -116 -63 -192t-148 -123q-43 -22 -43 -84v-141q1 -43 31 -74t73 -31t74 31t31 74v63q0 17 11 29t32 12h170q16 0 28 -11t13 -30v-63z" />
    <glyph glyph-name="Agrave" unicode="&#xc0;" horiz-adv-x="882" 
d="M440 780l-67 -362h135zM618 0q-10 0 -23 7t-15 22l-27 139h-227l-25 -139q-6 -25 -35 -29h-180q-14 0 -27 9q-12 9 -12 26l262 1317q10 29 33 30h199q20 -6 30 -30l265 -1309q0 -41 -45 -43h-173zM201 1788q0 18 26 18h131q43 0 62 -41l115 -237q6 -12 6 -21
q0 -20 -33 -20h-131q-23 0 -34 11t-21 30l-115 237q-6 12 -6 23z" />
    <glyph glyph-name="Aacute" unicode="&#xc1;" horiz-adv-x="872" 
d="M436 780l-67 -362h135zM614 0q-33 0 -39 29l-26 139h-227l-25 -139q-6 -25 -35 -29h-180q-14 0 -27 9q-12 9 -12 26l262 1317q10 29 33 30h199q20 -6 30 -30l264 -1309q0 -41 -45 -43h-172zM528 1806h131q27 0 27 -18q0 -10 -6 -23l-115 -237q-10 -18 -21 -30t-34 -11
h-131q-33 0 -33 20q0 8 6 21l115 237q18 41 61 41z" />
    <glyph glyph-name="Acircumflex" unicode="&#xc2;" horiz-adv-x="876" 
d="M436 780l-67 -362h135zM614 0q-33 0 -39 29l-26 139h-227l-25 -139q-6 -25 -35 -29h-180q-14 0 -27 9q-12 9 -12 26l262 1317q10 29 33 30h199q20 -6 30 -30l264 -1309q0 -41 -45 -43h-172zM437 1798q7 0 14 -6l217 -219q6 -6 6 -13t-6 -14l-54 -53q-6 -6 -14 -6t-12 4
l-152 154l-149 -154q-5 -4 -13 -4t-14 6l-53 55q-6 6 -6 12t6 13l217 219q6 6 13 6z" />
    <glyph glyph-name="Atilde" unicode="&#xc3;" horiz-adv-x="876" 
d="M436 780l-67 -362h135zM614 0q-33 0 -39 29l-26 139h-227l-25 -139q-6 -25 -35 -29h-180q-14 0 -27 9q-12 9 -12 26l262 1317q10 29 33 30h199q20 -6 30 -30l264 -1309q0 -41 -45 -43h-172zM353 1726q52 0 98 -32l38 -25q16 -10 36 -10t36 22l19 27q4 8 13 8t17 -6
l70 -47q12 -8 4 -29l-18 -24q-55 -76 -148 -76q-57 0 -102 31l-37 24q-16 10 -37 10t-35 -20l-18 -27q-7 -10 -15 -10t-16 6l-70 47q-14 12 -4 29l19 27q33 45 65 60t85 15z" />
    <glyph glyph-name="Adieresis" unicode="&#xc4;" horiz-adv-x="872" 
d="M436 780l-67 -362h135zM614 0q-33 0 -39 29l-26 139h-227l-25 -139q-6 -25 -35 -29h-180q-14 0 -27 9q-12 9 -12 26l262 1317q10 29 33 30h199q20 -6 30 -30l264 -1309q0 -41 -45 -43h-172zM496 1780q0 39 41 39h159q39 0 39 -39v-156q0 -16 -10 -30t-29 -15h-159
q-41 0 -41 45v156zM129 1780q0 39 39 39h162q14 -1 26 -11t13 -28v-156q1 -16 -11 -30t-28 -15h-162q-39 0 -39 45v156z" />
    <glyph glyph-name="Aring" unicode="&#xc5;" horiz-adv-x="876" 
d="M436 780l-67 -362h135zM614 0q-33 0 -39 29l-26 139h-227l-25 -139q-6 -25 -35 -29h-180q-14 0 -26.5 9t-12.5 26l262 1317q10 29 33 30h199q20 -6 30 -30l264 -1309q0 -41 -45 -43h-172zM436 1829q-41 0 -68.5 -28.5t-27.5 -69.5t27.5 -69t68.5 -28t70 28t29 69
t-29 69.5t-70 28.5zM436 1927q82 0 139.5 -57.5t57.5 -139t-57.5 -138t-139.5 -56.5t-138 56.5t-56 138t56 139t138 57.5z" />
    <glyph glyph-name="AE" unicode="&#xc6;" horiz-adv-x="1366" 
d="M592 418v362l-135 -362h135zM1253 608q0 -43 -41 -43h-366v-311h420q18 0 30.5 -11.5t12.5 -33.5v-170q0 -39 -41 -39h-639q-16 0 -27.5 10t-11.5 25l2 133h-227l-54 -139q-11 -26 -39 -29h-176q-14 0 -26.5 9t-12.5 26q6 14 20.5 51t46.5 116t90 225t148.5 371.5
t221.5 553.5q10 29 32 30h652q41 0 41 -47v-164q0 -16 -12.5 -29.5t-30.5 -13.5h-420v-309h366q41 0 41 -43v-168z" />
    <glyph glyph-name="Ccedilla" unicode="&#xc7;" horiz-adv-x="847" 
d="M516 -258q0 30 -30 52t-64 44t-65 48q-29 26 -29 57t10 45q-179 38 -247 211q-26 66 -25 139v706q0 152 104 256q104 103 254 103q148 1 254 -105t104 -254v-61q0 -43 -39 -43h-170q-18 0 -31 12t-14 31v61q0 43 -30 74q-31 31 -74 31t-74 -31t-31 -74v-706q0 -43 31 -74
t74 -31t74 31t30 74v61q0 15 14 31t31 16h164q17 0 31 -11t14 -34v-63q0 -150 -95 -245t-213 -110q-5 -9 -5 -25t30 -34q95 -56 129 -94t34 -96q0 -126 -254 -203h-5q-36 0 -53 69q-4 15 -4 26t10 18q160 39 160 98z" />
    <glyph glyph-name="Egrave" unicode="&#xc8;" 
d="M113 0q-41 0 -41 39v1298q0 45 41 45h635q40 0 40 -47v-164q0 -16 -12 -29t-31 -14h-419v-309h366q41 0 41 -43v-168q0 -41 -41 -43h-366v-311h419q43 0 43 -45v-170q0 -39 -40 -39h-635zM195 1788q0 18 26 18h131q43 0 62 -41l114 -237q6 -12 7 -21q0 -20 -33 -20h-131
q-23 0 -34 11t-22 30l-114 237q-6 12 -6 23z" />
    <glyph glyph-name="Eacute" unicode="&#xc9;" 
d="M113 0q-41 0 -41 39v1298q0 45 41 45h635q40 0 40 -47v-164q0 -16 -12 -29t-31 -14h-419v-309h366q41 0 41 -43v-168q0 -41 -41 -43h-366v-311h419q43 0 43 -45v-170q0 -39 -40 -39h-635zM508 1806h131q27 0 27 -18q0 -10 -7 -23l-114 -237q-9 -18 -21 -30t-35 -11h-131
q-33 0 -32 20q0 8 6 21l114 237q18 41 62 41z" />
    <glyph glyph-name="Ecircumflex" unicode="&#xca;" horiz-adv-x="866" 
d="M117 0q-41 0 -41 39v1298q0 45 41 45h635q39 0 41 -47v-164q-1 -16 -13 -29t-30 -14h-420v-309h366q41 0 41 -43v-168q0 -41 -41 -43h-366v-311h420q41 0 43 -45v-170q0 -39 -41 -39h-635zM435 1798q7 0 14 -6l217 -219q6 -6 6 -13t-6 -14l-54 -53q-6 -6 -14 -6t-12 4
l-152 154l-149 -154q-5 -4 -13 -4t-14 6l-53 55q-6 6 -6 12t6 13l217 219q6 6 13 6z" />
    <glyph glyph-name="Edieresis" unicode="&#xcb;" horiz-adv-x="862" 
d="M115 0q-41 0 -41 39v1298q0 45 41 45h635q39 0 41 -47v-164q-1 -16 -13 -29t-30 -14h-420v-309h366q41 0 41 -43v-168q0 -41 -41 -43h-366v-311h420q41 0 43 -45v-170q0 -39 -41 -39h-635zM500 1778q0 39 41 39h159q39 0 39 -39v-156q0 -16 -10 -30t-29 -15h-159
q-41 0 -41 45v156zM133 1778q0 39 39 39h162q14 -1 26 -11t13 -28v-156q1 -16 -11 -30t-28 -15h-162q-39 0 -39 45v156z" />
    <glyph glyph-name="Igrave" unicode="&#xcc;" horiz-adv-x="415" 
d="M82 1341q0 41 41 41h168q13 0 29 -11t16 -30v-1300q0 -41 -45 -41h-168q-41 0 -41 41v1300zM-33 1788q0 18 27 18h131q43 0 61 -41l115 -237q6 -12 6 -21q0 -20 -33 -20h-131q-23 0 -33 11t-22 30l-115 237q-6 12 -6 23z" />
    <glyph glyph-name="Iacute" unicode="&#xcd;" horiz-adv-x="409" 
d="M74 1341q0 41 41 41h168q14 0 29 -11t16 -30v-1300q0 -41 -45 -41h-168q-41 0 -41 41v1300zM295 1806h131q27 0 27 -18q0 -10 -7 -23l-114 -237q-10 -18 -22 -30t-34 -11h-131q-33 0 -32 20q0 8 6 21l114 237q18 41 62 41z" />
    <glyph glyph-name="Icircumflex" unicode="&#xce;" horiz-adv-x="411" 
d="M80 1341q0 41 41 41h168q14 0 29 -11t16 -30v-1300q0 -41 -45 -41h-168q-41 0 -41 41v1300zM208 1798q7 0 13 -6l217 -219q6 -6 6 -13t-6 -14l-53 -53q-6 -6 -14 -6t-13 4l-151 154l-150 -154q-4 -4 -12 -4t-14 6l-54 55q-6 6 -6 12t6 13l218 219q6 6 13 6z" />
    <glyph glyph-name="Idieresis" unicode="&#xcf;" horiz-adv-x="411" 
d="M82 1341q0 41 41 41h168q13 0 29 -11t16 -30v-1300q0 -41 -45 -41h-168q-41 0 -41 41v1300zM272 1778q0 39 41 39h160q39 0 39 -39v-156q0 -16 -10 -30t-29 -15h-160q-41 0 -41 45v156zM-94 1778q0 39 39 39h161q14 -1 26 -11t13 -28v-156q0 -16 -11 -30t-28 -15h-161
q-39 0 -39 45v156z" />
    <glyph glyph-name="Eth" unicode="&#xd0;" horiz-adv-x="962" 
d="M436 1128v-309h80q16 0 28.5 -10t12.5 -31v-168q0 -14 -11 -29.5t-30 -15.5h-80v-311h105q43 0 73.5 30.5t30.5 73.5v666q0 43 -30.5 73.5t-73.5 30.5h-105zM182 1337q0 45 45 45h314q149 0 253.5 -97t104.5 -261v-666q0 -149 -104.5 -253.5t-253.5 -104.5h-314
q-14 0 -29.5 5t-15.5 32v528h-80q-41 0 -41 45v168q0 41 41 41h80v518z" />
    <glyph glyph-name="Ntilde" unicode="&#xd1;" 
d="M281 1382q27 0 43 -28v-4l211 -605v596q0 41 40 41h168q13 0 29 -11t16 -30v-1300q0 -41 -45 -41h-168q-25 0 -31 12t-16 33l-202 584v-588q0 -41 -45 -41h-168q-41 0 -41 41v1300q0 41 41 41h168zM507 1706q20 0 36 23l18 26q4 8 13 8t18 -6l70 -47q12 -8 4 -29l-19 -24
q-55 -76 -147 -76q-57 0 -103 31l-37 24q-45 28 -71 -10l-19 -27q-6 -10 -14 -10t-16 6l-70 47q-14 12 -4 29l18 27q33 45 66 60q33 16 85 16t97 -33l39 -25q16 -10 36 -10z" />
    <glyph glyph-name="Ograve" unicode="&#xd2;" horiz-adv-x="841" 
d="M526 1044q0 43 -30 74q-31 31 -74 31t-74 -31t-31 -74v-706q0 -43 31 -74t74 -31t74 31t30 74v706zM63 1044q0 151 105 255t254 104q148 1 254 -105t104 -254v-706q0 -150 -105 -255t-254 -104t-253 105t-105 254v706zM184 1788q0 18 27 18h131q43 0 61 -41l115 -237
q6 -12 6 -21q0 -20 -32 -20h-132q-24 0 -34 11t-21 30l-115 237q-6 12 -6 23z" />
    <glyph glyph-name="Oacute" unicode="&#xd3;" horiz-adv-x="866" 
d="M537 1044q0 43 -31 74t-74 31t-74 -31t-30 -74v-706q0 -43 30 -74t74 -31q43 0 74 31t31 74v706zM74 1044q0 152 104 256q104 103 254 103q149 0 254 -105t105 -254v-706q0 -149 -106 -255t-254 -104q-149 1 -254 106t-103 253v706zM518 1806h131q27 0 27 -18
q0 -10 -6 -23l-115 -237q-10 -18 -21 -30t-34 -11h-131q-33 0 -33 20q0 8 6 21l115 237q18 41 61 41z" />
    <glyph glyph-name="Ocircumflex" unicode="&#xd4;" 
d="M535 1044q0 43 -31 74t-74 31t-74 -31t-30 -74v-706q0 -43 30 -74t74 -31q43 0 74 31t31 74v706zM72 1044q0 152 104 256q104 103 254 103q148 1 254 -105t104 -254v-706q0 -150 -105 -255t-254 -104t-254 106t-103 253v706zM433 1798q7 0 13 -6l218 -219q6 -6 6 -13
t-6 -14l-54 -53q-6 -6 -14 -6t-12 4l-152 154l-149 -154q-5 -4 -13 -4t-14 6l-53 55q-6 6 -6 12t6 13l217 219q6 6 13 6z" />
    <glyph glyph-name="Otilde" unicode="&#xd5;" horiz-adv-x="851" 
d="M532 1044q0 43 -30 74q-31 31 -74 31t-74 -31t-30 -74v-706q0 -43 30 -74t74 -31q43 0 74 31t30 74v706zM70 1044q0 152 104 256q104 103 254 103q148 1 254 -105t104 -254v-706q0 -150 -105 -255t-254 -104t-254 106t-103 253v706zM517 1661q20 0 36 22l18 27q3 8 13 8
t18 -6l70 -47q12 -8 4 -29l-19 -24q-55 -76 -147 -76q-57 0 -102 31l-37 24q-46 29 -72 -10l-18 -27q-7 -10 -15 -10t-16 6l-70 47q-14 12 -4 29l19 27q33 45 65 60t85 15q52 0 97 -32l39 -25q16 -10 36 -10z" />
    <glyph glyph-name="Odieresis" unicode="&#xd6;" horiz-adv-x="862" 
d="M535 1044q0 43 -31 74t-74 31t-74 -31t-30 -74v-706q0 -43 30 -74t74 -31q43 0 74 31t31 74v706zM72 1044q0 152 104 256q104 103 254 103q148 1 254 -105t104 -254v-706q0 -150 -105 -255t-254 -104t-254 106t-103 253v706zM489 1778q0 39 41 39h160q39 0 39 -39v-156
q0 -16 -10 -30t-29 -15h-160q-41 0 -41 45v156zM123 1778q0 39 39 39h162q14 -1 26 -11t12 -28v-156q0 -16 -11 -30t-27 -15h-162q-39 0 -39 45v156z" />
    <glyph glyph-name="multiply" unicode="&#xd7;" horiz-adv-x="765" 
d="M188 827q29 29 58 0l135 -133l135 133q30 30 59 -2l119 -118q29 -29 0 -58l-133 -135l133 -135q32 -32 0 -57l-119 -119q-12 -13 -30 -13t-29 11l-135 133l-135 -133q-31 -31 -58 0l-118 118q-12 9 -12 29t10 31l133 135l-133 135q-29 29 2 60z" />
    <glyph glyph-name="Oslash" unicode="&#xd8;" 
d="M229 0h-196q-39 0 -39 27q0 -6 4 14l104 231q-6 32 -6 66v706q0 151 105 255t254 104q84 0 152 -34q13 13 38 13h176q47 0 47 -28q0 -10 -2 -13l-76 -169q23 -61 23 -128v-706q0 -148 -104 -254q-105 -104 -269 -104q-88 0 -168 49q-6 -13 -14 -21t-29 -8zM444 1149
q-32 0 -63 -31t-31 -74v-224l145 321q-19 8 -51 8zM455 233q43 0 73 31t31 74v324l-179 -397q32 -32 75 -32z" />
    <glyph glyph-name="Ugrave" unicode="&#xd9;" horiz-adv-x="862" 
d="M285 1382q41 0 43 -41v-1003q0 -43 30 -74t74 -31q43 0 74 31t31 74v1003q0 41 45 41h170q39 0 39 -41v-1003q0 -149 -106 -255t-254 -104q-149 1 -254 106t-103 253v1003q0 17 11 29t32 12h168zM180 1788q0 18 27 18h131q43 0 61 -41l115 -237q6 -12 6 -21
q0 -20 -33 -20h-131q-24 0 -34 11t-21 30l-115 237q-6 12 -6 23z" />
    <glyph glyph-name="Uacute" unicode="&#xda;" horiz-adv-x="866" 
d="M287 1382q41 0 43 -41v-1003q0 -43 30 -74t74 -31q43 0 74 31t31 74v1003q0 41 45 41h170q39 0 39 -41v-1003q0 -149 -106 -255t-254 -104q-149 1 -254 106t-103 253v1003q0 17 11 29t32 12h168zM520 1806h131q27 0 27 -18q0 -10 -6 -23l-115 -237q-10 -18 -21 -30
t-34 -11h-131q-33 0 -33 20q0 8 6 21l115 237q18 41 61 41z" />
    <glyph glyph-name="Ucircumflex" unicode="&#xdb;" horiz-adv-x="866" 
d="M287 1382q41 0 43 -41v-1003q0 -43 30 -74t74 -31q43 0 74 31t31 74v1003q0 41 45 41h170q39 0 39 -41v-1003q0 -149 -106 -255t-254 -104q-149 1 -254 106t-103 253v1003q0 17 11 29t32 12h168zM433 1798q7 0 13 -6l218 -219q6 -6 6 -13t-6 -14l-54 -53q-6 -6 -14 -6
t-12 4l-152 154l-149 -154q-5 -4 -13 -4t-14 6l-53 55q-6 6 -6 12t6 13l217 219q6 6 13 6z" />
    <glyph glyph-name="Udieresis" unicode="&#xdc;" horiz-adv-x="872" 
d="M289 1382q41 0 43 -41v-1003q0 -43 30 -74t74 -31q43 0 74 31t31 74v1003q0 41 45 41h170q39 0 39 -41v-1003q0 -149 -106 -255t-254 -104q-149 1 -254 106t-103 253v1003q0 17 11 29t32 12h168zM504 1780q0 39 41 39h160q39 0 38 -39v-156q0 -16 -10 -30t-28 -15h-160
q-41 0 -41 45v156zM137 1780q0 39 39 39h162q14 -1 26 -11t13 -28v-156q0 -16 -11 -30t-28 -15h-162q-39 0 -39 45v156z" />
    <glyph glyph-name="Yacute" unicode="&#xdd;" horiz-adv-x="890" 
d="M88 1382h195q25 0 32 -20l131 -416l138 416q7 20 24 20h197q16 0 25 -15t6 -24q-2 -10 -10 -30q-8 -19 -24 -63q-15 -44 -58 -160t-166 -455v-588q0 -47 -41 -47h-179q-16 0 -26 13t-10 34v588q-267 704 -269 714q-2 11 8 22t27 11zM520 1806h131q27 0 27 -18
q0 -10 -6 -23l-115 -237q-10 -18 -21 -30t-34 -11h-131q-33 0 -33 20q0 8 6 21l115 237q18 41 61 41z" />
    <glyph glyph-name="germandbls" unicode="&#xdf;" horiz-adv-x="1032" 
d="M432 840q0 41 52 41q32 0 63 30.5t31 73.5v39q0 43 -31 73.5t-74 30.5h-145v-1087q0 -41 -45 -41h-162q-18 0 -32.5 10t-14.5 27v1300q0 16 12 30.5t35 14.5h352q150 0 254 -104t104 -254v-51q0 -61 -22.5 -106.5t-87.5 -86.5q134 -40 171.5 -115t37.5 -141v-166
q0 -144 -101.5 -249t-250.5 -109h-105q-41 0 -41 41v172q0 16 10.5 28.5t30.5 12.5h102q41 4 71 33.5t30 70.5v164q0 109 -203 109q-41 0 -41 41v168z" />
    <glyph glyph-name="agrave" unicode="&#xe0;" horiz-adv-x="831" 
d="M418 446q-43 0 -74 -32t-31 -76q0 -43 31 -74t74 -31t74 31t30 74v108h-104zM776 39q0 -39 -41 -39h-176q-12 0 -14 2q-140 -47 -270 7q-130 55 -188 190q-28 65 -28 139t28 138q56 129 192 183q66 27 139 27h104q0 41 -30 73q-31 32 -72 32q-41 1 -71 -23
q-31 -24 -43 -36t-28 -11q-15 0 -30 14l-115 117q-21 21 -10 41q43 78 125 115q158 72 301 12t200 -195q28 -66 27 -139v-647zM195 1403q0 18 26 18h131q43 0 62 -41l114 -237q6 -12 7 -21q0 -20 -33 -20h-131q-23 0 -34 11t-22 30l-114 237q-6 12 -6 23z" />
    <glyph glyph-name="aacute" unicode="&#xe1;" horiz-adv-x="841" 
d="M422 446q-43 0 -74 -32t-31 -76q0 -43 31 -74t74 -31t74 31t30 74v108h-104zM780 39q0 -39 -41 -39h-176q-12 0 -14 2q-140 -47 -270 7q-130 55 -188 190q-28 65 -28 139t28 138q56 129 192 183q66 27 139 27h104q0 41 -30 73q-31 32 -72 32q-41 1 -71 -23
q-31 -24 -43 -36t-28 -11q-15 0 -30 14l-115 117q-21 21 -10 41q43 78 125 115q158 72 301 12t200 -195q28 -66 27 -139v-647zM510 1421h131q27 0 27 -18q0 -10 -6 -23l-115 -237q-23 -41 -55 -41h-132q-33 0 -32 20q0 8 6 21l115 237q18 41 61 41z" />
    <glyph glyph-name="acircumflex" unicode="&#xe2;" horiz-adv-x="837" 
d="M420 446q-43 0 -74 -32t-31 -76q0 -43 31 -74t74 -31t74 31t30 74v108h-104zM778 39q0 -39 -41 -39h-176q-12 0 -14 2q-140 -47 -270 7q-130 55 -188 190q-28 65 -28 139t28 138q56 129 192 183q66 27 139 27h104q0 41 -30 73q-31 32 -72 32q-41 1 -71 -23
q-31 -24 -43 -36t-28 -11q-15 0 -30 14l-115 117q-21 21 -10 41q43 78 125 115q158 72 301 12t200 -195q28 -66 27 -139v-647zM431 1415q7 0 13 -6l218 -219q6 -6 6 -13t-6 -14l-54 -53q-6 -6 -14 -6t-12 4l-152 154l-149 -154q-5 -4 -13 -4t-14 6l-53 55q-6 7 -6 13t6 12
l217 219q6 6 13 6z" />
    <glyph glyph-name="atilde" unicode="&#xe3;" horiz-adv-x="831" 
d="M418 446q-43 0 -74 -32t-31 -76q0 -43 31 -74t74 -31t74 31t30 74v108h-104zM776 39q0 -39 -41 -39h-176q-12 0 -14 2q-140 -47 -270 7q-130 55 -188 190q-28 65 -28 139t28 138q56 129 192 183q66 27 139 27h104q0 41 -30 73q-31 32 -72 32q-41 1 -71 -23
q-31 -24 -43 -36t-28 -11q-15 0 -30 14l-115 117q-21 21 -10 41q43 78 125 115q158 72 301 12t200 -195q28 -66 27 -139v-647zM345 1370q52 0 97 -33l39 -24q16 -10 36 -10t36 22l18 27q3 8 13 8t18 -6l70 -47q12 -8 4 -29l-19 -25q-55 -76 -147 -75q-57 0 -102 30l-37 25
q-16 10 -37 10t-35 -20l-18 -27q-7 -10 -15 -10t-16 6l-70 47q-14 12 -4 29l19 26q33 44 65 60t85 16z" />
    <glyph glyph-name="adieresis" unicode="&#xe4;" horiz-adv-x="847" 
d="M424 446q-43 0 -74 -32t-31 -76q0 -43 31 -74t74 -31t74 31t30 74v108h-104zM782 39q0 -39 -41 -39h-176q-12 0 -14 2q-140 -47 -270 7q-130 55 -189 192q-58 136 0 270q57 134 193 188q66 27 139 27h104q0 41 -30 73q-31 32 -72 32q-41 1 -71 -23q-31 -24 -43 -36
t-28 -11q-15 0 -30 14l-115 117q-21 21 -10 41q43 78 125 115q158 72 301 12t200 -195q28 -66 27 -139v-647zM520 1378q0 39 41 39h160q39 0 39 -39v-155q0 -17 -10 -31t-29 -14h-160q-41 0 -41 45v155zM154 1378q0 39 39 39h161q14 0 26 -10t13 -29v-155q0 -17 -11 -31
t-28 -14h-161q-39 0 -39 45v155z" />
    <glyph glyph-name="aring" unicode="&#xe5;" horiz-adv-x="837" 
d="M418 446q-43 0 -74 -32.5t-31 -75.5t31 -74t74 -31t73.5 31t30.5 74v108h-104zM411 1044q157 0 261 -104t104 -254v-647q0 -39 -41 -39h-176q-12 0 -14 2q-140 -47 -270 7.5t-173 154.5t-43 212t105 211t254 99h104q0 41 -30.5 73t-66.5 32t-56.5 -11.5t-36 -24
t-27.5 -23.5t-27 -11t-30 14l-115 117q-21 21 -10 41q43 78 125 114.5t163 36.5zM422 1432q-41 0 -68.5 -29t-27.5 -70t27.5 -68.5t68.5 -27.5t69.5 27.5t28.5 68.5t-28.5 70t-69.5 29zM422 1530q82 0 139 -57.5t57 -139.5t-57 -138t-139 -56t-138.5 56t-56.5 138
t56.5 139.5t138.5 57.5z" />
    <glyph glyph-name="ae" unicode="&#xe6;" horiz-adv-x="1308" 
d="M422 446q-43 0 -74 -32t-31 -76q0 -43 31 -74t74 -31t74 31t30 74v108h-104zM1198 358q45 0 45 -65q0 -43 -28 -103q-29 -60 -77 -107q-111 -105 -253 -103q-67 0 -128 22q-8 -2 -18 -2h-176q-12 0 -14 2q-140 -47 -270 7q-130 55 -188 190q-28 65 -28 139t28 138
q56 129 192 183q66 27 139 27h104q0 41 -30 73q-31 32 -72 32q-41 1 -71 -23q-31 -24 -43 -36t-28 -11q-15 0 -30 14l-115 117q-21 21 -10 41q43 78 125 115t170 36q131 0 231 -83q99 85 241 84q141 -1 245 -105t104 -254v-194q0 -44 -41 -46h-422v-108q0 -43 31 -74t79 -31
q73 0 97 63q8 24 15 43t32 19h164zM989 672q0 72 -31 98q-32 26 -74 27q-42 0 -72 -28t-32 -97h209z" />
    <glyph glyph-name="ccedilla" unicode="&#xe7;" horiz-adv-x="851" 
d="M739 358q45 0 45 -56t-28 -115q-56 -123 -191 -180q-27 -11 -55 -18q-14 -13 -14 -32t30 -37q98 -60 130 -95q32 -37 32 -95q0 -127 -254 -203h-4q-36 0 -53 69q-4 15 -4 26t10 18q160 39 160 98q0 30 -30 52q-31 22 -65 44t-64 48t-30 57t11 46q-114 20 -193 99
q-106 106 -104 254v348q0 150 105 255t252 104t254 -104t105 -226q0 -43 -39 -43h-170q-25 0 -31 18q-22 61 -44 80q-22 20 -70 20t-78 -30q-31 -31 -30 -74v-348q0 -43 30 -74t78 -31q48 -1 68 19t29 44t17 43t31 19h164z" />
    <glyph glyph-name="egrave" unicode="&#xe8;" horiz-adv-x="847" 
d="M528 672q0 72 -30 98t-74 27q-43 0 -73 -28t-32 -97h209zM737 358q45 0 45 -65q0 -43 -28 -103t-76 -107q-112 -105 -258 -104t-251 106t-103 253v348q0 150 105 255t254 104t254 -106t103 -253v-194q0 -44 -41 -46h-422v-108q0 -43 31 -74t79 -31q49 -1 69 19t28 44
t16 43t31 19h164zM176 1403q0 18 27 18h131q43 0 61 -41l115 -237q6 -12 6 -21q0 -20 -33 -20h-131q-23 0 -34 11t-21 30l-115 237q-6 12 -6 23z" />
    <glyph glyph-name="eacute" unicode="&#xe9;" 
d="M532 672q0 72 -30 98t-74 27q-43 0 -73 -28t-31 -97h208zM741 358q45 0 45 -65q0 -43 -28 -103t-76 -107q-112 -105 -258 -104t-251 106t-103 253v348q0 150 105 255t254 104t254 -106t103 -253v-194q0 -44 -41 -46h-421v-108q0 -43 30 -74t79 -31q49 -1 69 19t28 44
t16 43t32 19h163zM520 1421h131q27 0 27 -18q0 -10 -6 -23l-115 -237q-10 -17 -21 -29t-34 -12h-131q-33 0 -33 20q0 8 6 21l115 237q18 41 61 41z" />
    <glyph glyph-name="ecircumflex" unicode="&#xea;" horiz-adv-x="866" 
d="M537 672q0 72 -31 98t-74 27q-43 0 -73 -28t-31 -97h209zM745 358q44 0 46 -45q0 -131 -108 -233t-255 -101q-146 1 -251 106t-103 253v348q0 150 105 255t254 104t253 -105t105 -254v-194q-1 -23 -13 -34t-28 -12h-422v-108q0 -43 30 -74t79 -31q74 0 98 63q8 24 15 43
t32 19h163zM414 1417q8 0 14 -6l217 -219q6 -6 6 -13t-6 -14l-53 -53q-6 -6 -14 -6t-13 4l-151 154l-150 -154q-4 -4 -12 -4t-14 6l-54 55q-6 7 -6 13t6 12l217 219q5 6 13 6z" />
    <glyph glyph-name="edieresis" unicode="&#xeb;" horiz-adv-x="851" 
d="M530 672q0 72 -30 98t-74 27q-43 0 -73 -28t-31 -97h208zM739 358q45 0 45 -65q0 -43 -28 -103t-76 -107q-112 -105 -258 -104t-251 106t-103 253v348q0 150 105 255t254 104t254 -106t103 -253v-194q0 -44 -41 -46h-421v-108q0 -43 30 -74t79 -31q49 -1 69 19t28 44
t16 43t31 19h164zM506 1378q0 39 41 39h160q39 0 38 -39v-155q0 -17 -10 -31t-28 -14h-160q-41 0 -41 45v155zM139 1378q0 39 39 39h162q14 0 26 -10t13 -29v-155q0 -17 -11 -31t-28 -14h-162q-39 0 -39 45v155z" />
    <glyph glyph-name="igrave" unicode="&#xec;" horiz-adv-x="417" 
d="M2 1421h131q43 0 62 -41l114 -237q6 -12 6 -21q0 -20 -32 -20h-131q-34 0 -56 41l-114 237q-20 41 20 41zM92 983q0 16 10.5 28.5t30.5 12.5h168q14 0 29.5 -11.5t15.5 -29.5v-942q0 -41 -45 -41h-168q-41 0 -41 41v942z" />
    <glyph glyph-name="iacute" unicode="&#xed;" horiz-adv-x="399" 
d="M289 1421h131q27 0 26 -18q0 -10 -6 -23l-114 -237q-10 -18 -21.5 -29.5t-34.5 -11.5h-131q-33 0 -33 20q0 8 7 21l114 237q18 41 62 41zM70 983q0 41 41 41h168q14 0 29.5 -11.5t15.5 -29.5v-942q0 -41 -45 -41h-168q-41 0 -41 41v942z" />
    <glyph glyph-name="icircumflex" unicode="&#xee;" horiz-adv-x="425" 
d="M214 1413q7 0 13 -6l217 -219q14 -14 0 -27l-53 -53q-6 -6 -14 -6t-12 4l-152 154l-150 -154q-4 -4 -12 -4t-14 6l-53 55q-13 13 0 25l217 219q6 6 13 6zM84 983q0 41 41 41h168q14 0 29.5 -11.5t15.5 -29.5v-942q0 -41 -45 -41h-168q-41 0 -41 41v942z" />
    <glyph glyph-name="idieresis" unicode="&#xef;" horiz-adv-x="450" 
d="M297 1378q0 39 41 39h160q39 0 39 -39v-155q0 -16 -10.5 -30.5t-28.5 -14.5h-160q-41 0 -41 45v155zM-70 1378q0 39 39 39h162q14 0 26.5 -10t12.5 -29v-155q0 -16 -11.5 -30.5t-27.5 -14.5h-162q-39 0 -39 45v155zM98 983q0 16 10.5 28.5t30.5 12.5h168q14 0 29.5 -11.5
t15.5 -29.5v-942q0 -41 -45 -41h-168q-41 0 -41 41v942z" />
    <glyph glyph-name="ntilde" unicode="&#xf1;" horiz-adv-x="876" 
d="M447 1044q65 0 131 -28t114 -76q104 -106 105 -254v-645q1 -17 -13 -29t-30 -12h-170q-16 0 -29 10q-12 10 -12 31v645q0 41 -31 73t-73 32q-41 0 -73 -31t-32 -72v-647q0 -41 -43 -41h-170q-41 0 -41 41v942q0 41 41 41h168l18 -4q75 24 140 24zM337 1370q52 0 97 -33
l39 -24q16 -10 36 -10t36 22l18 27q3 8 13 8t18 -6l70 -47q12 -8 4 -29l-19 -25q-55 -76 -147 -75q-57 0 -103 30l-37 25q-16 10 -36 10t-35 -20l-19 -27q-6 -10 -14 -10t-16 6l-70 47q-14 12 -4 29l18 26q33 44 66 60t85 16z" />
    <glyph glyph-name="ograve" unicode="&#xf2;" horiz-adv-x="872" 
d="M541 686q0 43 -31 74t-74 31t-74 -31t-30 -74v-348q0 -43 30 -74t74 -31q43 0 74 31t31 74v348zM78 686q0 150 105 255t254 104t253 -105t105 -254v-348q0 -149 -106 -255t-254 -104q-149 1 -254 106t-103 253v348zM215 1421h131q43 0 62 -41l114 -237q6 -12 6 -21
q0 -20 -32 -20h-131q-23 0 -34 11t-22 30l-114 237q-20 41 20 41z" />
    <glyph glyph-name="oacute" unicode="&#xf3;" horiz-adv-x="866" 
d="M537 686q0 43 -31 74t-74 31t-74 -31t-30 -74v-348q0 -43 30 -74t74 -31q43 0 74 31t31 74v348zM74 686q0 150 105 255t254 104t253 -105t105 -254v-348q0 -149 -106 -255t-254 -104q-149 1 -254 106t-103 253v348zM514 1421h131q27 0 27 -18q0 -10 -6 -23l-115 -237
q-23 -41 -55 -41h-131q-33 0 -33 20q0 8 6 21l115 237q18 41 61 41z" />
    <glyph glyph-name="ocircumflex" unicode="&#xf4;" horiz-adv-x="862" 
d="M535 686q0 43 -31 74t-74 31t-74 -31t-30 -74v-348q0 -43 30 -74t74 -31q43 0 74 31t31 74v348zM72 686q0 150 105 255t254 104t254 -106t103 -253v-348q0 -150 -105 -255t-254 -104t-254 106t-103 253v348zM429 1417q7 0 13 -6l217 -219q14 -14 0 -27l-53 -53
q-6 -6 -14 -6t-12 4l-152 154l-149 -154q-5 -4 -13 -4t-14 6l-53 55q-6 7 -6 13t6 12l217 219q6 6 13 6z" />
    <glyph glyph-name="otilde" unicode="&#xf5;" horiz-adv-x="876" 
d="M543 686q0 43 -31 74t-74 31q-44 0 -74 -31t-30 -74v-348q0 -43 31 -74t73 -31t74 31q31 31 31 74v348zM80 686q0 148 104 254q106 106 256 105t254 -105q103 -104 103 -254v-348q1 -148 -105 -254t-255 -105t-253 105t-104 254v348zM359 1370q52 0 98 -33l39 -24
q16 -10 36 -10t35 22l19 27q4 8 13 8t17 -6l70 -47q12 -8 4 -29l-18 -25q-55 -76 -148 -75q-57 0 -102 30l-37 25q-16 10 -37 10t-35 -20l-18 -27q-6 -10 -14 -10t-17 6l-69 47q-14 12 -5 29l19 26q33 44 65 60t85 16z" />
    <glyph glyph-name="odieresis" unicode="&#xf6;" 
d="M532 686q0 43 -30 74q-31 31 -74 31t-74 -31t-30 -74v-348q0 -43 30 -74t74 -31q43 0 74 31t30 74v348zM70 686q0 150 105 255t254 104t254 -106t103 -253v-348q0 -150 -105 -255t-254 -104t-254 106t-103 253v348zM494 1378q0 39 41 39h159q39 0 39 -39v-155
q0 -17 -10 -31t-29 -14h-159q-41 0 -41 45v155zM127 1378q0 39 39 39h162q14 0 26 -10t13 -29v-155q1 -17 -11 -31t-28 -14h-162q-39 0 -39 45v155z" />
    <glyph glyph-name="divide" unicode="&#xf7;" horiz-adv-x="841" 
d="M297 274q0 41 41 41h172q16 0 28 -10t13 -31v-168q0 -14 -11 -29t-30 -16h-172q-41 0 -41 45v168zM297 922q0 41 41 41h172q16 -1 28 -11t13 -30v-168q0 -14 -11 -30t-30 -15h-172q-41 0 -41 45v168zM63 600q0 41 41 41h635q17 0 29 -10t12 -31v-168q0 -14 -11 -30
t-30 -15h-635q-41 0 -41 45v168z" />
    <glyph glyph-name="oslash" unicode="&#xf8;" horiz-adv-x="847" 
d="M66 686q0 150 105 255t253 103q63 0 121 -20h128q35 0 35 -21q0 -8 -2 -9l-25 -57q103 -105 101 -251v-348q0 -150 -105 -255t-253 -103q-86 0 -160 37q-11 -17 -30 -17h-145q-29 0 -29 20q0 -5 3 10l54 121q-52 86 -51 187v348zM319 686v-88l87 191q-32 -5 -60 -33
t-27 -70zM369 249q24 -15 61 -15t68 30q31 31 30 74v262z" />
    <glyph glyph-name="ugrave" unicode="&#xf9;" horiz-adv-x="876" 
d="M291 1024q43 0 43 -41v-645q0 -43 31 -74t73 -31t74 31q31 31 31 74v645q0 41 45 41h170q39 0 39 -41v-942q0 -41 -45 -41h-168q-16 0 -19 2q-140 -47 -271 8t-186 189q-28 66 -28 139v645q0 17 11 29t32 12h168zM197 1403q0 18 26 18h131q43 0 62 -41l114 -237
q6 -12 7 -21q0 -20 -33 -20h-131q-23 0 -34 11t-22 30l-114 237q-6 12 -6 23z" />
    <glyph glyph-name="uacute" unicode="&#xfa;" horiz-adv-x="882" 
d="M293 1024q43 0 43 -41v-645q0 -43 31 -74t73 -31t74 31q31 31 31 74v645q0 41 45 41h170q39 0 39 -41v-942q0 -41 -45 -41h-168q-16 0 -19 2q-140 -47 -271 8t-186 189q-28 66 -28 139v645q0 17 11 29t32 12h168zM539 1421h131q27 0 26 -18q0 -10 -6 -23l-115 -237
q-10 -17 -21 -29t-34 -12h-131q-33 0 -33 20q0 8 6 21l115 237q18 41 62 41z" />
    <glyph glyph-name="ucircumflex" unicode="&#xfb;" horiz-adv-x="897" 
d="M301 1024q43 0 43 -41v-645q0 -43 31 -74t74 -31t73 31t31 74v645q0 41 45 41h170q39 0 39 -41v-942q0 -41 -45 -41h-168q-16 0 -19 2q-139 -47 -269 7t-188 190q-28 66 -28 139v645q0 17 11 29t32 12h168zM458 1415q8 0 13 -6l217 -219q6 -6 6 -13t-6 -14l-53 -53
q-6 -6 -14 -6t-13 4l-151 154l-150 -154q-4 -4 -12 -4t-14 6l-54 55q-6 7 -6 13t6 12l217 219q6 6 14 6z" />
    <glyph glyph-name="udieresis" unicode="&#xfc;" horiz-adv-x="872" 
d="M289 1024q41 0 43 -41v-645q0 -43 30 -74t74 -31q43 0 74 31t31 74v645q0 41 45 41h170q39 0 39 -41v-942q0 -41 -45 -41h-168q-16 0 -19 2q-140 -47 -270 7q-130 55 -188 190q-28 66 -27 139v645q0 17 11 29t32 12h168zM510 1378q0 39 41 39h160q39 0 39 -39v-155
q0 -17 -10 -31t-29 -14h-160q-41 0 -41 45v155zM143 1378q0 39 39 39h162q14 0 26 -10t13 -29v-155q0 -17 -11 -31t-28 -14h-162q-39 0 -39 45v155z" />
    <glyph glyph-name="yacute" unicode="&#xfd;" horiz-adv-x="841" 
d="M274 1024q43 0 43 -41v-645q0 -43 31 -74t73 -31t72 28t33 69v657q0 13 10 25t27 12h178q19 0 29 -11t10 -26v-1007q0 -152 -104 -256q-104 -103 -254 -103q-88 0 -167 39t-128 113q-10 23 10 41l115 116q31 26 57 2q12 -10 40 -34t72 -23q44 0 75 31t30 74v16
q-58 -16 -118 -16t-126 28t-114 76q-105 105 -105 254v645q-1 17 11 29t32 12h168zM512 1421h131q27 0 27 -18q0 -10 -6 -23l-115 -237q-23 -41 -55 -41h-132q-33 0 -32 20q0 8 6 21l115 237q18 41 61 41z" />
    <glyph glyph-name="ydieresis" unicode="&#xff;" horiz-adv-x="847" 
d="M279 1024q41 0 43 -41v-645q0 -43 30 -74t73 -31q42 0 72 28t33 69v657q0 13 10 25t27 12h178q19 0 29 -11t10 -26v-1007q0 -152 -104 -256q-104 -103 -254 -103q-88 0 -167 39t-128 113q-10 23 10 41l115 116q31 26 57 2q12 -10 40 -33t72 -24q44 0 75 31t30 74v16
q-58 -16 -118 -16t-126 28t-114 76q-106 106 -104 254v645q0 17 11 29t32 12h168zM496 1378q0 39 41 39h159q39 0 39 -39v-155q0 -17 -10 -31t-29 -14h-159q-41 0 -41 45v155zM129 1378q0 39 39 39h162q14 0 26 -10t13 -29v-155q1 -17 -11 -31t-28 -14h-162q-39 0 -39 45
v155z" />
    <glyph glyph-name="Abreve" unicode="&#x102;" horiz-adv-x="882" 
d="M440 780l-67 -362h135zM618 0q-10 0 -23 7t-15 22l-27 139h-227l-25 -139q-6 -25 -35 -29h-180q-14 0 -27 9q-12 9 -12 26l262 1317q10 29 33 30h199q20 -6 30 -30l265 -1309q0 -41 -45 -43h-173zM231 1629q0 3 -1 10t8 14l77 53q3 4 15 4t18 -6l43 -53q20 -25 49 -25
t52 25l40 53q6 6 14 6t21 -4l76 -53q10 -5 9 -13t-1 -10l-2 -8q-63 -80 -112 -108q-95 -54 -192 0q-48 28 -112 108q-2 4 -2 7z" />
    <glyph glyph-name="abreve" unicode="&#x103;" horiz-adv-x="841" 
d="M422 446q-43 0 -74 -32t-31 -76q0 -43 31 -74t74 -31t74 31t30 74v108h-104zM780 39q0 -39 -41 -39h-176q-12 0 -14 2q-140 -47 -270 7q-130 55 -188 190q-28 65 -28 139t28 138q56 129 192 183q66 27 139 27h104q0 41 -30 73q-31 32 -72 32q-41 1 -71 -23
q-31 -24 -43 -36t-28 -11q-15 0 -30 14l-115 117q-21 21 -10 41q43 78 125 115q158 72 301 12t200 -195q28 -66 27 -139v-647zM416 1104q-47 0 -95 28t-112 107q-2 4 -2 7t-1 10t7 14l78 53q4 4 15 4t18 -6l43 -53q20 -25 49 -25t51 25l41 53q6 6 14 6t21 -4l75 -53
q10 -6 10 -14t-1 -9l-2 -8q-63 -79 -113 -107t-96 -28z" />
    <glyph glyph-name="Cacute" unicode="&#x106;" horiz-adv-x="866" 
d="M745 446q44 0 46 -45v-63q0 -149 -106 -255t-261 -104q-156 1 -254 106t-96 253v706q0 152 104 256q104 103 254 103q149 0 254 -105t105 -254v-61q-1 -19 -11 -31t-28 -12h-170q-18 0 -32 12q-13 12 -13 31v61q0 43 -31 74t-74 31t-74 -31t-30 -74v-706q0 -43 30 -74
t74 -31q43 0 74 31t31 74v61q0 15 13 31t32 16h163zM510 1806h131q27 0 27 -18q0 -10 -6 -23l-115 -237q-23 -41 -55 -41h-132q-33 0 -32 20q0 8 6 21l115 237q18 41 61 41z" />
    <glyph glyph-name="cacute" unicode="&#x107;" horiz-adv-x="851" 
d="M739 358q45 0 45 -56t-28 -115q-28 -60 -76 -106q-110 -103 -257 -102t-252 106t-103 253v348q0 150 105 255t252 104t255 -105q49 -47 77 -106q27 -58 27 -110t-39 -52h-170q-25 0 -31 18q-22 61 -44 80q-22 20 -70 20t-78 -30q-31 -31 -30 -74v-348q0 -43 30 -74
t78 -31q48 -1 68 19t29 44t17 43t31 19h164zM510 1419h131q27 0 27 -18q0 -10 -6 -23l-115 -237q-23 -41 -55 -41h-132q-33 0 -32 20q0 8 6 21l115 237q18 41 61 41z" />
    <glyph glyph-name="Ccircumflex" unicode="&#x108;" 
d="M786 983q0 -43 -38 -43h-170q-18 0 -32 12q-13 12 -14 31v61q0 43 -30 74q-31 31 -74 31t-74 -31t-30 -74v-706q0 -43 30 -74t74 -31q43 0 74 31t30 74v61q0 15 14 31t32 16h163q17 0 31 -11t14 -34v-63q0 -150 -105 -255t-261 -104t-254 106t-96 253v706q0 152 104 256
q104 103 254 103q148 1 254 -105t104 -254v-61zM412 1798q8 0 14 -6l217 -219q6 -6 6 -13t-6 -14l-53 -53q-6 -6 -14 -6t-13 4l-151 154l-150 -154q-4 -4 -12 -4t-14 6l-54 55q-6 6 -6 12t6 13l217 219q5 6 13 6z" />
    <glyph glyph-name="ccircumflex" unicode="&#x109;" horiz-adv-x="837" 
d="M731 358q45 0 45 -56t-28 -115q-28 -60 -76 -106q-110 -103 -257 -102t-251 105t-105 254v348q0 149 106 255t252 104q147 -1 255 -105q49 -47 77 -106q27 -58 27 -110t-39 -52h-170q-25 0 -31 18q-22 61 -45 81q-22 19 -69 19t-78 -30q-31 -31 -31 -74v-348
q0 -43 31 -74t78 -31q47 -1 67 19t30 44q9 24 17 43t31 19h164zM408 1417q8 0 14 -6l217 -219q6 -6 6 -13t-6 -14l-53 -53q-6 -6 -14 -6t-13 4l-151 154l-150 -154q-4 -4 -12 -4t-15 6l-53 55q-6 7 -6 13t6 12l217 219q5 6 13 6z" />
    <glyph glyph-name="Cdotaccent" unicode="&#x10a;" 
d="M786 983q0 -43 -38 -43h-170q-18 0 -32 12q-13 12 -14 31v61q0 43 -30 74q-31 31 -74 31t-74 -31t-30 -74v-706q0 -43 30 -74t74 -31q43 0 74 31t30 74v61q0 15 14 31t32 16h163q17 0 31 -11t14 -34v-63q0 -150 -105 -255t-261 -104t-254 106t-96 253v706q0 152 104 256
q104 103 254 103q148 1 254 -105t104 -254v-61zM315 1780q0 39 39 39h162q14 -1 26 -11t13 -28v-156q0 -16 -11 -30t-28 -15h-162q-39 0 -39 45v156z" />
    <glyph glyph-name="cdotaccent" unicode="&#x10b;" horiz-adv-x="841" 
d="M733 358q45 0 45 -56t-28 -115q-28 -60 -76 -106q-110 -103 -257 -102t-251 105t-105 254v348q0 149 106 255t252 104q147 -1 255 -105q49 -47 77 -106q27 -58 27 -110t-39 -52h-170q-25 0 -31 18q-22 61 -44 80q-22 20 -70 20t-78 -30q-31 -31 -31 -74v-348
q0 -43 31 -74t78 -31q48 -1 68 19t29 44t17 43t31 19h164zM303 1378q0 39 39 39h162q14 0 26 -10t13 -29v-155q1 -17 -11 -31t-28 -14h-162q-39 0 -39 45v155z" />
    <glyph glyph-name="Ccaron" unicode="&#x10c;" horiz-adv-x="845" 
d="M780 983q0 -43 -39 -43h-170q-18 0 -31 12t-14 31v61q0 43 -30 74q-31 31 -74 31t-74 -31t-31 -74v-706q0 -43 31 -74t74 -31t74 31t30 74v61q0 15 14 31t31 16h164q17 0 31 -11t14 -34v-63q0 -150 -105 -255t-262 -104t-253 105q-97 104 -97 254v706q0 151 105 255
t254 104q148 1 254 -105t104 -254v-61zM686 1689q0 -9 -4 -14l-244 -243q-15 -15 -28 0l-244 243q-6 5 -6 13t6 14l59 61q5 6 15 7t16 -5l168 -170l168 170q14 12 29 -2l59 -59q6 -6 6 -15z" />
    <glyph glyph-name="ccaron" unicode="&#x10d;" horiz-adv-x="833" 
d="M729 358q45 0 45 -56t-28 -115q-28 -60 -76 -106q-109 -103 -258 -102t-252 105t-103 254v348q-1 148 105 254t254 104q74 0 139 -28q133 -59 191 -182q28 -58 28 -110t-39 -52h-170q-25 0 -31 18q-22 61 -45 81q-22 19 -69 19t-78 -30q-31 -31 -31 -74v-348
q0 -43 31 -74t78 -31q47 -1 67 19t30 44q9 24 17 43t31 19h164zM680 1328q0 -9 -4 -13l-244 -244q-8 -8 -14 -8t-15 8l-243 244q-6 6 -6 13t6 13l59 62q4 6 14 7t17 -5l168 -170l168 170q14 12 28 -2l60 -60q6 -6 6 -15z" />
    <glyph glyph-name="Dcaron" unicode="&#x10e;" horiz-adv-x="870" 
d="M330 1128v-874h104q43 0 74 31t31 73v666q0 43 -31 74t-74 30h-104zM76 1337q0 45 45 45h313q151 0 255 -98t104 -260v-666q-1 -150 -105 -254t-254 -104h-313q-14 0 -30 5q-15 5 -15 32v1300zM698 1689q0 -9 -4 -14l-243 -243q-15 -15 -29 0l-244 243q-6 5 -6 13t6 14
l60 61q4 6 14 7t16 -5l168 -170l168 170q14 12 29 -2l59 -59q6 -6 6 -15z" />
    <glyph glyph-name="dcaron" unicode="&#x10f;" horiz-adv-x="1087" 
d="M485 686q0 43 -30 74q-31 31 -74 31t-74 -31t-31 -74v-348q0 -43 31 -74t74 -31t74 31t30 74v348zM698 1382q41 0 41 -41v-1300q0 -41 -41 -41h-168q-16 0 -18 2q-146 -47 -275 8q-129 54 -187 189q-28 66 -27 139v348q0 150 105 255t253 103q45 0 104 -16v313
q-1 17 15 29t30 12h168zM1024 1386q41 0 41 -40v-172q0 -172 -152 -271q-21 -11 -42 10t-24 28t-3 15t11 22q58 76 58 134v41q0 20 -20 21h-6q-35 4 -35 40v132q0 41 41 40h131z" />
    <glyph glyph-name="Dcroat" unicode="&#x110;" horiz-adv-x="956" 
d="M176 1337q0 45 45 45h314q152 0 255 -98t103 -260v-666q-1 -150 -105 -254t-253 -104h-314q-14 0 -30 5q-15 5 -15 32v437h-91q-26 0 -26 29v107q0 26 26 26h91v701zM493 636q27 0 27 -26v-107q0 -9 -8 -19t-19 -10h-63v-220h105q43 0 73 31t31 73v666q0 43 -31 74
t-73 30h-105v-492h63z" />
    <glyph glyph-name="dcroat" unicode="&#x111;" horiz-adv-x="882" 
d="M516 686q0 43 -31 74t-73 31t-74 -31q-31 -31 -31 -74v-348q0 -43 31 -74t74 -31q44 0 74 31t30 74v348zM516 1341q0 17 15 29t30 12h168q41 0 41 -41v-1300q0 -41 -41 -41h-168q-16 0 -18 2q-145 -46 -275 8t-187 189q-28 66 -28 139v348q0 62 20 119q3 -1 7 -1h408
q26 0 27 28v107q0 26 -27 26h-302q102 81 226 79q45 0 104 -16v313zM54 832v107q0 13 8 20t18 6h106q-69 -55 -105 -140l-8 -20q-19 5 -19 27z" />
    <glyph glyph-name="Ebreve" unicode="&#x114;" 
d="M113 0q-41 0 -41 39v1298q0 45 41 45h635q40 0 40 -47v-164q0 -16 -12 -29t-31 -14h-419v-309h366q41 0 41 -43v-168q0 -41 -41 -43h-366v-311h419q43 0 43 -45v-170q0 -39 -40 -39h-635zM215 1629q0 3 -1 10t7 14l78 53q4 4 15 4t18 -6l43 -53q20 -25 49 -25t51 25
l41 53q6 6 14 6t21 -4l76 -53q10 -5 9 -13t-1 -10l-2 -8q-63 -80 -113 -108q-95 -54 -191 0q-48 28 -112 108q-2 4 -2 7z" />
    <glyph glyph-name="ebreve" unicode="&#x115;" horiz-adv-x="841" 
d="M526 672q0 72 -30 98t-74 27q-43 0 -73 -28t-32 -97h209zM735 358q45 0 45 -65q0 -43 -28 -103t-76 -107q-112 -105 -258 -104t-250 105t-105 254v348q0 149 106 255t254 104q149 -1 254 -106t103 -253v-194q0 -44 -41 -46h-422v-108q0 -43 31 -74t79 -31q49 -1 69 19
t28 44t16 43t31 19h164zM418 1104q-47 0 -95 28t-112 107q-2 4 -2 7t-1 10t7 14l78 53q4 4 15 4t18 -6l43 -53q20 -25 49 -25t51 25l41 53q6 6 14 6t21 -4l76 -53q10 -6 9 -14t-1 -9l-2 -8q-63 -79 -113 -107t-96 -28z" />
    <glyph glyph-name="Edotaccent" unicode="&#x116;" horiz-adv-x="872" 
d="M121 0q-41 0 -41 39v1298q0 45 41 45h635q39 0 41 -47v-164q-1 -16 -13 -29t-30 -14h-420v-309h366q41 0 41 -43v-168q0 -41 -41 -43h-366v-311h420q41 0 43 -45v-170q0 -39 -41 -39h-635zM319 1780q0 39 39 39h162q14 -1 26 -11t13 -28v-156q0 -16 -11 -30t-28 -15h-162
q-39 0 -39 45v156z" />
    <glyph glyph-name="edotaccent" unicode="&#x117;" horiz-adv-x="841" 
d="M526 672q0 72 -30 98t-74 27q-43 0 -73 -28t-32 -97h209zM735 358q45 0 45 -65q0 -43 -28 -103t-76 -107q-112 -105 -258 -104t-250 105t-105 254v348q0 149 106 255t254 104q149 -1 254 -106t103 -253v-194q0 -44 -41 -46h-422v-108q0 -43 31 -74t79 -31q49 -1 69 19
t28 44t16 43t31 19h164zM305 1376q0 39 39 39h162q14 0 26 -10t13 -29v-155q0 -17 -11 -31t-28 -14h-162q-39 0 -39 45v155z" />
    <glyph glyph-name="Eogonek" unicode="&#x118;" horiz-adv-x="886" 
d="M463 -467q-254 77 -254 203q0 58 30 92q31 32 67 56t66 42t29 41v33h-276q-41 0 -41 39v1298q0 45 41 45h635q41 0 41 -47v-164q-1 -16 -13 -29t-30 -14h-420v-309h367q41 0 40 -43v-168q0 -41 -40 -43h-367v-311h420q41 0 43 -45v-170q0 -39 -41 -39h-215v-39
q0 -41 -30 -69q-29 -28 -65 -50t-66 -46q-30 -22 -30 -52q0 -59 160 -98q10 -6 10 -18q0 -50 -34 -84q-11 -11 -23 -11h-4z" />
    <glyph glyph-name="Ecaron" unicode="&#x11a;" horiz-adv-x="880" 
d="M123 0q-41 0 -41 39v1298q0 45 41 45h635q39 0 41 -47v-164q-1 -16 -13 -29t-30 -14h-420v-309h366q41 0 41 -43v-168q0 -41 -41 -43h-366v-311h420q41 0 43 -45v-170q0 -39 -41 -39h-635zM702 1689q0 -9 -4 -14l-243 -243q-15 -15 -29 0l-244 243q-6 5 -6 13t6 14l60 61
q4 6 14 7t16 -5l168 -170l168 170q14 12 29 -2l59 -59q6 -6 6 -15z" />
    <glyph glyph-name="ecaron" unicode="&#x11b;" horiz-adv-x="843" 
d="M526 672q0 72 -30 98t-74 27q-43 0 -73 -28t-32 -97h209zM735 358q45 0 45 -65q0 -43 -28 -103t-76 -107q-112 -105 -258 -104t-250 105t-105 254v348q0 149 106 255t254 104q149 -1 254 -106t103 -253v-194q0 -44 -41 -46h-422v-108q0 -43 31 -74t79 -31q49 -1 69 19
t28 44t16 43t31 19h164zM684 1328q0 -9 -4 -13l-244 -244q-8 -8 -14 -8t-14 8l-244 244q-6 6 -6 13t6 13l59 62q5 6 15 7t16 -5l168 -170l168 170q14 12 28 -2l60 -60q6 -6 6 -15z" />
    <glyph glyph-name="Gcircumflex" unicode="&#x11c;" horiz-adv-x="829" 
d="M416 1796q8 0 14 -6l217 -219q6 -5 6 -13t-6 -14l-53 -53q-6 -6 -14.5 -6t-12.5 4l-151 153l-150 -153q-4 -4 -12 -4t-14 6l-54 55q-6 6 -6 12.5t6 12.5l217 219q5 6 13 6zM727 819q45 0 45 -43v-438q0 -151 -105 -254.5t-254 -103.5t-253.5 104.5t-104.5 253.5v706
q0 148 104 253.5t254 105.5t254.5 -104.5t104.5 -254.5v-61q0 -16 -11 -29.5t-32 -13.5h-168q-16 0 -29.5 11.5t-13.5 31.5v61q0 43 -30.5 74t-73.5 31t-74 -31t-31 -74v-706q0 -43 31 -74t74 -31t73.5 31t30.5 74v227h-65q-39 0 -39 43v168q0 16 11 29.5t34 13.5h268z" />
    <glyph glyph-name="gcircumflex" unicode="&#x11d;" horiz-adv-x="847" 
d="M530 686q0 43 -30 74q-31 31 -74 31t-74 -31t-30 -74v-348q0 -43 30 -74t74 -31q43 0 74 31t30 74v348zM743 1024q41 0 41 -39v-1005q0 -152 -104 -256q-104 -103 -254 -103q-88 0 -167 39t-128 113q-10 20 10 41l115 116q12 12 28 12t43 -22q26 -23 48 -34t58 -11t67 31
t30 74v16q-58 -16 -118 -16t-126 28t-114 76q-106 106 -104 254v348q0 150 105 255t253 103q59 0 127 -22l14 2h176zM419 1415q7 0 13 -6l217 -219q6 -6 6 -13t-6 -14l-53 -53q-6 -6 -14 -6t-13 4l-151 154l-150 -154q-4 -4 -12 -4t-14 6l-54 55q-6 7 -6 13t6 12l218 219
q6 6 13 6z" />
    <glyph glyph-name="Gbreve" unicode="&#x11e;" horiz-adv-x="825" 
d="M409.5 1497q-47.5 0 -95.5 27.5t-111 107.5q-2 4 -2 7t-1 11t7 13l78 53q4 4 15 4t17 -6l43 -53q20 -25 49 -25t52 25l41 53q6 6 14 6t21 -4l75 -53q10 -6 10 -13v-8l-4 -10q-63 -80 -112 -107.5t-96.5 -27.5zM725 819q45 0 45 -43v-438q0 -151 -105 -254.5t-254 -103.5
t-253.5 104.5t-104.5 253.5v706q0 148 104 253.5t254 105.5t254.5 -104.5t104.5 -254.5v-61q0 -16 -11 -29.5t-32 -13.5h-168q-16 0 -29.5 11.5t-13.5 31.5v61q0 43 -30.5 74t-73.5 31t-74 -31t-31 -74v-706q0 -43 31 -74t74 -31t73.5 31t30.5 74v227h-65q-39 0 -39 43v168
q0 16 11 29.5t34 13.5h268z" />
    <glyph glyph-name="gbreve" unicode="&#x11f;" 
d="M532 686q0 43 -30 74q-31 31 -74 31t-74 -31t-30 -74v-348q0 -43 30 -74t74 -31q43 0 74 31t30 74v348zM745 1024q41 0 41 -39v-1005q0 -152 -104 -256q-104 -103 -254 -103q-88 0 -167 39t-128 113q-10 20 10 41l115 116q12 12 28 12t43 -22q26 -23 48 -34t58 -11t67 31
t30 74v16q-58 -16 -118 -16t-126 28t-114 76q-106 106 -104 254v348q0 150 105 255t253 103q59 0 127 -22l14 2h176zM426 1104q-47 0 -95 28t-112 107q-2 4 -2 7t-1 10t7 14l78 53q4 4 15 4t18 -6l43 -53q20 -25 49 -25t51 25l41 53q6 6 14 6t21 -4l76 -53q10 -6 9 -14
t-1 -9l-2 -8q-63 -79 -113 -107t-96 -28z" />
    <glyph glyph-name="Gdotaccent" unicode="&#x120;" horiz-adv-x="823" 
d="M293 1780q0 39 39 39h162q14 0 26 -10.5t12 -28.5v-156q0 -16 -11 -30.5t-27 -14.5h-162q-39 0 -39 45v156zM725 819q45 0 45 -43v-438q0 -151 -105 -254.5t-254 -103.5t-253.5 104.5t-104.5 253.5v706q0 148 104 253.5t254 105.5t254.5 -104.5t104.5 -254.5v-61
q0 -16 -11 -29.5t-32 -13.5h-168q-16 0 -29.5 11.5t-13.5 31.5v61q0 43 -30.5 74t-73.5 31t-74 -31t-31 -74v-706q0 -43 31 -74t74 -31t73.5 31t30.5 74v227h-65q-39 0 -39 43v168q0 16 11 29.5t34 13.5h268z" />
    <glyph glyph-name="gdotaccent" unicode="&#x121;" horiz-adv-x="837" 
d="M524 686q0 43 -30 74q-31 31 -74 31t-74 -31t-31 -74v-348q0 -43 31 -74t74 -31t74 31t30 74v348zM737 1024q41 0 41 -39v-1005q0 -152 -104 -256q-104 -103 -254 -103q-88 0 -167 39t-128 113q-10 20 10 41l115 116q12 12 28 12t43 -22q26 -23 48 -34t58 -11t67 31
t30 74v16q-58 -16 -118 -16t-126 28t-114 76q-105 105 -105 254v348q0 149 106 255t253 103q59 0 127 -22l14 2h176zM315 1378q0 39 39 39h162q14 0 26 -10t13 -29v-155q0 -17 -11 -31t-28 -14h-162q-39 0 -39 45v155z" />
    <glyph glyph-name="gcommaaccent" unicode="&#x123;" horiz-adv-x="841" 
d="M526 686q0 43 -30 74q-31 31 -74 31t-74 -31t-31 -74v-348q0 -43 31 -74t74 -31t74 31t30 74v348zM739 1024q41 0 41 -39v-1005q0 -152 -104 -256q-104 -103 -254 -103q-88 0 -167 39t-128 113q-10 20 10 41l115 116q12 12 28 12t43 -22q26 -23 48 -34t58 -11t67 31
t30 74v16q-58 -16 -118 -16t-126 28t-114 76q-105 105 -105 254v348q0 149 106 255t253 103q59 0 127 -22l14 2h176zM520 1219q0 -41 -41 -41h-131q-16 0 -29 10q-12 10 -12 31v172q0 171 152 270q16 8 26 2q43 -26 43 -55q0 -10 -11 -24q-58 -71 -58 -132v-41q0 -20 20 -20
h6q35 -4 35 -41v-131z" />
    <glyph glyph-name="Hcircumflex" unicode="&#x124;" horiz-adv-x="862" 
d="M580 0q-43 0 -43 41v524h-209v-524q0 -17 -14 -29t-33 -12h-168q-39 0 -39 41v1300q0 13 11 27t28 14h172q14 0 28 -12t15 -29v-522h209v522q0 17 12 29t31 12h163q15 0 31 -11t17 -30v-1300q0 -41 -48 -41h-163zM435 1798q7 0 14 -6l217 -219q6 -6 6 -13t-6 -14l-54 -53
q-6 -6 -14 -6t-12 4l-152 154l-149 -154q-5 -4 -13 -4t-14 6l-53 55q-6 6 -6 12t6 13l217 219q6 6 13 6z" />
    <glyph glyph-name="hcircumflex" unicode="&#x125;" horiz-adv-x="890" 
d="M127 0q-41 0 -41 41v1300q0 41 41 41h168q13 0 29 -11t16 -30v-313q58 16 118 16t126 -28t114 -76q104 -106 105 -254v-647q0 -39 -43 -39h-170q-16 0 -29 10q-12 10 -12 31v645q0 41 -31 73t-73 32q-41 0 -73 -31t-32 -72v-649q-2 -39 -43 -39h-170zM447 1798q7 0 14 -6
l217 -219q6 -6 6 -13t-6 -14l-53 -53q-7 -6 -15 -6t-12 4l-152 154l-149 -154q-4 -4 -12 -4t-15 6l-53 55q-6 6 -6 12t6 13l217 219q6 6 13 6z" />
    <glyph glyph-name="hbar" unicode="&#x127;" horiz-adv-x="980" 
d="M233 0q-40 0 -40 41v763h-104q-26 0 -26 28v107q0 26 26 26h104v376q0 41 40 41h168q13 0 29 -11t16 -30v-313q59 16 119 16q59 0 125 -28t115 -76q106 -106 104 -254v-647q0 -39 -43 -39h-170q-16 0 -28 10t-13 31v645q0 41 -30 73q-31 32 -73 32t-74 -31t-32 -72v-649
q-2 -39 -43 -39h-170z" />
    <glyph glyph-name="Itilde" unicode="&#x128;" horiz-adv-x="411" 
d="M80 1341q0 41 41 41h168q14 0 29 -11t16 -30v-1300q0 -41 -45 -41h-168q-41 0 -41 41v1300zM128 1769q52 0 97 -32l39 -25q16 -10 36 -10t36 22l18 27q4 8 14 8t17 -6l70 -47q12 -8 4 -29l-19 -24q-55 -76 -147 -76q-57 0 -103 31l-36 24q-16 10 -37 10t-35 -20l-19 -27
q-6 -10 -14 -10t-16 6l-70 47q-14 12 -4 29l18 27q33 45 66 60t85 15z" />
    <glyph glyph-name="Ibreve" unicode="&#x12c;" horiz-adv-x="401" 
d="M76 1341q0 41 41 41h168q14 0 29 -11t16 -30v-1300q0 -41 -45 -41h-168q-41 0 -41 41v1300zM-6 1629q0 3 -1 10t7 14l78 53q4 4 15 4t18 -6l43 -53q20 -25 49 -25t51 25l41 53q6 6 14 6t21 -4l76 -53q10 -5 9 -13t-1 -10l-2 -8q-62 -80 -112 -108q-95 -54 -192 0
q-48 28 -112 108q-2 4 -2 7z" />
    <glyph glyph-name="Idotaccent" unicode="&#x130;" horiz-adv-x="421" 
d="M84 1341q0 41 41 41h168q13 0 29 -11t16 -30v-1300q0 -41 -45 -41h-168q-41 0 -41 41v1300zM90 1681q0 39 39 39h162q14 0 26 -10t13 -29v-155q0 -16 -12 -30t-27 -15h-162q-39 0 -39 45v155z" />
    <glyph glyph-name="dotlessi" unicode="&#x131;" horiz-adv-x="421" 
d="M84 983q0 41 41 41h168q14 0 29.5 -11.5t15.5 -29.5v-942q0 -41 -45 -41h-168q-41 0 -41 41v942z" />
    <glyph glyph-name="IJ" unicode="&#x132;" horiz-adv-x="954" 
d="M100 1341q0 17 10 29t31 12h168q13 0 29 -11t16 -30v-1040h8q10 0 48 -33t84 -34t76 30t30 74v1008q0 33 37 36h176q41 0 41 -39v-1005q0 -148 -104 -254q-106 -106 -254 -104q-80 0 -152 31q-11 -11 -35 -11h-168q-41 0 -41 41v1300z" />
    <glyph glyph-name="ij" unicode="&#x133;" horiz-adv-x="792" 
d="M78 1341q0 41 41 41h172q16 0 28 -10t13 -31v-167q0 -14 -11 -30t-30 -16h-172q-41 0 -41 46v167zM78 983q0 41 41 41h168q14 0 29 -11t16 -30v-942q0 -41 -45 -41h-168q-41 0 -41 41v942zM461 1341q0 41 41 41h172q16 0 28 -10t13 -31v-167q1 -14 -11 -30t-30 -16h-172
q-41 0 -41 46v167zM461 983q0 41 43 41h168q20 0 31 -12t12 -29v-1003q0 -151 -105 -255t-254 -104h-16q-41 4 -41 41v166q0 20 12 34t29 13h16q43 0 74 31t31 74v1003z" />
    <glyph glyph-name="Jcircumflex" unicode="&#x134;" horiz-adv-x="737" 
d="M389 1346q0 33 37 36h176q41 0 41 -39v-1005q0 -148 -104 -254q-106 -106 -254 -104q-88 0 -167 38t-128 113q-2 2 -2 16t12 25l115 117q14 12 30 12t54 -33t84 -34q45 -1 75 30t31 74v1008zM515 1798q7 0 13 -6l217 -219q14 -14 0 -27l-53 -53q-6 -6 -14 -6t-12 4
l-152 154l-149 -154q-5 -4 -13 -4t-14 6l-53 55q-6 6 -6 12t6 13l217 219q6 6 13 6z" />
    <glyph glyph-name="Lacute" unicode="&#x139;" horiz-adv-x="866" 
d="M74 1343q0 17 11 29t32 12h170q37 0 41 -41v-1089h422q16 0 28 -11t13 -32v-170q0 -37 -41 -41h-635q-41 0 -41 41v1302zM551 1806h131q27 0 27 -18q0 -10 -7 -23l-114 -237q-10 -18 -22 -30t-34 -11h-131q-33 0 -32 20q0 8 6 21l114 237q18 41 62 41z" />
    <glyph glyph-name="lacute" unicode="&#x13a;" horiz-adv-x="540" 
d="M274 1382q43 0 43 -41v-1003q0 -43 31 -74t74 -31h16q16 0 28 -13t13 -34v-166q0 -37 -41 -40h-16q-150 0 -254 104t-105 254v1003q-1 17 11 29t32 12h168zM276 1806h132q27 0 26 -18q0 -10 -6 -23l-115 -237q-10 -18 -21 -30t-34 -11h-131q-33 0 -33 20q0 8 6 21
l115 237q18 41 61 41z" />
    <glyph glyph-name="Lcaron" unicode="&#x13d;" 
d="M72 1343q0 17 11 29t32 12h170q37 0 41 -41v-1089h422q16 0 28 -11t12 -32v-170q0 -37 -40 -41h-635q-41 0 -41 41v1302zM430 1339q0 41 41 41h131q16 0 28 -10t13 -31v-172q0 -170 -151 -270q-21 -11 -43 10q-21 19 -24 27t-3 16t11 22q57 75 59 134v41q0 20 -21 20h-6
q-35 4 -35 41v131z" />
    <glyph glyph-name="lcaron" unicode="&#x13e;" horiz-adv-x="753" 
d="M252 1382q43 0 43 -41v-1003q0 -43 31 -74t73 -31h17q16 0 28 -13t13 -34v-166q0 -37 -41 -40h-17q-150 0 -254 104t-104 254v1003q0 17 11 29t32 12h168zM672 1386q39 0 41 -40v-172q0 -172 -152 -271q-21 -11 -42 10t-24 28t-3 15t11 22q58 76 58 134v41q0 20 -20 21
h-6q-35 4 -35 40v132q0 41 41 40h131z" />
    <glyph glyph-name="Lslash" unicode="&#x141;" horiz-adv-x="751" 
d="M652 679q30 0 30 -29v-120q0 -10 -8 -22t-22 -11h-330v-243h421q17 0 29 -11t12 -32v-170q0 -37 -41 -41h-634q-41 0 -41 41v456h-42q-30 0 -30 33v120q0 30 30 29h42v664q0 17 11 29t32 12h170q37 0 41 -41v-664h330z" />
    <glyph glyph-name="Nacute" unicode="&#x143;" 
d="M281 1382q27 0 43 -28v-4l211 -605v596q0 41 40 41h168q13 0 29 -11t16 -30v-1300q0 -41 -45 -41h-168q-25 0 -31 12t-16 33l-202 584v-588q0 -41 -45 -41h-168q-41 0 -41 41v1300q0 41 41 41h168zM516 1806h131q27 0 27 -18q0 -10 -6 -23l-115 -237q-23 -41 -55 -41
h-131q-33 0 -33 20q0 8 6 21l115 237q18 41 61 41z" />
    <glyph glyph-name="nacute" unicode="&#x144;" horiz-adv-x="866" 
d="M443 1044q141 0 245 -104t105 -254v-645q1 -17 -13 -29t-30 -12h-170q-16 0 -29 10q-12 10 -12 31v645q0 41 -31 73t-73 32t-74 -31t-31 -72v-647q0 -41 -43 -41h-170q-41 0 -41 41v942q0 41 41 41h168l18 -4q75 24 140 24zM541 1421h131q27 0 26 -18q0 -10 -6 -23
l-114 -237q-10 -17 -22 -29t-34 -12h-131q-33 0 -33 20q0 8 7 21l114 237q18 41 62 41z" />
    <glyph glyph-name="Ncaron" unicode="&#x147;" horiz-adv-x="882" 
d="M291 1382q27 0 43 -28v-4l211 -605v596q0 41 41 41h168q14 0 29 -11t16 -30v-1300q0 -41 -45 -41h-168q-25 0 -32 12t-15 33l-203 584v-588q0 -41 -45 -41h-168q-41 0 -41 41v1300q0 41 41 41h168zM178 1688q0 8 6 14l60 61q4 6 14 7t16 -5l168 -170l168 170q14 12 29 -2
l59 -59q16 -16 2 -29l-243 -243q-15 -15 -29 0l-244 243q-6 5 -6 13z" />
    <glyph glyph-name="ncaron" unicode="&#x148;" horiz-adv-x="872" 
d="M445 1044q141 0 245 -104t105 -254v-645q1 -17 -13 -29t-30 -12h-170q-16 0 -29 10q-12 10 -12 31v645q0 41 -31 73t-73 32q-41 0 -73 -31t-32 -72v-647q0 -41 -43 -41h-170q-41 0 -41 41v942q0 41 41 41h168l18 -4q75 24 140 24zM698 1328q0 -9 -4 -13l-243 -244
q-9 -8 -15 -8t-14 8l-244 244q-6 6 -6 13t6 13l60 62q4 6 14 7t16 -5l168 -170l168 170q14 12 29 -2l59 -60q6 -6 6 -15z" />
    <glyph glyph-name="Obreve" unicode="&#x14e;" horiz-adv-x="847" 
d="M530 1044q0 43 -30 74q-31 31 -74 31t-74 -31t-30 -74v-706q0 -43 30 -74t74 -31q43 0 74 31t30 74v706zM68 1044q0 152 104 256q104 103 254 103q148 1 254 -105t104 -254v-706q0 -150 -105 -255t-254 -104t-254 106t-103 253v706zM217 1629q0 3 -1 10t7 14l78 53
q4 4 15 4t18 -6l43 -53q20 -25 49 -25t51 25l41 53q6 6 14 6t21 -4l76 -53q10 -5 9 -13t-1 -10l-2 -8q-63 -80 -113 -108q-95 -54 -191 0q-48 28 -112 108q-2 4 -2 7z" />
    <glyph glyph-name="obreve" unicode="&#x14f;" horiz-adv-x="866" 
d="M537 686q0 43 -31 74t-74 31t-74 -31t-30 -74v-348q0 -43 30 -74t74 -31q43 0 74 31t31 74v348zM74 686q0 150 105 255t254 104t253 -105t105 -254v-348q0 -149 -106 -255t-254 -104q-149 1 -254 106t-103 253v348zM434 1104q-47 0 -95 28t-112 107q-2 4 -2 7t-1 10t7 14
l78 53q3 4 15 4t18 -6l43 -53q20 -25 49 -25t51 25l41 53q6 6 14 6t21 -4l76 -53q10 -6 9 -14t-1 -9l-2 -8q-63 -79 -113 -107t-96 -28z" />
    <glyph glyph-name="OE" unicode="&#x152;" horiz-adv-x="1337" 
d="M1214 254q43 0 43 -45v-170q0 -39 -40 -39h-635q-9 0 -17 3q-61 -23 -132 -23q-147 0 -252 105t-103 253v706q0 152 104 256q104 103 254 103q67 0 128 -23q8 3 18 2h635q40 0 40 -47v-164q0 -16 -12 -29t-31 -14h-419v-309h366q41 0 41 -43v-168q0 -41 -41 -43h-366
v-311h419zM541 338v706q0 43 -31 74t-74 31t-74 -31t-30 -74v-706q0 -43 30 -74t74 -31q43 0 74 31t31 74z" />
    <glyph glyph-name="oe" unicode="&#x153;" horiz-adv-x="1308" 
d="M1198 358q45 0 45 -65q0 -43 -28 -103q-29 -60 -77 -107q-111 -105 -248 -104t-236 83q-101 -84 -241 -83q-139 1 -244 106t-103 253v348q0 150 105 255t245 104t238 -83q101 84 241 83t244 -105t104 -254v-194q0 -44 -41 -46h-420v-127q4 -31 32 -59t76 -27q73 0 97 63
q8 24 15 43t32 19h164zM782 672h207q0 72 -31 98t-73 27q-91 0 -103 -99v-26zM526 686q0 10 -2 30t-30 48t-70 27q-43 0 -74 -31t-31 -74v-348q0 -43 31 -74t74 -31q42 -1 70 27q36 36 32 78v348z" />
    <glyph glyph-name="Racute" unicode="&#x154;" horiz-adv-x="882" 
d="M319 1128v-309h105q43 0 74 31t30 74v100q0 43 -30 74q-31 31 -74 30h-105zM782 924q0 -197 -135 -275l170 -592q2 -2 2 -18q0 -39 -39 -39h-182q-16 0 -23 10q-6 10 -10 21l-157 534h-89v-518q0 -15 -12 -31t-31 -16h-165q-16 0 -31 15q-14 15 -14 32v1294q0 37 38 39
l320 2q152 0 256 -100t102 -258v-100zM475 1806h131q27 0 27 -18q0 -10 -6 -23l-115 -237q-23 -41 -55 -41h-131q-33 0 -33 20q0 8 6 21l115 237q18 41 61 41z" />
    <glyph glyph-name="racute" unicode="&#x155;" horiz-adv-x="614" 
d="M57 686q-1 148 105 254t254 104h63q41 -4 41 -40v-166q0 -20 -12 -34t-29 -13h-63q-43 0 -74 -31t-31 -74v-641q0 -21 -13 -33t-30 -12h-168q-20 0 -31 14t-12 31v641zM399 1421h131q27 0 27 -18q0 -10 -6 -23l-115 -237q-10 -17 -21 -29t-34 -12h-131q-33 0 -33 20
q0 8 6 21l115 237q18 41 61 41z" />
    <glyph glyph-name="Rcaron" unicode="&#x158;" horiz-adv-x="897" 
d="M326 1128v-309h104q43 0 74 31t31 74v100q0 43 -31 74t-74 30h-104zM788 924q0 -198 -135 -275l170 -592q2 -2 2 -18q0 -39 -39 -39h-182q-16 0 -22 10t-11 21l-157 534h-88v-518q0 -15 -12 -31t-31 -16h-166q-16 0 -31 15q-14 15 -14 32v1294q0 37 39 39l319 2
q152 0 256 -100t102 -258v-100zM711 1689q0 -9 -4 -14l-244 -243q-14 -14 -29 0l-244 243q-6 5 -6 13t6 14l60 61q4 6 14 7t17 -5l168 -170l167 170q14 12 29 -2l60 -59q6 -6 6 -15z" />
    <glyph glyph-name="rcaron" unicode="&#x159;" horiz-adv-x="583" 
d="M59 686q0 149 106 255t253 103h63q41 -4 41 -40v-166q0 -20 -12 -34t-29 -13h-63q-43 0 -74 -31t-31 -74v-641q0 -21 -13 -33t-30 -12h-168q-20 0 -31 14t-12 31v641zM557 1328q0 -9 -4 -13l-244 -244q-8 -8 -14 -8t-14 8l-244 244q-6 6 -6 13t6 13l59 62q4 6 14 7t17 -5
l168 -170l168 170q14 12 29 -2l59 -60q6 -6 6 -15z" />
    <glyph glyph-name="Sacute" unicode="&#x15a;" horiz-adv-x="817" 
d="M152 791q-97 113 -97 257t102 250q102 105 253 105t253 -106q101 -106 101 -253v-59q0 -21 -14 -33t-31 -12h-166q-16 0 -30 11q-13 11 -13 57t-16 93q-16 48 -72 48t-84 -31q-29 -31 -29 -78t33 -79l315 -367q68 -76 90 -130q21 -54 21 -126q0 -142 -104 -251
q-104 -110 -254 -110q-149 0 -254 106t-105 255v65q-1 23 15 33t28 10h168q33 0 40 -55q3 -25 6 -51q12 -104 89 -106q57 -1 87 29t30 69t-47 94zM504 1806h131q27 0 27 -18q0 -10 -7 -23l-114 -237q-9 -18 -21 -30t-35 -11h-131q-33 0 -32 20q0 8 6 21l114 237q18 41 62 41
z" />
    <glyph glyph-name="sacute" unicode="&#x15b;" horiz-adv-x="837" 
d="M272 358q43 0 43 -44q0 -79 105 -81q43 0 74 22q30 21 30 59t-30 59q-30 20 -92 20t-128 27q-135 55 -187 173q-26 58 -26 124q0 136 108 232q108 97 263 96q156 -1 251 -93t95 -239q0 -17 -14 -29t-31 -12h-166q-35 0 -39 19t-9 44t-22 44t-75 19t-83 -28
q-24 -29 -24 -65q-1 -36 31 -53t101 -17t137 -31q128 -58 174 -188q20 -59 20 -122q0 -132 -103 -224q-103 -93 -255 -93t-256 80q-103 80 -103 226v32q1 23 13 33t24 10h174zM498 1421h131q27 0 26 -18q0 -10 -6 -23l-114 -237q-9 -17 -21 -29t-35 -12h-131q-33 0 -33 20
q0 8 7 21l114 237q18 41 62 41z" />
    <glyph glyph-name="Scircumflex" unicode="&#x15c;" horiz-adv-x="817" 
d="M152 791q-97 113 -97 257t102 250q102 105 253 105t253 -106q101 -106 101 -253v-59q0 -21 -14 -33t-31 -12h-166q-16 0 -30 11q-13 11 -13 57t-16 93q-16 48 -72 48t-84 -31q-29 -31 -29 -78t33 -79l315 -367q68 -76 90 -130q21 -54 21 -126q0 -142 -104 -251
q-104 -110 -254 -110q-149 0 -254 106t-105 255v65q-1 23 15 33t28 10h168q33 0 40 -55q3 -25 6 -51q12 -104 89 -106q57 -1 87 29t30 69t-47 94zM404 1796q7 0 14 -6l217 -219q6 -5 6 -13t-6 -14l-53 -53q-6 -6 -14 -6t-13 4l-152 153l-149 -153q-4 -4 -12 -4t-15 6l-53 55
q-6 6 -6 12t6 13l217 219q6 6 13 6z" />
    <glyph glyph-name="scircumflex" unicode="&#x15d;" horiz-adv-x="841" 
d="M272 358q43 0 43 -44q0 -79 105 -81q43 0 74 22q30 21 30 59t-30 59q-30 20 -92 20t-128 27q-135 55 -187 173q-26 58 -26 124q0 136 108 232q108 97 263 96q156 -1 251 -93t95 -239q0 -17 -14 -29t-31 -12h-166q-35 0 -39 19t-9 44t-22 44t-75 19t-83 -28
q-24 -29 -24 -65q-1 -36 31 -53t101 -17t137 -31q128 -58 174 -188q20 -59 20 -122q0 -132 -103 -224q-103 -93 -255 -93t-256 80q-103 80 -103 226v32q1 23 13 33t24 10h174zM412 1417q8 0 14 -6l217 -219q6 -6 6 -13t-6 -14l-53 -53q-6 -6 -14 -6t-13 4l-151 154
l-150 -154q-4 -4 -12 -4t-14 6l-54 55q-6 7 -6 13t6 12l217 219q5 6 13 6z" />
    <glyph glyph-name="Scedilla" unicode="&#x15e;" horiz-adv-x="827" 
d="M57 338v65q-1 23 15 33t28 10h168q33 0 40 -55q3 -25 6 -51q12 -104 89 -106q57 -1 87 29t30 69t-47 94l-315 365q-97 113 -97 257t102 250q102 105 253 105t253 -106q101 -106 101 -253v-59q0 -21 -14 -33t-31 -12h-166q-16 0 -30 11q-13 11 -13 57t-16 93
q-16 48 -72 48t-84 -31q-29 -31 -29 -78t33 -79l316 -367q65 -72 87 -126q23 -54 23 -128q0 -144 -94 -242q-94 -99 -213 -117q-4 -7 -4 -23t30 -34q95 -56 129 -94t34 -96q-1 -127 -255 -203h-4q-36 0 -53 69q-4 15 -4 26t10 18q160 39 160 98q0 30 -30 52t-64 44t-65 47
q-49 44 -20 103q-99 25 -159 85q-115 117 -115 265z" />
    <glyph glyph-name="Scaron" unicode="&#x160;" horiz-adv-x="794" 
d="M500 1008q0 142 -88 141q-56 0 -84 -31t-29 -78q0 -47 33 -79l315 -367q65 -72 88 -127t23 -128t-28 -137q-58 -134 -189 -195q-66 -30 -141 -30q-74 0 -140 29q-136 60 -191 193q-28 66 -28 139v65q0 23 15 33t28 10h168q33 0 40 -55q3 -25 8 -71t33 -66q27 -20 68 -20
t72 29q31 30 31 68t-47 95l-316 365q-96 112 -96 256t101 250t254 106q152 0 253 -106t101 -253v-59q0 -21 -14 -33t-31 -12h-166q-16 0 -30 11q-13 11 -13 57zM653 1752q0 -9 -4 -13l-243 -244q-8 -8 -14 -8t-15 8l-244 244q-6 6 -6 13t6 13l60 62q4 6 14 7t16 -5l168 -170
l168 170q14 12 29 -2l59 -60q6 -6 6 -15z" />
    <glyph glyph-name="scaron" unicode="&#x161;" horiz-adv-x="839" 
d="M272 358q43 0 43 -44q0 -79 105 -81q43 0 74 22q30 21 30 59t-30 59q-30 20 -92 20t-128 27q-135 55 -187 173q-26 58 -26 124q0 136 108 232q108 97 263 96q156 -1 251 -93t95 -239q0 -17 -14 -29t-31 -12h-166q-35 0 -39 19t-9 44t-22 44t-75 19t-83 -28
q-24 -29 -24 -65q-1 -36 31 -53t101 -17t137 -31q128 -58 174 -188q20 -59 20 -122q0 -132 -103 -224q-103 -93 -255 -93t-256 80q-103 80 -103 226v32q1 23 13 33t24 10h174zM682 1328q0 -9 -4 -13l-244 -244q-8 -8 -14 -8t-14 8l-244 244q-6 6 -6 13t6 13l59 62q5 6 15 7
t16 -5l168 -170l168 170q14 12 28 -2l60 -60q6 -6 6 -15z" />
    <glyph glyph-name="Tcaron" unicode="&#x164;" horiz-adv-x="798" 
d="M711 1382q41 0 47 -41v-163q0 -20 -12 -34t-35 -16h-185v-1081q0 -15 -13 -31t-30 -16h-166q-12 0 -28 15t-17 32v1081h-184q-18 0 -32 14t-15 36v163q0 17 14 29t33 12h623zM135 1688q0 8 6 14l60 61q4 6 14 7t16 -5l168 -170l168 170q14 12 29 -2l59 -59q16 -16 2 -29
l-243 -243q-15 -15 -29 0l-244 243q-6 5 -6 13z" />
    <glyph glyph-name="tcaron" unicode="&#x165;" horiz-adv-x="927" 
d="M358 1382q43 0 43 -41v-317h121q41 0 41 -41v-145q0 -45 -41 -45h-121v-476q0 -43 31 -63t74 -21h16q16 0 28 -13t13 -34v-166q0 -37 -41 -40h-16q-253 0 -331 181q-28 65 -28 156v476h-86q-41 0 -41 45v145q0 41 41 41h86v317q-1 17 11 29t32 12h168zM866 1386
q41 0 41 -40v-172q0 -171 -151 -271q-23 -11 -46 13q-24 25 -24 37q0 11 11 25q57 75 59 134v41q0 20 -21 21h-6q-35 4 -35 40v132q0 41 41 40h131z" />
    <glyph glyph-name="Tbar" unicode="&#x166;" horiz-adv-x="819" 
d="M727 1382q43 0 47 -41v-163q0 -20 -12 -35t-35 -15h-184v-145h174q41 0 41 -41v-145q0 -45 -41 -45h-174v-705q0 -14 -13.5 -30.5t-29.5 -16.5h-166q-12 0 -28.5 15.5t-16.5 31.5v705h-205q-41 0 -41 45v145q0 41 41 41h205v145h-185q-18 0 -32.5 13.5t-14.5 36.5v163
q0 16 14.5 28.5t32.5 12.5h623z" />
    <glyph glyph-name="tbar" unicode="&#x167;" horiz-adv-x="638" 
d="M174 1341q0 16 11.5 28.5t31.5 12.5h168q16 0 29.5 -10t13.5 -31v-317h121q41 0 41 -41v-145q0 -45 -41 -45h-121v-56h121q41 0 41 -41v-145q0 -45 -41 -45h-121v-168q0 -43 30.5 -74t73.5 -31h17q16 0 28.5 -13t12.5 -34v-166q0 -37 -41 -40h-17q-148 0 -253 103.5
t-105 254.5v168h-86q-41 0 -41 45v145q0 41 41 41h86v56h-86q-41 0 -41 45v145q0 41 41 41h86v317z" />
    <glyph glyph-name="Utilde" unicode="&#x168;" horiz-adv-x="872" 
d="M289 1382q41 0 43 -41v-1003q0 -43 30 -74t74 -31q43 0 74 31t31 74v1003q0 41 45 41h170q39 0 39 -41v-1003q0 -149 -106 -255t-254 -104q-149 1 -254 106t-103 253v1003q0 17 11 29t32 12h168zM523 1704q20 0 36 22l19 27q4 8 13 8t17 -6l70 -47q12 -8 4 -29l-18 -24
q-55 -76 -148 -76q-57 0 -102 31l-37 24q-46 29 -72 -10l-18 -27q-7 -10 -15 -10t-16 6l-70 47q-14 12 -4 29l19 27q33 45 65 60q32 16 85 16q52 0 98 -33l38 -25q16 -10 36 -10z" />
    <glyph glyph-name="utilde" unicode="&#x169;" horiz-adv-x="872" 
d="M289 1024q41 0 43 -41v-645q0 -43 30 -74t74 -31q43 0 74 31t31 74v645q0 41 45 41h170q39 0 39 -41v-942q0 -41 -45 -41h-168q-16 0 -19 2q-140 -47 -270 7q-130 55 -188 190q-28 66 -27 139v645q0 17 11 29t32 12h168zM353 1370q52 0 98 -33l38 -24q16 -10 36 -10
t36 22l19 27q4 8 13 8t17 -6l70 -47q12 -8 4 -29l-18 -25q-55 -76 -148 -75q-57 0 -102 30l-37 25q-16 10 -37 10t-35 -20l-18 -27q-7 -10 -15 -10t-16 6l-70 47q-14 12 -4 29l19 26q33 44 65 60t85 16z" />
    <glyph glyph-name="Ubreve" unicode="&#x16c;" horiz-adv-x="862" 
d="M285 1382q41 0 43 -41v-1003q0 -43 30 -74t74 -31q43 0 74 31t31 74v1003q0 41 45 41h170q39 0 39 -41v-1003q0 -149 -106 -255t-254 -104q-149 1 -254 106t-103 253v1003q0 17 11 29t32 12h168zM221 1627q0 3 -1 10t7 14l78 53q3 4 15 4t18 -6l43 -53q20 -25 49 -25
t51 25l41 53q6 6 14 6t21 -4l76 -53q10 -5 9 -13t-1 -10l-2 -8q-63 -80 -113 -108q-95 -54 -191 0q-48 28 -112 108q-2 4 -2 7z" />
    <glyph glyph-name="ubreve" unicode="&#x16d;" horiz-adv-x="851" 
d="M281 1024q41 0 43 -41v-645q0 -43 30 -74t74 -31q43 0 74 31t30 74v645q0 41 46 41h170q39 0 38 -41v-942q0 -41 -45 -41h-168q-16 0 -18 2q-140 -47 -270 7q-130 55 -188 190q-28 66 -27 139v645q0 17 11 29t32 12h168zM426 1104q-47 0 -95 28t-112 107q-2 4 -2 7t-1 10
t7 14l78 53q4 4 15 4t18 -6l43 -53q20 -25 49 -25t51 25l41 53q6 6 14 6t21 -4l76 -53q10 -6 9 -14t-1 -9l-2 -8q-63 -79 -113 -107t-96 -28z" />
    <glyph glyph-name="Uring" unicode="&#x16e;" horiz-adv-x="876" 
d="M80 1341q0 16 11 28.5t32 12.5h168q16 0 29.5 -10t13.5 -31v-1003q0 -43 30.5 -74t73.5 -31t74 31t31 74v1003q0 41 45 41h170q39 0 39 -41v-1003q0 -149 -104.5 -253.5t-254.5 -104.5t-254 104t-104 254v1003zM434 1780q-41 0 -68.5 -29t-27.5 -70t27.5 -68.5
t68.5 -27.5t69.5 27.5t28.5 68.5t-28.5 70t-69.5 29zM434 1878q82 0 139.5 -57.5t57.5 -139.5t-57.5 -138t-139.5 -56t-138 56t-56 138t56 139.5t138 57.5z" />
    <glyph glyph-name="uring" unicode="&#x16f;" horiz-adv-x="872" 
d="M78 983q0 16 11 28.5t32 12.5h168q16 0 29.5 -10t13.5 -31v-645q0 -43 30.5 -74t73.5 -31t74 31t31 74v645q0 41 45 41h170q39 0 39 -41v-942q0 -41 -45 -41h-168q-16 0 -19 2q-140 -47 -270.5 7.5t-172.5 154.5t-42 174v645zM432 1395q-41 0 -68.5 -29t-27.5 -70
t27.5 -68.5t68.5 -27.5t69.5 27.5t28.5 68.5t-28.5 70t-69.5 29zM432 1493q82 0 139.5 -57.5t57.5 -139.5t-57.5 -138t-139.5 -56t-138 56t-56 138t56 139.5t138 57.5z" />
    <glyph glyph-name="Uogonek" unicode="&#x172;" horiz-adv-x="882" 
d="M446 -467q-253 77 -253 203q0 58 29 92q30 32 67 56t67 42t29 41v17q-118 19 -199 100q-104 104 -104 254v1003q0 17 11 29t32 12h168q43 0 43 -41v-1003q0 -43 31 -74t73 -31t74 31q31 31 31 74v1003q0 41 45 41h170q39 0 39 -41v-1003q0 -149 -105 -254
q-73 -73 -166 -94v-29q0 -41 -30 -69t-65 -50t-65 -46q-30 -22 -30 -52q0 -59 160 -98q10 -6 10 -18q0 -50 -34 -84q-11 -11 -23 -11h-5z" />
    <glyph glyph-name="Wcircumflex" unicode="&#x174;" horiz-adv-x="1323" 
d="M74 1341q0 41 41 41h170q43 0 43 -41v-1003q0 -43 30 -74t73 -31q42 0 74 31t32 74v1003q0 41 41 41h174q39 0 39 -41v-1003q-1 -43 31 -74t74 -31t73 32t30 73v1003q1 21 13 31t28 10h170q16 0 30 -12t13 -29v-1003q0 -150 -105 -255t-243 -104t-241 84
q-102 -85 -242 -84t-245 106t-103 253v1003zM668 1796q8 0 14 -6l217 -219q6 -5 6 -13t-6 -14l-53 -53q-6 -6 -14 -6t-13 4l-151 153l-150 -153q-4 -4 -12 -4t-14 6l-54 55q-6 6 -6 12t6 13l217 219q5 6 13 6z" />
    <glyph glyph-name="wcircumflex" unicode="&#x175;" horiz-adv-x="1327" 
d="M76 983q0 41 41 41h170q43 0 43 -41v-645q0 -43 30 -74t73 -31q42 0 74 31t32 74v645q0 41 41 41h174q39 0 39 -41v-645q-1 -43 31 -74t74 -31t73 32t30 73v645q1 21 13 31t28 10h170q16 0 30 -12t13 -29v-645q0 -150 -105 -255t-243 -104t-241 84q-102 -85 -242 -84
t-245 106t-103 253v645zM648 1417q7 0 14 -6l217 -219q6 -6 6 -13t-6 -14l-54 -53q-6 -6 -14 -6t-12 4l-152 154l-149 -154q-4 -4 -12 -4t-15 6l-53 55q-6 7 -6 13t6 12l217 219q6 6 13 6z" />
    <glyph glyph-name="Ycircumflex" unicode="&#x176;" horiz-adv-x="882" 
d="M84 1382h195q25 0 32 -20l131 -416l138 416q7 20 24 20h197q16 0 25 -14t6 -25q-3 -10 -11 -30q-8 -19 -23 -63t-44 -122t-73 -198t-108 -295v-588q0 -47 -41 -47h-178q-35 0 -37 47v588q-266 701 -268 713t8 23t27 11zM443 1798q7 0 14 -6l217 -219q6 -6 6 -13t-6 -14
l-53 -53q-7 -6 -15 -6t-12 4l-152 154l-149 -154q-4 -4 -12 -4t-15 6l-53 55q-6 6 -6 12t6 13l217 219q6 6 13 6z" />
    <glyph glyph-name="ycircumflex" unicode="&#x177;" 
d="M535 987q0 37 36 37h179q18 0 28 -11t10 -26v-1007q0 -152 -104 -256q-104 -103 -254 -103q-88 0 -167 39t-128 113q-10 23 10 41l115 116q31 26 57 2q12 -10 40 -34t72 -23q44 0 75 31t31 74v16q-59 -16 -119 -16t-126 28t-114 76q-106 106 -104 254v645q0 17 11 29
t32 12h168q41 0 43 -41v-645q0 -43 30 -74t73 -31q42 0 72 28t34 69v657zM433 1417q7 0 13 -6l218 -219q6 -6 6 -13t-6 -14l-54 -53q-6 -6 -14 -6t-12 4l-152 154l-149 -154q-5 -4 -13 -4t-14 6l-53 55q-6 7 -6 13t6 12l217 219q6 6 13 6z" />
    <glyph glyph-name="Ydieresis" unicode="&#x178;" horiz-adv-x="862" 
d="M74 1382h194q25 0 33 -20l131 -416l137 416q7 20 25 20h197q16 0 25 -14t6 -25q-3 -10 -11 -30q-7 -19 -23 -63t-45 -122t-73 -198t-107 -295v-588q0 -47 -41 -47h-178q-16 0 -27 13q-10 13 -10 34v588q-266 701 -268 713t8 23t27 11zM530 1780q0 39 41 39h160
q39 0 39 -39v-156q0 -16 -10 -30t-29 -15h-160q-41 0 -41 45v156zM164 1780q0 39 39 39h162q14 -1 26 -11t12 -28v-156q0 -16 -11 -30t-27 -15h-162q-39 0 -39 45v156z" />
    <glyph glyph-name="Zacute" unicode="&#x179;" horiz-adv-x="872" 
d="M127 1128q-47 0 -47 46v167q0 17 13 29t34 12h627q41 0 43 -41v-167q0 -16 -6 -31l-412 -889h375q41 0 43 -43v-164q-1 -15 -13 -31t-30 -16h-627q-16 0 -32 14q-15 14 -15 33v168q0 12 6 25l422 888h-381zM543 1804h131q27 0 26 -18q0 -10 -6 -23l-114 -237
q-10 -18 -22 -30t-34 -11h-131q-33 0 -33 20q0 8 7 21l114 237q18 41 62 41z" />
    <glyph glyph-name="zacute" unicode="&#x17a;" horiz-adv-x="862" 
d="M121 770q-47 0 -47 45v168q0 17 13 29t34 12h627q41 0 43 -41v-183q0 -7 -7 -16l-381 -530h345q41 0 43 -43v-164q-1 -15 -13 -31t-30 -16h-627q-16 0 -32 14q-15 14 -15 33v168q0 14 6 25l385 530h-344zM537 1421h131q27 0 26 -18q0 -10 -6 -23l-115 -237
q-10 -17 -21 -29t-34 -12h-131q-33 0 -33 20q0 8 6 21l115 237q18 41 62 41z" />
    <glyph glyph-name="Zdotaccent" unicode="&#x17b;" horiz-adv-x="897" 
d="M137 1128q-47 0 -47 46v167q0 17 13 29t34 12h627q43 0 43 -41v-167q0 -16 -6 -31l-412 -889h375q43 0 43 -43v-164q0 -15 -12 -31t-31 -16h-627q-16 0 -32 14q-15 14 -15 33v168q0 12 6 25l422 888h-381zM340 1780q0 39 39 39h162q14 -1 26 -11t13 -28v-156
q0 -16 -12 -30t-27 -15h-162q-39 0 -39 45v156z" />
    <glyph glyph-name="zdotaccent" unicode="&#x17c;" horiz-adv-x="862" 
d="M121 770q-47 0 -47 45v168q0 17 13 29t34 12h627q41 0 43 -41v-183q0 -7 -7 -16l-381 -530h345q41 0 43 -43v-164q-1 -15 -13 -31t-30 -16h-627q-16 0 -32 14q-15 14 -15 33v168q0 14 6 25l385 530h-344zM315 1378q0 39 39 39h162q14 0 26 -10t13 -29v-155q0 -17 -11 -31
t-28 -14h-162q-39 0 -39 45v155z" />
    <glyph glyph-name="Zcaron" unicode="&#x17d;" horiz-adv-x="780" 
d="M80 1128q-47 0 -47 46v167q0 17 13 29t34 12h627q41 0 43 -41v-167q0 -17 -7 -31l-411 -889h375q41 0 43 -43v-164q0 -15 -12 -31t-31 -16h-627q-16 0 -32 14q-15 14 -15 33v168q0 12 6 25l422 888h-381z" />
    <glyph glyph-name="zcaron" unicode="&#x17e;" horiz-adv-x="780" 
d="M80 770q-47 0 -47 45v168q0 17 13 29t34 12h627q41 0 43 -41v-183q0 -7 -7 -16l-381 -530h345q41 0 43 -43v-164q0 -15 -12 -31t-31 -16h-627q-16 0 -32 14q-15 14 -15 33v168q0 14 6 25l385 530h-344z" />
    <glyph glyph-name="florin" unicode="&#x192;" horiz-adv-x="649" 
d="M70 983q0 41 41 41h86v20q0 149 103.5 254t254.5 105h16q41 -4 41 -41v-166q0 -20 -12 -33.5t-29 -13.5h-16q-43 0 -73.5 -31t-30.5 -74v-20h120q41 0 41 -41v-145q0 -45 -41 -45h-120v-791q0 -149 -104.5 -253.5t-254.5 -104.5h-16q-41 4 -41 41v165q0 20 12 34t29 14
h16q43 0 74 30.5t31 73.5v791h-86q-41 0 -41 45v145z" />
    <glyph glyph-name="aeacute" unicode="&#x1fd;" horiz-adv-x="1308" 
d="M422 446q-43 0 -74 -32t-31 -76q0 -43 31 -74t74 -31t74 31t30 74v108h-104zM1200 358q45 0 45 -65q1 -43 -27 -103t-77 -107q-112 -105 -254 -103q-68 0 -129 23q-8 -3 -19 -3h-176q-12 0 -14 2q-140 -47 -270 7q-130 55 -188 190q-28 65 -28 139t28 138q56 129 192 183
q66 27 139 27h104q0 41 -30 73q-31 32 -72 32q-41 1 -71 -23q-31 -24 -43 -36t-28 -11q-15 0 -30 14l-115 117q-21 21 -10 41q43 78 125 115t170 36q134 0 232 -84q101 86 242 85t246 -106t103 -253v-194q0 -44 -41 -46h-422v-108q0 -43 31 -74t79 -31q48 -1 68 19t29 44
q7 24 15 43t32 19h164zM991 672q-1 72 -31 98t-73 27q-43 0 -73 -28t-32 -97h209zM713 1409h131q27 0 26 -18q0 -10 -6 -23l-114 -238q-22 -40 -56 -40h-131q-33 0 -33 20q0 8 7 20l114 238q18 41 62 41z" />
    <glyph glyph-name="circumflex" unicode="&#x2c6;" horiz-adv-x="546" 
d="M273 1417q7 0 14 -6l217 -219q6 -6 6 -13t-6 -14l-53 -53q-6 -6 -14.5 -6t-12.5 4l-152 154l-149 -154q-4 -4 -12 -4t-15 6l-53 55q-6 6 -6 12.5t6 12.5l217 219q6 6 13 6z" />
    <glyph glyph-name="caron" unicode="&#x2c7;" horiz-adv-x="595" 
d="M561 1328q0 -9 -4 -13l-244 -244q-8 -8 -14 -8t-14 8l-244 244q-6 6 -6 13t6 13l59 62q4 6 14.5 7t16.5 -5l168 -170l168 170q14 12 29 -2l59 -60q6 -6 6 -15z" />
    <glyph glyph-name="breve" unicode="&#x2d8;" horiz-adv-x="522" 
d="M260 1116q-47 0 -95 27.5t-112 107.5q-2 3 -2 7t-1 11t7 13l78 53q3 4 15 4t18 -6l43 -53q20 -25 49 -25t51 25l41 53q6 6 14 6t21 -4l76 -53q10 -6 9 -13l-1 -7l-2 -11q-63 -80 -112.5 -107.5t-96.5 -27.5z" />
    <glyph glyph-name="dotaccent" unicode="&#x2d9;" horiz-adv-x="403" 
d="M82 1321q0 39 39 39h162q14 0 26.5 -10.5t12.5 -28.5v-156q0 -16 -11.5 -30.5t-27.5 -14.5h-162q-39 0 -39 45v156z" />
    <glyph glyph-name="ogonek" unicode="&#x2db;" horiz-adv-x="432" 
d="M301 -467q-254 77 -254 203q0 58 29.5 91.5t66.5 57t67 42t30 40.5v33h143v-39q0 -41 -29.5 -68.5t-65.5 -50t-65.5 -45t-29.5 -53.5q0 -59 159 -98q10 -6 10 -18q0 -25 -16.5 -60t-40.5 -35h-4z" />
    <glyph glyph-name="tilde" unicode="&#x2dc;" horiz-adv-x="630" 
d="M234 1315q52 0 98 -33l39 -25q15 -10 35 -10t36 23l19 26q9 19 31 2l69 -47q12 -8 4 -28l-18 -25q-55 -76 -148 -76q-57 0 -102 31l-37 25q-16 10 -37 10t-35 -21l-18 -26q-12 -19 -31 -4l-69 47q-14 12 -4 28l18 27q33 45 65.5 60.5t84.5 15.5z" />
    <glyph glyph-name="pi" unicode="&#x3c0;" horiz-adv-x="1083" 
d="M59 983q0 41 41 41h881q16 0 28.5 -10t12.5 -31v-168q0 -14 -11.5 -29.5t-29.5 -15.5h-107v-729q0 -41 -45 -41h-167q-41 0 -41 41v729h-138v-729q0 -41 -45 -41h-168q-41 0 -41 41v729h-129q-41 0 -41 45v168z" />
    <glyph glyph-name="afii10103" unicode="&#x456;" horiz-adv-x="421" 
d="M84 1341q0 41 41 41h172q16 0 28.5 -10t12.5 -31v-167q0 -14 -11.5 -30t-29.5 -16h-172q-41 0 -41 46v167zM84 983q0 41 41 41h168q14 0 29.5 -11.5t15.5 -29.5v-942q0 -41 -45 -41h-168q-41 0 -41 41v942z" />
    <glyph glyph-name="Wgrave" unicode="&#x1e80;" horiz-adv-x="1312" 
d="M68 1341q0 41 41 41h170q43 0 43 -41v-1003q0 -43 30 -74t73 -31q42 0 74 31t31 74v1003q0 41 41 41h174q39 0 39 -41v-1003q0 -43 32 -74t74 -31t73 32t30 73v1003q1 21 13 31t28 10h170q16 0 30 -12t13 -29v-1003q0 -150 -105 -255t-243 -104t-242 84
q-102 -85 -242 -84q-139 1 -244 106t-103 253v1003zM414 1788q0 18 26 18h131q43 0 62 -41l115 -237q6 -12 6 -21q0 -20 -33 -20h-131q-23 0 -34 11t-21 30l-115 237q-6 12 -6 23z" />
    <glyph glyph-name="wgrave" unicode="&#x1e81;" horiz-adv-x="1343" 
d="M82 338v645q0 41 41 41h170q43 0 43 -41v-645q0 -43 31 -74t73 -31t73 31q32 31 32 74v645q0 41 41 41h174q39 0 39 -41v-645q-1 -43 31 -74t74 -31t73 32t31 73v645q0 21 12 31t29 10h170q16 0 29 -12t14 -29v-645q0 -149 -106 -255t-243 -104q-138 1 -241 84
q-102 -85 -242 -84t-244 105t-104 254zM424 1403q0 18 27 18h131q43 0 61 -41l115 -237q6 -12 6 -21q0 -20 -33 -20h-131q-23 0 -34 11t-21 30l-115 237q-6 12 -6 23z" />
    <glyph glyph-name="Wacute" unicode="&#x1e82;" horiz-adv-x="1323" 
d="M74 1341q0 41 41 41h170q43 0 43 -41v-1003q0 -43 30 -74t73 -31q42 0 74 31t32 74v1003q0 41 41 41h174q39 0 39 -41v-1003q-1 -43 31 -74t74 -31t73 32t30 73v1003q1 21 13 31t28 10h170q16 0 30 -12t13 -29v-1003q0 -150 -105 -255t-243 -104t-241 84
q-102 -85 -242 -84t-245 106t-103 253v1003zM754 1804h131q27 0 26 -18q0 -10 -6 -23l-114 -237q-9 -18 -21 -30t-35 -11h-131q-33 0 -33 20q0 8 7 21l114 237q18 41 62 41z" />
    <glyph glyph-name="wacute" unicode="&#x1e83;" horiz-adv-x="1327" 
d="M76 983q0 41 41 41h170q43 0 43 -41v-645q0 -43 30 -74t73 -31q42 0 74 31t32 74v645q0 41 41 41h174q39 0 39 -41v-645q-1 -43 31 -74t74 -31t73 32t30 73v645q1 21 13 31t28 10h170q16 0 30 -12t13 -29v-645q0 -150 -105 -255t-243 -104t-241 84q-102 -85 -242 -84
t-245 106t-103 253v645zM760 1421h131q27 0 27 -18q0 -10 -7 -23l-114 -237q-9 -17 -21 -29t-35 -12h-131q-33 0 -32 20q0 8 6 21l114 237q18 41 62 41z" />
    <glyph glyph-name="Wdieresis" unicode="&#x1e84;" horiz-adv-x="1333" 
d="M78 1341q0 41 41 41h170q43 0 43 -41v-1003q0 -43 30 -74t73 -31q42 0 74 31t32 74v1003q0 41 41 41h174q39 0 39 -41v-1003q-1 -43 31 -74t74 -31t73 32t31 73v1003q0 21 12 31t28 10h170q16 0 30 -12t13 -29v-1003q0 -150 -105 -255t-243 -104t-241 84
q-102 -85 -242 -84t-245 106t-103 253v1003zM729 1780q0 39 41 39h160q39 0 39 -39v-156q-1 -16 -11 -30t-28 -15h-160q-41 0 -41 45v156zM362 1780q0 39 39 39h162q15 -1 27 -11t12 -28v-156q0 -16 -11 -30t-28 -15h-162q-39 0 -39 45v156z" />
    <glyph glyph-name="wdieresis" unicode="&#x1e85;" horiz-adv-x="1333" 
d="M76 983q0 41 41 41h170q43 0 43 -41v-645q0 -43 30 -74t73 -31q42 0 74 31t32 74v645q0 41 41 41h174q39 0 39 -41v-645q-1 -43 31 -74t74 -31t73 32t30 73v645q1 21 13 31t28 10h170q16 0 30 -12t13 -29v-645q0 -150 -105 -255t-243 -104t-241 84q-102 -85 -242 -84
t-245 106t-103 253v645zM735 1378q0 39 41 39h160q39 0 39 -39v-155q0 -17 -10 -31t-29 -14h-160q-41 0 -41 45v155zM369 1378q0 39 39 39h161q15 0 27 -10t12 -29v-155q0 -17 -11 -31t-28 -14h-161q-39 0 -39 45v155z" />
    <glyph glyph-name="Ygrave" unicode="&#x1ef2;" horiz-adv-x="876" 
d="M80 1382h194q25 0 33 -20l131 -416l137 416q7 20 25 20h197q16 0 25 -14t6 -25q-3 -10 -11 -30q-8 -19 -23 -63t-44 -122t-73 -198t-108 -295v-588q0 -47 -41 -47h-178q-35 0 -37 47v588q-266 701 -268 713t8 23t27 11zM199 1786q0 18 26 18h131q43 0 62 -41l114 -237
q6 -12 7 -21q0 -20 -33 -20h-131q-23 0 -34 11t-22 30l-114 237q-6 12 -6 23z" />
    <glyph glyph-name="ygrave" unicode="&#x1ef3;" horiz-adv-x="837" 
d="M272 1024q43 0 43 -41v-645q0 -43 31 -74t73 -31q41 0 71 28t34 69v657q0 13 10 25t27 12h178q19 0 29 -11t10 -26v-1007q0 -152 -104 -256q-104 -103 -254 -103q-88 0 -167 39t-128 113q-10 23 10 41l115 116q31 26 57 2q12 -10 40 -34t72 -23q44 0 75 31t30 74v16
q-58 -16 -118 -16t-126 28t-114 76q-105 105 -105 254v645q-1 17 11 29t32 12h168zM180 1403q0 18 27 18h131q43 0 61 -41l115 -237q6 -12 6 -21q0 -20 -33 -20h-131q-24 0 -34 11t-21 30l-115 237q-6 12 -6 23z" />
    <glyph glyph-name="figuredash" unicode="&#x2012;" horiz-adv-x="880" 
d="M82 600q0 41 41 41h635q16 0 28.5 -10t12.5 -31v-168q0 -14 -11.5 -29.5t-29.5 -15.5h-635q-41 0 -41 45v168z" />
    <glyph glyph-name="endash" unicode="&#x2013;" horiz-adv-x="1103" 
d="M82 635q0 41 41 41h858q16 0 28.5 -10.5t12.5 -30.5v-164q0 -14 -11.5 -29.5t-29.5 -15.5h-858q-41 0 -41 45v164z" />
    <glyph glyph-name="emdash" unicode="&#x2014;" horiz-adv-x="1411" 
d="M82 635q0 41 41 41h1165q16 0 28.5 -10.5t12.5 -30.5v-164q0 -14 -11 -29.5t-30 -15.5h-1165q-41 0 -41 45v164z" />
    <glyph glyph-name="quoteleft" unicode="&#x2018;" horiz-adv-x="339" 
d="M270 932q0 -41 -41 -41h-131q-16 0 -28.5 10t-12.5 31v172q0 171 152 270q22 11 46 -13t24 -37t-35 -54t-35 -105v-41q0 -20 20 -20h7q35 -4 34 -41v-131z" />
    <glyph glyph-name="quoteright" unicode="&#x2019;" horiz-adv-x="342" 
d="M242 1386q41 0 41 -40v-172q0 -172 -152 -271q-23 -11 -43 10t-23.5 28t-3.5 15.5t35 51t35 104.5v41q0 20 -20 21h-7q-35 4 -34 40v132q0 41 41 40h131z" />
    <glyph glyph-name="quotesinglbase" unicode="&#x201a;" horiz-adv-x="339" 
d="M68 172q0 41 41 41h131q16 0 28.5 -10t12.5 -31v-172q0 -171 -152 -270q-23 -10 -43 10t-23.5 27.5t-3.5 15.5t35 52t35 104v41q0 20 -20 20h-7q-35 4 -34 41v131z" />
    <glyph glyph-name="quotedblleft" unicode="&#x201c;" horiz-adv-x="604" 
d="M526 932q0 -41 -41 -41h-131q-16 0 -28.5 10t-12.5 31v172q0 171 152 270q22 11 46 -13t24 -37t-35 -54t-35 -105v-41q0 -20 20 -20h7q35 -4 34 -41v-131zM281 932q0 -41 -41 -41h-131q-16 0 -28.5 10t-12.5 31v172q0 171 151 270q22 11 46 -13t24 -37t-35 -54t-35 -105
v-41q0 -20 21 -20h6q35 -4 35 -41v-131z" />
    <glyph glyph-name="quotedblright" unicode="&#x201d;" horiz-adv-x="602" 
d="M76 1343q0 41 41 41h131q16 0 28.5 -10t12.5 -31v-172q0 -171 -152 -270q-23 -11 -43 9t-23 28t-3 16.5t34.5 52.5t34.5 103v41q0 20 -20 20h-6q-35 4 -35 41v131zM322 1343q0 41 40 41h132q16 0 28.5 -10t12.5 -31v-172q0 -171 -152 -270q-23 -11 -43 9t-23.5 28
t-3.5 16.5t35 51t35 104.5v41q0 20 -21 20h-6q-35 4 -34 41v131z" />
    <glyph glyph-name="quotedblbase" unicode="&#x201e;" horiz-adv-x="602" 
d="M322 172q0 41 40 41h132q16 0 28.5 -10t12.5 -31v-172q0 -171 -152 -270q-23 -10 -43 10t-23.5 27.5t-3.5 15.5t35 52t35 104v41q0 20 -21 20h-6q-35 4 -34 41v131zM76 172q0 41 41 41h131q16 0 28.5 -10t12.5 -31v-172q0 -171 -152 -270q-23 -10 -43 10t-23 27.5
t-3 15.5t34.5 53.5t34.5 102.5v41q0 20 -20 20h-6q-35 4 -35 41v131z" />
    <glyph glyph-name="dagger" unicode="&#x2020;" horiz-adv-x="757" 
d="M252 1341q0 41 41 41h168q14 0 29.5 -11t15.5 -30v-700h190q16 0 28.5 -10t12.5 -31v-168q0 -14 -11 -29.5t-30 -15.5h-190v-702q0 -41 -45 -41h-168q-41 0 -41 41v702h-191q-41 0 -41 45v168q0 41 41 41h191v700z" />
    <glyph glyph-name="daggerdbl" unicode="&#x2021;" horiz-adv-x="774" 
d="M29 416q0 41 41 41h190v114h-190q-41 0 -41 45v168q0 41 41 41h190v516q0 16 10.5 28.5t30.5 12.5h168q14 0 29.5 -11t15.5 -30v-516h191q16 0 28 -10t12 -31v-168q0 -14 -11 -29.5t-29 -15.5h-191v-114h191q16 0 28 -10.5t12 -30.5v-168q0 -14 -11 -29.5t-29 -15.5h-191
v-518q0 -41 -45 -41h-168q-41 0 -41 41v518h-190q-41 0 -41 45v168z" />
    <glyph glyph-name="bullet" unicode="&#x2022;" horiz-adv-x="323" 
d="M57 481q0 43 31 74t74 31t73.5 -31t30.5 -74t-30.5 -73.5t-73.5 -30.5t-74 30.5t-31 73.5z" />
    <glyph glyph-name="onedotenleader" unicode="&#x2024;" horiz-adv-x="417" 
d="M82 213q0 41 41 41h172q16 0 28.5 -10.5t12.5 -30.5v-168q0 -14 -11.5 -29.5t-29.5 -15.5h-172q-41 0 -41 45v168z" />
    <glyph glyph-name="twodotenleader" unicode="&#x2025;" horiz-adv-x="710" 
d="M375 213q0 41 41 41h172q16 0 28.5 -10.5t12.5 -30.5v-168q0 -14 -11.5 -29.5t-29.5 -15.5h-172q-41 0 -41 45v168zM82 213q0 41 41 41h172q16 0 28.5 -10.5t12.5 -30.5v-168q0 -14 -11.5 -29.5t-29.5 -15.5h-172q-41 0 -41 45v168z" />
    <glyph glyph-name="ellipsis" unicode="&#x2026;" horiz-adv-x="1003" 
d="M668 213q0 41 41 41h172q16 0 28.5 -10.5t12.5 -30.5v-168q0 -14 -11.5 -29.5t-29.5 -15.5h-172q-41 0 -41 45v168zM375 213q0 41 41 41h172q16 0 28.5 -10.5t12.5 -30.5v-168q0 -14 -11.5 -29.5t-29.5 -15.5h-172q-41 0 -41 45v168zM82 213q0 41 41 41h172
q16 0 28.5 -10.5t12.5 -30.5v-168q0 -14 -11.5 -29.5t-29.5 -15.5h-172q-41 0 -41 45v168z" />
    <glyph glyph-name="perthousand" unicode="&#x2030;" horiz-adv-x="1591" 
d="M1356 485q0 31 -21.5 53.5t-51.5 22.5t-52.5 -19.5t-22.5 -56.5v-247q2 -37 23.5 -56.5t51.5 -19.5t51.5 22.5t21.5 53.5v247zM381 1147q0 31 -21.5 53.5t-52.5 22.5t-53.5 -22.5t-22.5 -53.5v-248q0 -31 22.5 -53.5t53.5 -22.5t52.5 22.5t21.5 53.5v248zM1026 485
q0 33 -22.5 54.5t-52.5 21.5t-52 -22.5t-22 -53.5v-247q0 -31 22.5 -53.5t53 -22.5t52 22.5t21.5 53.5v247zM868 1382h115q23 0 39 -10t6 -31l-588 -1300q-10 -23 -19 -32t-30 -9h-135q-39 0 -39 27q0 -6 4 14l588 1300q21 41 59 41zM51 1147q0 104 76 180t181 76t180 -76.5
t75 -179.5v-248q0 -103 -75 -179.5t-180 -76.5t-181 76t-76 180v248zM696 485q0 106 76.5 181t176.5 75q101 0 167 -59q72 59 171 59t175 -75t76 -181v-247q0 -106 -76.5 -181t-174.5 -75q-99 0 -171 59q-66 -59 -167 -59t-177 75t-76 181v247z" />
    <glyph glyph-name="guilsinglleft" unicode="&#x2039;" horiz-adv-x="737" 
d="M569.5 1038q18.5 0 30.5 -12l86 -88q12 -12 12 -30t-10 -27l-366 -369l366 -367q10 -10 10 -28.5t-14 -32.5l-88 -88q-12 -12 -28 -12t-27 12l-488 489q-14 13 -14 27t14 29l488 487q10 10 28.5 10z" />
    <glyph glyph-name="guilsinglright" unicode="&#x203a;" horiz-adv-x="737" 
d="M698 514q0 -14 -14 -29l-487 -489q-11 -12 -27 -12t-29 12l-88 88q-14 14 -14 32.5t10 28.5l367 367l-367 369q-10 10 -10 27t12 30l86 88q12 12 30.5 12t29.5 -10l487 -487q14 -13 14 -27z" />
    <glyph glyph-name="exclamdbl" unicode="&#x203c;" horiz-adv-x="706" 
d="M369 1341q0 41 45 41h168q41 0 41 -41v-999q0 -16 -10.5 -28.5t-30.5 -12.5h-168q-14 0 -29.5 11.5t-15.5 29.5v999zM369 213q0 41 41 41h172q16 0 28.5 -10.5t12.5 -30.5v-168q0 -14 -11.5 -29.5t-29.5 -15.5h-172q-41 0 -41 45v168zM82 1341q0 41 45 41h168
q41 0 41 -41v-999q0 -16 -10.5 -28.5t-30.5 -12.5h-168q-14 0 -29.5 11.5t-15.5 29.5v999zM82 213q0 41 41 41h172q16 0 28.5 -10.5t12.5 -30.5v-168q0 -14 -11.5 -29.5t-29.5 -15.5h-172q-41 0 -41 45v168z" />
    <glyph glyph-name="fraction" unicode="&#x2044;" horiz-adv-x="833" 
d="M776 1382q47 0 47 -28q0 -10 -2 -13l-588 -1300q-10 -23 -19 -32t-30 -9h-135q-39 0 -39 27q0 -6 4 14l588 1300q20 41 60 41h114z" />
    <glyph glyph-name="zerosuperior" unicode="&#x2070;" horiz-adv-x="509" 
d="M298 906q0 23 -16 39t-40 16q-23 0 -39 -16t-17 -39v-377q0 -23 16 -39t40 -17q23 0 39 16t17 40v377zM51 906q-1 80 55 136t135 55q79 0 136 -56t57 -135v-377q0 -80 -56 -136t-135 -56t-137 56q-57 57 -55 136v377z" />
    <glyph glyph-name="nsuperior" unicode="&#x207f;" horiz-adv-x="505" 
d="M336 256q-23 0 -23 23v370q0 23 -18 41t-42 18t-42 -17q-18 -18 -18 -41v-371q0 -23 -25 -23h-98q-24 0 -23 23v540q0 23 23 23h97l10 -2q42 14 80 14q83 0 143 -61t58 -144v-370q0 -9 -8 -16t-16 -7h-98z" />
    <glyph glyph-name="Euro" unicode="&#x20ac;" horiz-adv-x="909" 
d="M135 1044q0 150 104.5 254.5t254 104.5t254 -104.5t104.5 -254.5q0 -18 -10.5 -30.5t-28.5 -12.5h-170q-25 0 -35 23t-20 50.5t-29.5 51t-63.5 23.5t-75 -31t-31 -74v-122h381q16 0 28.5 -10.5t12.5 -30.5v-103q0 -14 -11.5 -29.5t-29.5 -15.5h-381v-80h381
q16 0 28.5 -10t12.5 -31v-102q0 -14 -11.5 -29.5t-29.5 -15.5h-381v-127q0 -43 31 -74t75 -31t63.5 24t29.5 52.5t20 52t35 23.5h164q16 0 30.5 -11.5t14.5 -33.5q0 -153 -105 -256.5t-253.5 -103.5t-253.5 103.5t-105 254.5v127h-39q-41 0 -41 45v102q0 41 41 41h39v80h-39
q-41 0 -41 45v103q0 41 41 41h39v122z" />
    <glyph glyph-name="trademark" unicode="&#x2122;" horiz-adv-x="933" 
d="M379 1243q0 61 43 104.5t99 43.5t97 -35q42 35 100 35t100 -43t42 -105v-407q0 -16 -16 -17h-70q-16 0 -16 17v407q0 16 -13.5 29.5t-30.5 13.5t-29.5 -12t-12.5 -31v-407q0 -16 -17 -17h-69q-16 0 -17 17v407q0 18 -14 30.5t-30.5 12.5t-29 -12t-12.5 -31v-407
q0 -16 -18 -17h-68q-18 0 -18 17v407zM270 838q0 -19 -18 -19h-68q-4 0 -11 6t-7 13v440h-74q-20 0 -20 20v66q0 18 20 18h252q16 0 21 -18v-66q0 -20 -21 -20h-74v-440z" />
    <glyph glyph-name="minus" unicode="&#x2212;" horiz-adv-x="880" 
d="M82 600q0 41 41 41h635q16 0 28.5 -10t12.5 -31v-168q0 -14 -11.5 -29.5t-29.5 -15.5h-635q-41 0 -41 45v168z" />
    <glyph glyph-name="ff" unicode="&#xfb00;" horiz-adv-x="1079" 
d="M426 41q0 -41 -43 -41h-168q-20 0 -32 12q-11 12 -11 29v752h-86q-41 0 -41 45v145q0 41 41 41h86v20q0 150 104 254t254 105h17q41 -4 41 -41v-166q0 -20 -12 -34t-29 -13h-17q-44 0 -74 -31t-30 -74v-20h195v20q1 152 105 256q104 103 253 103h16q41 -4 41 -41v-166
q0 -20 -12 -34t-29 -13h-16q-43 0 -74 -31t-31 -74v-20h121q41 0 41 -41v-145q0 -45 -41 -45h-121v-752q0 -41 -43 -41h-167q-20 0 -32 12q-11 12 -11 29v752h-195v-752z" />
    <glyph glyph-name="fi" unicode="&#xfb01;" horiz-adv-x="890" 
d="M606 1196v166q0 11 -3 19q6 1 11 1h172q41 0 41 -41v-167q0 -45 -41 -46h-172q-22 0 -34 24q26 10 26 44zM827 983v-942q0 -41 -41 -41h-168q-45 0 -45 41v750h150v233h63q20 0 30.5 -12.5t10.5 -28.5zM573 1174q0 -11 7 -22q-7 -3 -15 -3h-16q-43 0 -74 -31t-31 -74v-20
h174q-12 0 -24 -8q13 -10 12 -33v-145q0 -40 -33 -45v-2h-129v-750q0 -20 -13 -30.5t-30 -10.5h-168q-20 0 -31.5 12.5t-11.5 28.5v752h-86q-41 0 -41 45v145q0 41 41 41h86v20q0 148 104 253.5t255 105.5h16q29 -3 38 -22q-28 -6 -30 -40v-167z" />
    <glyph glyph-name="fl" unicode="&#xfb02;" horiz-adv-x="1091" 
d="M180 1044q0 148 104 253.5t255 105.5h295q16 0 29.5 -10.5t13.5 -30.5v-1024q0 -43 30.5 -74t73.5 -31h16q16 0 28.5 -13t12.5 -34v-166q0 -37 -41 -40h-16q-150 0 -254 104t-104 254v811h-84q-43 0 -74 -31t-31 -74v-20h121q41 0 41 -41v-145q0 -45 -41 -45h-121v-752
q0 -20 -13 -30.5t-30 -10.5h-168q-20 0 -31.5 12.5t-11.5 28.5v752h-86q-41 0 -41 45v145q0 41 41 41h86v20z" />
    <glyph glyph-name="ffi" unicode="&#xfb03;" horiz-adv-x="1374" 
d="M1042 1174q0 -10 6 -21q-8 -4 -18 -4h-16q-43 0 -74 -31t-31 -74v-20h178q-13 0 -27 -10q11 -10 11 -31v-145q0 -38 -29 -44v-3h-133v-750q0 -20 -13 -30.5t-30 -10.5h-168q-20 0 -31.5 12.5t-11.5 28.5v752h-196v-752q0 -20 -13.5 -30.5t-29.5 -10.5h-168
q-20 0 -31.5 12.5t-11.5 28.5v752h-86q-41 0 -41 45v145q0 41 41 41h86v20q0 149 103.5 254t254.5 105h17q41 -4 41 -41v-166q0 -20 -12.5 -33.5t-28.5 -13.5h-17q-43 0 -73.5 -31t-30.5 -74v-20h196v20q0 148 104 253.5t255 105.5h16q30 -3 38 -23q-25 -11 -26 -39v-167z
M1071 1196v166q0 10 -3 18q7 3 15 2h172q41 0 41 -41v-167q0 -45 -41 -46h-172q-22 0 -35 25q23 11 23 43zM1296 983v-942q0 -41 -41 -41h-168q-45 0 -45 41v750h187v233h26q20 0 30.5 -12.5t10.5 -28.5z" />
    <glyph glyph-name="ffl" unicode="&#xfb04;" horiz-adv-x="1554" 
d="M639 1044q0 150 104.5 254.5t253.5 104.5h17q41 -4 41 -41v-166q0 -20 -12.5 -33.5t-28.5 -13.5h-17q-43 0 -73.5 -31t-30.5 -74v-20h182v317q0 16 11.5 28.5t31.5 12.5h168q16 0 29.5 -10t13.5 -31v-1003q0 -43 31 -74t74 -31h16q16 0 28.5 -13t12.5 -34v-166
q0 -37 -41 -40h-16q-149 0 -254 103.5t-105 254.5v455h-182v-752q0 -20 -13.5 -30.5t-29.5 -10.5h-168q-20 0 -31.5 12.5t-11.5 28.5v752h-197v-752q0 -20 -13 -30.5t-30 -10.5h-168q-20 0 -31.5 12.5t-11.5 28.5v752h-86q-41 0 -41 45v145q0 41 41 41h86v20
q0 148 104 253.5t255 105.5h16q41 -4 41 -41v-166q0 -20 -12 -33.5t-29 -13.5h-16q-43 0 -74 -31t-31 -74v-20h197v20z" />
    <glyph glyph-name="s_t" unicode="&#xfb06;" horiz-adv-x="1286" 
d="M305 707q1 -72 99 -72q174 0 269 -108.5t95 -236.5t-104 -220.5t-253 -92.5t-254.5 92t-105.5 240v33q0 23 12.5 33t24.5 10h174q16 0 29.5 -10t13.5 -33v-33q0 -54 46 -65t74 -11t58.5 23.5t30.5 55.5t-30 56.5t-92 24.5t-127.5 26.5t-139.5 94.5t-74 202t92.5 221
t266.5 87h407v317q0 16 11.5 28.5t31.5 12.5h168q16 0 29.5 -10t13.5 -31v-317h121q41 0 41 -41v-149q0 -45 -41 -46h-121v-450q0 -43 31 -74t74 -31h16q16 0 28.5 -13t12.5 -34v-166q0 -37 -41 -40h-16q-149 0 -254 103.5t-105 254.5v450h-407q-43 0 -74 -23.5t-31 -57.5z
" />
    <glyph glyph-name="glyph299" horiz-adv-x="0" 
 />
    <glyph glyph-name="percent" horiz-adv-x="1251" 
d="M1016 485q0 31 -21.5 53.5t-52.5 22.5t-53.5 -22.5t-22.5 -53.5v-247q0 -31 22.5 -53.5t53.5 -22.5t52.5 22.5t21.5 53.5v247zM686 485q0 106 76.5 181t179.5 75t179.5 -75t76.5 -181v-247q0 -106 -76.5 -181t-179.5 -75t-179.5 75t-76.5 181v247zM381 1147
q0 31 -21.5 53.5t-52.5 22.5t-53.5 -22.5t-22.5 -53.5v-248q0 -31 22.5 -53.5t53.5 -22.5t52.5 22.5t21.5 53.5v248zM868 1382h115q23 0 39 -10t6 -31l-588 -1300q-10 -23 -19 -32t-30 -9h-135q-39 0 -39 27q0 -6 4 14l588 1300q21 41 59 41zM51 1147q0 104 76 180t181 76
t180 -76.5t75 -179.5v-248q0 -103 -75 -179.5t-180 -76.5t-181 76t-76 180v248z" />
    <glyph glyph-name="o.001" horiz-adv-x="847" 
d="M528 686q0 43 -30.5 74t-73.5 31t-74 -31t-31 -74v-348q0 -43 31 -74t74 -31t73.5 31t30.5 74v348zM66 686q0 150 104 254t254 104t254 -104t104 -254v-348q0 -150 -104 -254t-254 -104t-254 104t-104 254v348z" />
    </font>
</defs>
</svg>
